<svg width="235" height="45" viewBox="0 0 235 45" fill="none" xmlns="http://www.w3.org/2000/svg">
<path d="M28.3465 24.9756V43.4911H20.9503V25.1621C20.9503 20.751 17.7462 18.7627 14.1722 18.7627C10.5981 18.7627 7.39409 20.751 7.39409 25.1621V43.4911H0V24.9756C0 19.5703 4.00505 11.8652 14.1743 11.8652C24.3435 11.8652 28.3465 19.5703 28.3465 24.9756Z" fill="#CBCBCB"/>
<path d="M76.7221 43.9296C66.616 43.9296 61.2549 38.7724 61.2549 29.204V0.000976562H68.649V12.4288H75.6751V19.2627H68.649V29.1426C68.649 34.7958 70.9301 37.0957 76.7221 37.0957V43.9296Z" fill="#CBCBCB"/>
<path d="M93.1143 12.4307H101.063L108.582 33.4941L116.1 12.4307H124.049L121.768 18.5206L127.068 33.4941L134.586 12.4307H142.535L130.888 43.4969H123.246L117.822 28.9579L112.399 43.4969H104.761L93.1143 12.4307Z" fill="#CBCBCB"/>
<path d="M172.611 12.4307H180.56L188.079 33.4941L195.597 12.4307H203.546L191.899 43.4969H184.256L172.611 12.4307Z" fill="#CBCBCB"/>
<path d="M225.551 33.8661H233.624C231.591 40.1426 226.106 44.0555 218.649 44.0555C209.098 44.0555 202.688 37.5926 202.688 27.9628C202.688 18.3945 209.096 11.9951 218.649 11.9951C228.202 11.9951 234.549 18.3945 234.549 27.9628C234.549 28.8319 234.488 29.6395 234.425 30.4492H210.33C211.131 34.7352 214.213 37.2216 218.588 37.2216C221.668 37.2216 224.071 36.041 225.551 33.8661ZM226.352 23.6153C225.057 20.5714 222.284 18.8311 218.586 18.8311C214.951 18.8311 212.178 20.5714 210.883 23.6153H226.352Z" fill="#CBCBCB"/>
<path d="M46.346 26.5175L56.8221 17.1908C57.333 16.7351 57.5895 16.1395 57.5895 15.5417C57.5895 14.9461 57.333 14.3483 56.8221 13.8926C55.8004 12.9811 54.1416 12.9811 53.1177 13.8926L44.4937 21.5701L35.8698 13.8926C34.848 12.9811 33.1892 12.9811 32.1654 13.8926C31.1415 14.8041 31.1415 16.2794 32.1654 17.1908L42.6415 26.5175C43.6633 27.429 45.3242 27.429 46.346 26.5175Z" fill="#CBCBCB"/>
<path d="M44.494 27.876C43.6594 27.876 42.8247 27.592 42.1877 27.026L31.7115 17.6993C31.0661 17.1249 30.7129 16.3555 30.7129 15.5309C30.7129 14.7063 31.0682 13.9369 31.7115 13.3646C32.9835 12.2326 35.0522 12.2326 36.3242 13.3646L44.494 20.6394L52.6639 13.3646C53.9338 12.2326 56.0046 12.2326 57.2765 13.3646C57.9199 13.939 58.2752 14.7085 58.2752 15.5309C58.2752 16.3555 57.9199 17.1249 57.2765 17.6972L46.8004 27.0239C46.1654 27.5941 45.3287 27.876 44.494 27.876ZM34.0178 13.8966C33.5091 13.8966 33.0003 14.0662 32.6198 14.4032C32.275 14.7106 32.0836 15.1133 32.0836 15.533C32.0836 15.9548 32.2729 16.3555 32.6198 16.6628L43.0959 25.9895C43.8549 26.6657 45.1332 26.6635 45.8921 25.9895L56.3683 16.6628C56.7131 16.3555 56.9044 15.9548 56.9044 15.533C56.9044 15.1112 56.7152 14.7106 56.3683 14.4032C55.6115 13.7292 54.3311 13.727 53.5721 14.4032L44.494 22.4856L35.4159 14.4032C35.0375 14.0662 34.5266 13.8966 34.0178 13.8966Z" fill="#CBCBCB"/>
<path d="M46.344 29.3027L56.8202 38.8392C57.3311 39.3055 57.5876 39.9139 57.5876 40.5243C57.5876 41.1348 57.3311 41.7453 56.8202 42.2095C55.7984 43.14 54.1396 43.14 53.1158 42.2095L44.4918 34.3581L35.8678 42.2095C34.846 43.14 33.1873 43.14 32.1634 42.2095C31.1395 41.279 31.1395 39.7697 32.1634 38.8371L42.6396 29.3005C43.6614 28.3721 45.3222 28.3721 46.344 29.3027Z" fill="#CBCBCB"/>
<path d="M34.016 43.5964C33.1793 43.5964 32.3404 43.306 31.7034 42.7252C31.0622 42.1423 30.709 41.3601 30.709 40.5271C30.709 39.6919 31.0622 38.9119 31.7034 38.3268L42.1796 28.7903C43.4537 27.6287 45.5287 27.6308 46.8028 28.7903L57.2789 38.3268C57.9202 38.9098 58.2734 39.6919 58.2734 40.525C58.2734 41.3601 57.9202 42.1402 57.2789 42.7231C56.0049 43.8847 53.9298 43.8847 52.6558 42.7231L44.4901 35.2914L36.3245 42.7231C35.6895 43.306 34.8528 43.5964 34.016 43.5964ZM44.4922 29.3012C43.9856 29.3012 43.4768 29.4729 43.1005 29.8163L32.6243 39.3528C32.2753 39.6707 32.0839 40.0862 32.0839 40.525C32.0839 40.9637 32.2774 41.3792 32.6243 41.6972C33.3916 42.3967 34.6404 42.3967 35.4078 41.6972L44.4922 33.4282L53.5766 41.6972C54.344 42.3967 55.5928 42.3967 56.3602 41.6972C56.7092 41.3792 56.9005 40.9637 56.9005 40.525C56.9005 40.0862 56.7092 39.6707 56.3602 39.3528L45.884 29.8163C45.5077 29.4729 44.9989 29.3012 44.4922 29.3012Z" fill="#CBCBCB"/>
<path d="M159.723 13.891L170.199 23.2177C170.71 23.6734 170.966 24.269 170.966 24.8668C170.966 25.4645 170.71 26.0602 170.199 26.5159C169.177 27.4274 167.519 27.4274 166.495 26.5159L157.871 18.8384L149.247 26.5159C148.225 27.4274 146.566 27.4274 145.542 26.5159C144.518 25.6044 144.518 24.1291 145.542 23.2177L156.019 13.891C157.04 12.9816 158.701 12.9816 159.723 13.891Z" fill="#CBCBCB"/>
<path d="M147.395 27.8747C146.56 27.8747 145.726 27.5906 145.088 27.0247C144.445 26.4502 144.09 25.6808 144.09 24.8584C144.09 24.0338 144.445 23.2643 145.088 22.692L155.565 13.3654C156.837 12.2334 158.905 12.2313 160.177 13.3654L170.653 22.692C171.299 23.2665 171.652 24.0359 171.652 24.8584C171.652 25.6829 171.297 26.4524 170.653 27.0247C169.382 28.1566 167.313 28.1587 166.041 27.0247L157.871 19.7499L149.701 27.0247C149.064 27.5928 148.229 27.8747 147.395 27.8747ZM157.871 13.8953C157.362 13.8953 156.853 14.0649 156.473 14.4019L145.997 23.7286C145.652 24.0359 145.461 24.4365 145.461 24.8584C145.461 25.2802 145.652 25.6808 145.997 25.9881C146.754 26.6643 148.034 26.6643 148.793 25.9881L157.871 17.9057L166.949 25.9881C167.706 26.6643 168.986 26.6643 169.745 25.9881C170.09 25.6808 170.281 25.2781 170.281 24.8584C170.281 24.4387 170.092 24.0359 169.745 23.7286L159.269 14.4019C158.891 14.0649 158.38 13.8953 157.871 13.8953Z" fill="#CBCBCB"/>
<path d="M159.723 29.3027L170.199 38.8392C170.71 39.3055 170.966 39.9139 170.966 40.5243C170.966 41.1348 170.71 41.7453 170.199 42.2095C169.177 43.14 167.519 43.14 166.495 42.2095L157.871 34.3581L149.247 42.2095C148.225 43.14 146.566 43.14 145.542 42.2095C144.518 41.279 144.518 39.7697 145.542 38.8371L156.019 29.3005C157.04 28.3721 158.701 28.3721 159.723 29.3027Z" fill="#CBCBCB"/>
<path d="M147.395 43.5972C146.558 43.5972 145.719 43.3068 145.082 42.726C144.441 42.1431 144.088 41.3609 144.088 40.5279C144.088 39.6927 144.441 38.9127 145.082 38.3276L155.559 28.7911C156.833 27.6295 158.908 27.6295 160.182 28.7911L170.658 38.3276C171.299 38.9106 171.652 39.6927 171.652 40.5258C171.652 41.3609 171.299 42.141 170.658 42.7239C169.384 43.8855 167.309 43.8855 166.035 42.7239L157.871 35.2922L149.705 42.7239C149.068 43.3068 148.232 43.5972 147.395 43.5972ZM157.871 29.302C157.364 29.302 156.856 29.4737 156.479 29.817L146.003 39.3536C145.654 39.6715 145.463 40.087 145.463 40.5258C145.463 40.9645 145.656 41.38 146.003 41.698C146.771 42.3975 148.019 42.3975 148.787 41.698L157.871 33.429L166.956 41.698C167.723 42.3975 168.972 42.3975 169.739 41.698C170.088 41.38 170.279 40.9645 170.279 40.5258C170.279 40.087 170.088 39.6715 169.739 39.3536L159.263 29.817C158.887 29.4737 158.378 29.302 157.871 29.302Z" fill="#CBCBCB"/>
</svg>
