<svg width="148" height="143" viewBox="0 0 148 143" fill="none" xmlns="http://www.w3.org/2000/svg">
<g filter="url(#filter0_di_163_607)">
<path d="M72.0517 10.4033C72.7585 8.95845 74.8177 8.95844 75.5244 10.4033L92.4988 45.1053C92.7788 45.6776 93.3228 46.0752 93.9531 46.1682L131.944 51.7718C133.523 52.0047 134.155 53.9435 133.017 55.0626L105.508 82.1008C105.057 82.5441 104.851 83.1799 104.957 83.8033L111.446 121.981C111.715 123.562 110.051 124.764 108.634 124.012L74.6942 106.001C74.1275 105.7 73.4486 105.7 72.882 106.001L38.942 124.012C37.525 124.764 35.8615 123.562 36.1303 121.981L42.619 83.8033C42.7249 83.1799 42.5193 82.5441 42.0683 82.1008L14.5593 55.0626C13.4207 53.9435 14.0528 52.0047 15.6322 51.7718L53.6231 46.1682C54.2534 46.0752 54.7974 45.6776 55.0774 45.1053L72.0517 10.4033Z" fill="url(#paint0_linear_163_607)"/>
</g>
<defs>
<filter id="filter0_di_163_607" x="0.000203133" y="-0.000189781" width="147.576" height="142.881" filterUnits="userSpaceOnUse" color-interpolation-filters="sRGB">
<feFlood flood-opacity="0" result="BackgroundImageFix"/>
<feColorMatrix in="SourceAlpha" type="matrix" values="0 0 0 0 0 0 0 0 0 0 0 0 0 0 0 0 0 0 127 0" result="hardAlpha"/>
<feOffset dy="4.65976"/>
<feGaussianBlur stdDeviation="6.98964"/>
<feComposite in2="hardAlpha" operator="out"/>
<feColorMatrix type="matrix" values="0 0 0 0 1 0 0 0 0 1 0 0 0 0 1 0 0 0 0.2 0"/>
<feBlend mode="normal" in2="BackgroundImageFix" result="effect1_dropShadow_163_607"/>
<feBlend mode="normal" in="SourceGraphic" in2="effect1_dropShadow_163_607" result="shape"/>
<feColorMatrix in="SourceAlpha" type="matrix" values="0 0 0 0 0 0 0 0 0 0 0 0 0 0 0 0 0 0 127 0" result="hardAlpha"/>
<feOffset/>
<feGaussianBlur stdDeviation="1.93294"/>
<feComposite in2="hardAlpha" operator="arithmetic" k2="-1" k3="1"/>
<feColorMatrix type="matrix" values="0 0 0 0 1 0 0 0 0 1 0 0 0 0 1 0 0 0 1 0"/>
<feBlend mode="normal" in2="shape" result="effect2_innerShadow_163_607"/>
</filter>
<linearGradient id="paint0_linear_163_607" x1="49.9419" y1="47.3135" x2="99.8809" y2="125.941" gradientUnits="userSpaceOnUse">
<stop stop-color="white"/>
<stop offset="1" stop-color="#9A88F5"/>
</linearGradient>
</defs>
</svg>
