<svg width="100" height="141" viewBox="0 0 100 141" fill="none" xmlns="http://www.w3.org/2000/svg">
<g filter="url(#filter0_di_180_892)">
<path d="M80.5066 44.4193H59.532C58.5788 44.4193 57.8505 43.5688 57.9973 42.627L62.1248 16.1346C62.256 15.296 62.2147 14.4369 62.0038 13.6171C61.7929 12.7973 61.4176 12.0366 60.9039 11.3878C60.3902 10.7391 59.7506 10.218 59.0294 9.86072C58.3083 9.50349 57.5231 9.31874 56.7284 9.31934H28.5598C27.2664 9.31974 26.015 9.81074 25.028 10.7051C24.0409 11.5994 23.3822 12.8392 23.1688 14.2041L14.0544 72.7041C13.9234 73.5422 13.9646 74.4008 14.1751 75.2202C14.3857 76.0395 14.7605 76.8 15.2736 77.4486C15.7867 78.0973 16.4257 78.6185 17.1461 78.9761C17.8666 79.3337 18.6512 79.5191 19.4454 79.5193H39.7622C40.6201 79.5193 41.3155 80.2148 41.3155 81.0726V120.719C41.3155 122.293 43.389 122.868 44.2001 121.519L85.1103 53.4342C85.6418 52.5501 85.9408 51.5291 85.976 50.4786C86.0111 49.4281 85.7811 48.3868 85.31 47.4643C84.8389 46.5418 84.1442 45.7722 83.2989 45.2364C82.4537 44.7006 81.4891 44.4183 80.5066 44.4193Z" fill="url(#paint0_linear_180_892)"/>
</g>
<defs>
<filter id="filter0_di_180_892" x="0.000203133" y="-0.000189781" width="99.9586" height="140.914" filterUnits="userSpaceOnUse" color-interpolation-filters="sRGB">
<feFlood flood-opacity="0" result="BackgroundImageFix"/>
<feColorMatrix in="SourceAlpha" type="matrix" values="0 0 0 0 0 0 0 0 0 0 0 0 0 0 0 0 0 0 127 0" result="hardAlpha"/>
<feOffset dy="4.65976"/>
<feGaussianBlur stdDeviation="6.98964"/>
<feComposite in2="hardAlpha" operator="out"/>
<feColorMatrix type="matrix" values="0 0 0 0 1 0 0 0 0 1 0 0 0 0 1 0 0 0 0.2 0"/>
<feBlend mode="normal" in2="BackgroundImageFix" result="effect1_dropShadow_180_892"/>
<feBlend mode="normal" in="SourceGraphic" in2="effect1_dropShadow_180_892" result="shape"/>
<feColorMatrix in="SourceAlpha" type="matrix" values="0 0 0 0 0 0 0 0 0 0 0 0 0 0 0 0 0 0 127 0" result="hardAlpha"/>
<feOffset/>
<feGaussianBlur stdDeviation="1.93294"/>
<feComposite in2="hardAlpha" operator="arithmetic" k2="-1" k3="1"/>
<feColorMatrix type="matrix" values="0 0 0 0 1 0 0 0 0 1 0 0 0 0 1 0 0 0 1 0"/>
<feBlend mode="normal" in2="shape" result="effect2_innerShadow_180_892"/>
</filter>
<linearGradient id="paint0_linear_180_892" x1="36.1333" y1="49.0993" x2="90.2356" y2="99.4057" gradientUnits="userSpaceOnUse">
<stop stop-color="white"/>
<stop offset="1" stop-color="#88C4BF"/>
</linearGradient>
</defs>
</svg>
