<svg width="103" height="40" viewBox="0 0 103 40" fill="none" xmlns="http://www.w3.org/2000/svg">
<path d="M91.0687 39.0158C87.3437 39.7525 83.7101 39.6861 80.1129 38.6291C76.1615 37.4681 72.9516 35.2597 70.5326 31.9061C70.1597 31.3891 70.0986 30.9212 70.2204 30.3024C71.0232 26.225 70.3033 22.5048 67.4795 19.3298C67.2065 19.0229 67.2001 18.7053 67.2013 18.3552C67.2297 9.39897 73.1726 2.42585 81.3987 0.610741C88.0545 -0.857872 94.2327 0.298613 99.8063 4.33524C100.266 4.66824 100.388 4.92913 100.008 5.4222C98.5014 7.37503 97.0101 9.34022 95.5512 11.3287C95.1462 11.8807 94.8706 11.863 94.3615 11.4477C91.1154 8.79953 87.4259 7.92764 83.3975 9.09512C79.6891 10.1699 77.474 12.7918 76.6025 16.5034C75.854 19.6912 76.1431 22.8167 77.7167 25.7264C79.449 28.9298 82.2299 30.5596 85.831 30.836C87.9731 31.0004 90.0396 30.6807 92.0407 29.8853C92.7577 29.6003 93.1218 29.2089 93.0664 28.3705C92.9903 27.2176 93.0271 26.0548 93.063 24.8978C93.0812 24.3111 92.8858 24.0965 92.2863 24.1062C90.3733 24.1373 88.4592 24.1018 86.5465 24.1383C85.9677 24.1493 85.8085 23.9481 85.8149 23.3994C85.8396 21.2849 85.8447 19.1698 85.8215 17.0553C85.8142 16.3827 86.0308 16.1402 86.7367 16.1442C91.0418 16.1691 95.347 16.1516 99.6522 16.1425C100.155 16.1414 100.659 16.1214 101.16 16.081C101.782 16.0308 102.06 16.2256 102.057 16.9186C102.035 22.3315 102.045 27.7445 102.051 33.1575C102.052 33.5313 101.978 33.8209 101.646 34.0635C98.4621 36.3958 94.9958 38.1205 91.0687 39.0158Z" fill="#CBCBCB"/>
<path d="M58.9622 16.3097C60.2654 16.7341 61.4758 17.2227 62.6432 17.8244C66.1572 19.6355 68.2372 22.4784 68.6015 26.4206C68.9966 30.695 67.7151 34.3182 64.0788 36.8945C62.1292 38.2758 59.9542 39.0968 57.6172 39.4813C54.2732 40.0315 50.9539 39.8399 47.6619 39.0425C47.1158 38.9103 46.8192 38.6403 46.6247 38.1032C46.6247 38.1032 42.4512 31.0734 41.8527 30.0368C41.6696 29.5445 44.0985 27.9311 44.584 27.6652C44.9264 27.4776 45.088 27.7869 45.2778 27.9588C47.124 29.6308 49.2255 30.8264 51.6761 31.3418C53.3173 31.687 54.9663 31.7405 56.604 31.2804C57.0682 31.15 57.5017 30.9552 57.9115 30.7033C60.0365 29.3973 60.0893 26.973 58.0031 25.5889C56.5504 24.6252 54.8713 24.2426 53.2147 23.8138C51.0975 23.2659 48.9555 22.7951 46.9572 21.8683C42.1356 19.6321 39.9172 16.0218 40.326 10.8626C40.712 5.99169 43.4033 2.46606 48.3665 1.03607C54.3662 -0.692579 60.1124 0.0266747 65.4946 3.27401C65.6885 3.39097 65.8653 3.53795 66.0643 3.64414C66.7367 4.00287 66.8174 4.42104 66.3996 5.09268C65.2565 6.93028 64.1888 8.81454 63.0769 10.6717C62.6068 11.4569 62.5464 11.4648 61.8239 10.9135C59.3254 9.00717 56.5127 8.10397 53.3706 8.24734C52.3726 8.29288 51.4367 8.55661 50.5906 9.10277C48.9828 10.1406 48.8669 12.255 50.3624 13.4467C51.2266 14.1354 52.2547 14.4899 53.299 14.7817C55.1627 15.3026 57.035 15.7923 58.9622 16.3097Z" fill="#CBCBCB"/>
<path d="M21.6872 1.3584C21.7128 1.3613 21.7128 1.3613 21.7437 1.37259C21.7651 1.40135 21.7651 1.40135 21.7855 1.43959C21.7932 1.45379 21.801 1.46799 21.8089 1.48262C21.8171 1.49811 21.8253 1.51359 21.8337 1.52954C21.8515 1.56226 21.8693 1.59495 21.8871 1.62764C21.8916 1.63599 21.8962 1.64435 21.9008 1.65295C21.9454 1.73515 21.9922 1.81597 22.0394 1.89666C22.0559 1.9249 22.0724 1.95315 22.0889 1.9814C22.0971 1.99554 22.1054 2.00968 22.1139 2.02424C22.1576 2.09948 22.2009 2.17497 22.2442 2.25047C22.253 2.26579 22.2618 2.28112 22.2709 2.29691C22.2887 2.32798 22.3065 2.35905 22.3243 2.39012C22.3685 2.46714 22.4127 2.54414 22.457 2.62113C22.4746 2.65187 22.4923 2.68261 22.5099 2.71335C22.5187 2.72857 22.5274 2.74379 22.5364 2.75946C24.0989 5.48001 24.0989 5.48001 24.1254 5.52613C24.143 5.55685 24.1607 5.58757 24.1783 5.61829C24.2227 5.69548 24.267 5.77268 24.3113 5.8499C24.3963 5.99819 24.4816 6.14633 24.5676 6.29405C24.6442 6.42557 24.7197 6.55771 24.7948 6.69009C24.8682 6.81954 24.9425 6.94849 25.0174 7.07712C25.1044 7.22643 25.1903 7.3763 25.2763 7.52618C25.3204 7.6032 25.3647 7.68019 25.4089 7.75719C25.4266 7.78793 25.4442 7.81867 25.4619 7.84941C25.475 7.87224 25.475 7.87224 25.4884 7.89552C27.0508 10.6161 27.0508 10.6161 27.0773 10.6622C27.095 10.6929 27.1126 10.7236 27.1303 10.7543C27.1746 10.8315 27.2189 10.9087 27.2632 10.986C27.3483 11.1342 27.4336 11.2824 27.5196 11.4301C27.5962 11.5616 27.6716 11.6938 27.7467 11.8261C27.8202 11.9556 27.8945 12.0846 27.9694 12.2132C28.0563 12.3625 28.1423 12.5124 28.2282 12.6622C28.2724 12.7393 28.3166 12.8163 28.3608 12.8932C28.3785 12.924 28.3962 12.9547 28.4138 12.9855C28.4269 13.0083 28.4269 13.0083 28.4403 13.0316C30.0028 15.7521 30.0028 15.7521 30.0293 15.7983C30.0469 15.829 30.0645 15.8597 30.0822 15.8904C30.1265 15.9676 30.1708 16.0448 30.2151 16.122C30.3002 16.2703 30.3855 16.4184 30.4715 16.5662C30.5481 16.6977 30.6236 16.8298 30.6987 16.9622C30.7721 17.0917 30.8464 17.2206 30.9213 17.3492C31.0082 17.4985 31.0942 17.6484 31.1801 17.7983C31.2243 17.8753 31.2686 17.9523 31.3128 18.0293C31.3304 18.06 31.3481 18.0908 31.3657 18.1215C31.3745 18.1367 31.3832 18.152 31.3922 18.1676C32.9547 20.8882 32.9547 20.8882 32.9812 20.9343C32.9988 20.965 33.0165 20.9957 33.0341 21.0265C33.0785 21.1037 33.1228 21.1809 33.1671 21.2581C33.2521 21.4064 33.3374 21.5545 33.4235 21.7022C33.5 21.8338 33.5755 21.9659 33.6506 22.0983C33.7241 22.2277 33.7983 22.3567 33.8732 22.4853C33.9602 22.6346 34.0461 22.7845 34.1321 22.9344C34.1763 23.0114 34.2205 23.0884 34.2647 23.1654C34.2824 23.1961 34.3 23.2268 34.3177 23.2576C34.3264 23.2728 34.3352 23.288 34.3442 23.3037C35.9066 26.0242 35.9066 26.0243 35.9332 26.0704C35.9507 26.101 35.9682 26.1315 35.9858 26.162C36.0269 26.2335 36.0679 26.305 36.1089 26.3766C36.1233 26.4019 36.1378 26.4272 36.1523 26.4524C36.1704 26.4841 36.1885 26.5158 36.2066 26.5474C36.248 26.6196 36.2898 26.691 36.336 26.7602C36.348 26.7833 36.348 26.7833 36.348 26.8259C35.404 26.8277 34.46 26.8295 33.5159 26.8311C33.502 26.8312 33.488 26.8312 33.4736 26.8312C33.1699 26.8317 32.8663 26.8322 32.5626 26.8327C32.4137 26.833 32.2648 26.8332 32.1159 26.8335C32.1011 26.8335 32.0862 26.8335 32.071 26.8336C31.5907 26.8344 31.1104 26.8353 30.6301 26.8362C30.1365 26.8372 29.6429 26.8381 29.1493 26.8388C29.0796 26.839 29.0099 26.8391 28.9402 26.8392C28.9265 26.8392 28.9127 26.8392 28.8986 26.8392C28.6777 26.8396 28.4569 26.84 28.236 26.8405C28.014 26.841 27.7919 26.8414 27.5699 26.8417C27.438 26.8418 27.306 26.8421 27.1741 26.8424C27.086 26.8427 26.9978 26.8428 26.9096 26.8428C26.8594 26.8429 26.8092 26.8429 26.759 26.8431C26.7048 26.8434 26.6506 26.8434 26.5964 26.8433C26.581 26.8434 26.5656 26.8435 26.5496 26.8436C26.2681 26.8428 26.0243 26.7729 25.8166 26.577C25.6962 26.4514 25.6145 26.2952 25.529 26.1448C25.5207 26.1302 25.5123 26.1156 25.5038 26.1006C25.4658 26.0339 25.4279 25.9673 25.3901 25.9006C25.3287 25.7924 25.2667 25.6847 25.2041 25.5773C25.1233 25.4386 25.0437 25.2993 24.9644 25.1597C24.9011 25.048 24.8373 24.9366 24.7733 24.8254C24.6996 24.6973 24.6264 24.569 24.5535 24.4405C24.4838 24.3178 24.4136 24.1953 24.3425 24.0734C24.2715 23.9515 24.2012 23.829 24.1316 23.7063C24.0323 23.5314 23.9323 23.3569 23.8321 23.1826C23.788 23.106 23.7439 23.0293 23.6999 22.9525C23.6822 22.9218 23.6646 22.8911 23.6469 22.8603C22.773 21.3387 21.8991 19.817 19.0919 14.9292C19.0832 14.914 19.0744 14.8988 19.0654 14.8831C19.0478 14.8524 19.0301 14.8216 19.0124 14.7908C18.9685 14.7143 18.9245 14.6378 18.8805 14.5613C18.7842 14.3938 18.6883 14.2261 18.5929 14.058C18.528 13.9437 18.4625 13.8297 18.3963 13.7162C18.3252 13.5942 18.255 13.4718 18.1853 13.349C18.086 13.1742 17.9861 12.9997 17.8858 12.8254C17.8329 12.7333 17.78 12.6412 17.7271 12.5491C17.6832 12.4726 17.6392 12.3961 17.5952 12.3196C17.4993 12.1527 17.4037 11.9856 17.3086 11.8183C17.2404 11.6982 17.1719 11.5782 17.1031 11.4585C17.0945 11.4435 17.0859 11.4285 17.077 11.4131C17.0366 11.3428 16.9961 11.2725 16.9555 11.2024C16.5805 10.5561 16.5805 10.5561 16.6308 10.2117C16.6497 10.1495 16.6773 10.0975 16.7115 10.0424C16.7326 10.0082 16.7527 9.9735 16.7728 9.93865C16.8061 9.8808 16.8398 9.82312 16.8735 9.76551C16.9283 9.67153 16.981 9.57642 17.0333 9.48103C17.1082 9.34471 17.185 9.20973 17.2636 9.07551C17.3223 8.97492 17.3794 8.87353 17.4359 8.77163C17.5084 8.64069 17.5828 8.51097 17.6583 8.38174C17.7172 8.28065 17.7746 8.17878 17.8313 8.07642C17.9033 7.9465 17.977 7.81767 18.0519 7.6894C18.115 7.58115 18.1773 7.47244 18.2392 7.36347C18.2439 7.35519 18.2486 7.34691 18.2534 7.33838C18.2773 7.29626 18.3013 7.25413 18.3252 7.21199C18.3727 7.12826 18.4202 7.04457 18.4678 6.96089C18.4725 6.95266 18.4772 6.94444 18.482 6.93596C18.5933 6.74015 18.7056 6.54487 18.818 6.34961C18.8443 6.3039 18.8705 6.25819 18.8968 6.21247C18.9055 6.19735 18.9142 6.18222 18.9232 6.16664C18.9931 6.04484 19.0625 5.92274 19.1318 5.8006C19.2047 5.67236 19.2784 5.54467 19.3527 5.41727C19.4159 5.30854 19.4783 5.19928 19.5403 5.08984C19.6182 4.95258 19.6969 4.81583 19.7764 4.6795C19.8397 4.57077 19.902 4.4615 19.9641 4.35207C20.0423 4.21414 20.1213 4.07669 20.2011 3.93967C20.288 3.79035 20.374 3.64049 20.46 3.4906C20.5041 3.41358 20.5484 3.33659 20.5926 3.25959C20.6102 3.22885 20.6279 3.19811 20.6456 3.16737C20.7515 2.98293 20.8574 2.79848 20.9634 2.61404C20.9721 2.59882 20.9808 2.5836 20.9898 2.56792C21.0075 2.5372 21.0251 2.50648 21.0428 2.47577C21.0871 2.39858 21.1314 2.32137 21.1757 2.24415C21.2703 2.07916 21.3653 1.91439 21.461 1.74997C21.5367 1.61966 21.612 1.48907 21.6872 1.3584Z" fill="#CBCBCB"/>
<path d="M14.6358 13.3691C14.6763 13.4178 14.7094 13.4668 14.7403 13.522C14.7493 13.5379 14.7583 13.5538 14.7676 13.5703C14.7723 13.5787 14.777 13.5871 14.7819 13.5957C14.807 13.6406 14.8324 13.6854 14.8577 13.7302C14.8629 13.7393 14.868 13.7484 14.8733 13.7578C14.9209 13.8421 14.9694 13.9258 15.0181 14.0094C15.0866 14.1268 15.1545 14.2445 15.2221 14.3624C15.3227 14.5378 15.4242 14.7127 15.5258 14.8874C15.6722 15.1389 15.8175 15.3911 15.9623 15.6436C16.0566 15.808 16.151 15.9723 16.2463 16.1361C16.3417 16.3 16.4362 16.4643 16.5305 16.6288C16.5568 16.6748 16.5833 16.7207 16.6097 16.7666C16.706 16.9341 16.8019 17.1018 16.8973 17.2699C16.9622 17.3842 17.0278 17.4982 17.094 17.6118C17.1647 17.7332 17.2347 17.855 17.3041 17.9771C17.3088 17.9854 17.3135 17.9937 17.3184 18.0022C17.3567 18.0697 17.395 18.1372 17.4333 18.2047C17.4668 18.2637 17.5002 18.3226 17.5337 18.3815C17.5384 18.3898 17.5431 18.3981 17.5479 18.4066C17.6205 18.5343 17.694 18.6615 17.768 18.7884C17.8313 18.8971 17.8936 19.0064 17.9557 19.1158C18.034 19.2538 18.113 19.3912 18.1928 19.5283C18.2528 19.6312 18.3123 19.7344 18.3716 19.8377C18.3804 19.853 18.3892 19.8684 18.3983 19.8842C18.4426 19.9614 18.4868 20.0386 18.531 20.1158C18.63 20.2888 18.7303 20.461 18.8319 20.6325C18.8966 20.7419 18.9602 20.8519 19.0232 20.9622C19.0926 21.0836 19.1632 21.2042 19.2351 21.324C19.7754 22.2245 19.7754 22.2245 19.713 22.6021C19.6603 22.8029 19.5576 22.9856 19.4516 23.1623C19.4027 23.2439 19.3556 23.3265 19.3084 23.409C19.2393 23.5295 19.1699 23.6499 19.1 23.7699C19.0314 23.8879 18.9631 24.0062 18.8952 24.1247C18.8273 24.2431 18.759 24.3614 18.6903 24.4794C18.586 24.6587 18.4827 24.8386 18.3795 25.0186C18.2683 25.2126 18.1567 25.4065 18.0443 25.5999C17.9572 25.7497 17.8709 25.9001 17.7847 26.0504C17.7317 26.1428 17.6786 26.2351 17.6255 26.3275C17.5812 26.4047 17.5369 26.4819 17.4926 26.5591C17.3991 26.7221 17.3052 26.8848 17.2108 27.0472C17.1236 27.197 17.0374 27.3474 16.9512 27.4977C16.907 27.5748 16.8627 27.6518 16.8185 27.7288C16.8008 27.7595 16.7832 27.7902 16.7655 27.821C16.7302 27.8825 16.6949 27.944 16.6596 28.0054C16.6508 28.0207 16.6421 28.0359 16.6331 28.0516C16.6154 28.0823 16.5978 28.113 16.5801 28.1437C16.5358 28.2209 16.4914 28.2981 16.4472 28.3754C16.3537 28.5383 16.2598 28.701 16.1653 28.8634C16.0782 29.0133 15.992 29.1636 15.9057 29.314C15.8616 29.391 15.8173 29.468 15.7731 29.545C15.7554 29.5757 15.7378 29.6065 15.7201 29.6372C15.5435 29.9447 15.3669 30.2521 15.1903 30.5595C15.1816 30.5748 15.1728 30.59 15.1638 30.6057C15.1462 30.6364 15.1285 30.6671 15.1109 30.6978C15.0665 30.775 15.0222 30.8522 14.9779 30.9295C14.8928 31.0778 14.8075 31.2259 14.7215 31.3736C14.6498 31.4968 14.579 31.6204 14.5087 31.7443C14.4304 31.8823 14.3514 32.0197 14.2716 32.1568C14.1846 32.3061 14.0987 32.456 14.0127 32.6059C13.9685 32.6829 13.9243 32.7599 13.88 32.8369C13.8624 32.8677 13.8447 32.8984 13.827 32.9292C13.7917 32.9906 13.7564 33.0521 13.7211 33.1136C13.7123 33.1288 13.7036 33.1441 13.6946 33.1597C13.677 33.1905 13.6593 33.2212 13.6417 33.2519C13.5973 33.3291 13.553 33.4063 13.5087 33.4835C13.4152 33.6465 13.3213 33.8092 13.2269 33.9716C13.1398 34.1214 13.0535 34.2718 12.9673 34.4221C12.9231 34.4992 12.8788 34.5762 12.8346 34.6532C12.8169 34.6839 12.7993 34.7146 12.7816 34.7454C12.7463 34.8069 12.711 34.8684 12.6757 34.9298C12.6669 34.9451 12.6582 34.9603 12.6492 34.976C12.6315 35.0067 12.6139 35.0374 12.5962 35.0681C12.5519 35.1453 12.5076 35.2225 12.4633 35.2998C12.3698 35.4627 12.2759 35.6254 12.1815 35.7878C12.0854 35.9531 11.9903 36.119 11.8951 36.2849C11.7839 36.479 11.6723 36.6729 11.5599 36.8662C11.4638 37.0315 11.3687 37.1974 11.2735 37.3633C11.048 37.7566 11.048 37.7566 10.9384 37.9442C10.8948 38.0189 10.8519 38.094 10.8098 38.1696C10.7177 38.3346 10.63 38.4913 10.4965 38.6262C10.486 38.6371 10.4755 38.648 10.4647 38.6593C10.2875 38.8309 10.1049 38.8408 9.87129 38.8419C9.85266 38.8421 9.83404 38.8422 9.81485 38.8423C9.76302 38.8427 9.71119 38.843 9.65937 38.8433C9.61415 38.8435 9.56894 38.8438 9.52373 38.8441C9.37054 38.8451 9.21734 38.8459 9.06415 38.8467C9.00915 38.847 8.95415 38.8473 8.89915 38.8476C7.6827 38.8543 6.46624 38.8547 4.01712 38.8542C3.70187 38.8541 3.38662 38.854 3.07137 38.854C3.06047 38.854 3.04958 38.854 3.03835 38.854C2.92885 38.854 2.81934 38.8539 2.70983 38.8539C2.48719 38.8539 2.26454 38.8538 2.0419 38.8538C2.03168 38.8538 2.02147 38.8538 2.01094 38.8538C1.34063 38.8537 0.670314 38.8534 0 38.8532C0.00975191 38.7993 0.0232664 38.761 0.0513216 38.7138C0.0629977 38.694 0.0629977 38.694 0.0749096 38.6737C0.0834061 38.6595 0.0919026 38.6453 0.100657 38.6306C0.118822 38.5998 0.136978 38.5689 0.155124 38.5381C0.164527 38.5222 0.173931 38.5062 0.18362 38.4898C0.228646 38.4132 0.272815 38.3361 0.31698 38.259C0.334767 38.228 0.352555 38.197 0.370344 38.166C0.379174 38.1506 0.388004 38.1352 0.397101 38.1194C0.450098 38.027 0.503169 37.9346 0.556226 37.8423C0.600575 37.7651 0.644906 37.6879 0.6892 37.6106C0.774279 37.4623 0.859596 37.3142 0.945643 37.1664C1.01734 37.0433 1.08812 36.9197 1.15843 36.7957C1.2367 36.6578 1.31572 36.5203 1.39554 36.3833C1.48248 36.234 1.56846 36.0841 1.65443 35.9342C1.69861 35.8572 1.74286 35.7802 1.7871 35.7032C1.80476 35.6724 1.82242 35.6417 1.84007 35.6109C2.29921 34.8116 2.75834 34.0123 3.21748 33.2129C3.22622 33.1977 3.23497 33.1825 3.24397 33.1668C3.26162 33.1361 3.27927 33.1054 3.29692 33.0747C3.34126 32.9975 3.38559 32.9202 3.42989 32.843C3.51496 32.6947 3.60028 32.5466 3.68633 32.3988C3.75803 32.2757 3.8288 32.1521 3.89912 32.0281C3.97739 31.8902 4.05641 31.7527 4.13622 31.6157C4.22317 31.4664 4.30915 31.3165 4.39511 31.1666C4.4393 31.0896 4.48354 31.0126 4.52778 30.9355C4.54544 30.9048 4.5631 30.8741 4.58076 30.8433C5.0399 30.044 5.49903 29.2447 5.95817 28.4453C5.96691 28.4301 5.97565 28.4149 5.98466 28.3992C6.0023 28.3685 6.01995 28.3378 6.0376 28.307C6.08195 28.2298 6.12628 28.1526 6.17057 28.0754C6.25565 27.9271 6.34097 27.7789 6.42701 27.6312C6.49871 27.5081 6.56949 27.3844 6.63981 27.2605C6.71807 27.1226 6.7971 26.9851 6.87691 26.8481C6.96385 26.6987 7.04983 26.5489 7.1358 26.399C7.17999 26.3219 7.22423 26.2449 7.26847 26.1679C7.28613 26.1372 7.30379 26.1064 7.32145 26.0757C7.70995 25.3993 8.09844 24.723 8.48694 24.0466C8.49569 24.0314 8.50443 24.0162 8.51344 24.0005C8.53108 23.9698 8.54873 23.9391 8.56638 23.9083C8.61073 23.8311 8.65506 23.7539 8.69935 23.6767C8.78443 23.5284 8.86975 23.3802 8.95579 23.2325C9.02749 23.1094 9.09827 22.9857 9.16858 22.8618C9.24685 22.7239 9.32587 22.5864 9.40569 22.4494C9.49263 22.3 9.57861 22.1502 9.66458 22.0003C9.70876 21.9232 9.75301 21.8462 9.79725 21.7692C9.81491 21.7385 9.83256 21.7077 9.85022 21.677C10.3094 20.8777 10.7685 20.0783 11.2276 19.279C11.2364 19.2638 11.2451 19.2486 11.2541 19.2329C11.2718 19.2022 11.2894 19.1714 11.3071 19.1407C11.3514 19.0635 11.3957 18.9863 11.44 18.9091C11.5251 18.7608 11.6104 18.6126 11.6965 18.4649C11.7682 18.3418 11.839 18.2181 11.9093 18.0942C11.9875 17.9563 12.0666 17.8188 12.1464 17.6818C12.2333 17.5324 12.3193 17.3825 12.4053 17.2326C12.4494 17.1556 12.4937 17.0786 12.5379 17.0016C12.5556 16.9709 12.5733 16.9401 12.5909 16.9094C13.2796 15.7104 13.2796 15.7104 13.9683 14.5114C13.9771 14.4962 13.9858 14.4809 13.9948 14.4653C14.0125 14.4345 14.0301 14.4038 14.0478 14.3731C14.0921 14.2959 14.1364 14.2187 14.1807 14.1415C14.2688 13.9879 14.3571 13.8344 14.446 13.6813C14.4539 13.6677 14.4618 13.654 14.4699 13.64C14.6155 13.3896 14.6155 13.3896 14.6358 13.3691Z" fill="#CBCBCB"/>
<path d="M31.2256 29.8789C32.2767 29.8774 33.3278 29.876 34.3788 29.8754C34.4642 29.8753 34.5496 29.8753 34.635 29.8752C34.6563 29.8752 34.6776 29.8752 34.6988 29.8752C35.0366 29.875 35.3744 29.8746 35.7121 29.8741C36.0612 29.8737 36.4102 29.8734 36.7592 29.8734C36.9611 29.8733 37.163 29.8732 37.3649 29.8728C37.5002 29.8725 37.6356 29.8725 37.7709 29.8726C37.8481 29.8726 37.9253 29.8726 38.0025 29.8723C38.0729 29.8721 38.1432 29.8721 38.2136 29.8723C38.2388 29.8724 38.264 29.8723 38.2892 29.8721C38.5154 29.8707 38.7938 29.8936 38.9671 30.0574C39.0344 30.1303 39.083 30.2115 39.1316 30.2975C39.1489 30.3277 39.1662 30.3579 39.1836 30.388C39.1926 30.4038 39.2017 30.4196 39.211 30.4359C39.2545 30.5118 39.2989 30.5873 39.3433 30.6627C39.3586 30.6887 39.3738 30.7147 39.3891 30.7407C39.4544 30.8518 39.5205 30.9623 39.5872 31.0725C39.6684 31.2068 39.7475 31.3423 39.8259 31.4783C39.8883 31.5867 39.9517 31.6945 40.0156 31.8021C40.0794 31.9095 40.1429 32.0171 40.2062 32.1248C40.2113 32.1336 40.2164 32.1423 40.2217 32.1512C40.2979 32.281 40.374 32.4109 40.4499 32.5409C40.5148 32.6518 40.5799 32.7626 40.645 32.8734C40.7433 33.0404 40.8412 33.2075 40.9389 33.3748C40.9632 33.4163 40.9874 33.4577 41.0117 33.4991C41.0966 33.644 41.181 33.7891 41.2649 33.9345C41.3372 34.0599 41.4106 34.1845 41.4848 34.3088C41.5667 34.446 41.6468 34.584 41.7258 34.7228C41.7952 34.8445 41.8659 34.9653 41.9378 35.0855C42.0199 35.223 42.1004 35.3614 42.1798 35.5006C42.2527 35.6284 42.3265 35.7556 42.4009 35.8825C42.4612 35.9853 42.521 36.0884 42.5806 36.1916C42.6485 36.3092 42.7168 36.4266 42.7855 36.5438C42.8631 36.6764 42.9402 36.8093 43.0171 36.9424C43.0761 37.0446 43.1355 37.1465 43.1952 37.2483C43.2729 37.3809 43.3499 37.5138 43.4268 37.6469C43.4858 37.7491 43.5452 37.851 43.6049 37.9528C43.6824 38.0851 43.7594 38.2178 43.836 38.3507C43.8814 38.4292 43.927 38.5075 43.973 38.5855C43.9822 38.6011 43.9914 38.6167 44.0009 38.6328C44.0185 38.6627 44.0362 38.6925 44.054 38.7223C44.0657 38.7422 44.0657 38.7422 44.0777 38.7625C44.0846 38.7742 44.0916 38.7859 44.0987 38.798C44.1135 38.8264 44.1135 38.8264 44.1135 38.8546C34.4625 38.8546 24.8116 38.8546 14.8682 38.8546C14.8894 38.7911 14.9079 38.7458 14.9407 38.6893C14.9496 38.6738 14.9586 38.6584 14.9678 38.6424C14.9775 38.6256 14.9873 38.6089 14.9971 38.5921C15.0073 38.5746 15.0174 38.557 15.0276 38.5394C15.0487 38.5029 15.0698 38.4664 15.091 38.4299C15.1351 38.3538 15.1787 38.2774 15.2224 38.201C15.308 38.0512 15.3942 37.9019 15.4807 37.7526C15.5408 37.6488 15.6005 37.5448 15.66 37.4407C15.7345 37.3105 15.8094 37.1805 15.8854 37.051C15.9854 36.8807 16.0836 36.7093 16.1816 36.5378C16.2291 36.4546 16.2767 36.3715 16.3242 36.2884C16.3289 36.2803 16.3336 36.2721 16.3384 36.2636C16.4148 36.1304 16.4915 35.9974 16.5685 35.8646C16.6286 35.7608 16.6883 35.6568 16.7479 35.5527C16.8303 35.4086 16.9134 35.2649 16.9975 35.1218C17.0604 35.0144 17.1225 34.9065 17.1843 34.7984C17.2836 34.6248 17.3836 34.4515 17.4839 34.2784C17.528 34.2022 17.572 34.1261 17.6161 34.0499C17.6689 33.9586 17.7217 33.8673 17.7745 33.7761C17.8705 33.6104 17.9662 33.4444 18.0613 33.2782C18.1292 33.1595 18.1974 33.041 18.266 32.9227C18.3629 32.7554 18.4591 32.5877 18.5551 32.4199C18.5886 32.3615 18.622 32.3031 18.6556 32.2448C18.7549 32.0717 18.8536 31.8984 18.9511 31.7243C19.0095 31.6199 19.0687 31.516 19.1283 31.4123C19.1796 31.3229 19.2307 31.2334 19.2815 31.1438C19.2891 31.1304 19.2966 31.117 19.3045 31.1032C19.3446 31.0324 19.3845 30.9615 19.4242 30.8904C19.7585 30.2914 19.7585 30.2914 19.8695 30.1751C19.883 30.1606 19.883 30.1606 19.8967 30.1459C19.9589 30.0848 20.0276 30.0418 20.1044 30.0017C20.1172 29.9948 20.1172 29.9948 20.1302 29.9878C20.3047 29.9018 20.5011 29.9012 20.6911 29.9016C20.7168 29.9015 20.7425 29.9013 20.7681 29.9012C20.8393 29.9009 20.9104 29.9008 20.9816 29.9008C21.0607 29.9007 21.1398 29.9004 21.219 29.9001C21.3707 29.8995 21.5224 29.8992 21.6741 29.899C21.8216 29.8987 21.9691 29.8984 22.1166 29.898C22.1267 29.898 22.1368 29.8979 22.1472 29.8979C22.1886 29.8978 22.23 29.8977 22.2714 29.8976C22.6672 29.8965 23.063 29.8956 23.4589 29.8948C23.9158 29.8939 24.3727 29.8928 24.8297 29.8916C24.9735 29.8912 25.1173 29.8908 25.2612 29.8905C25.2773 29.8904 25.2935 29.8904 25.3101 29.8903C26.7971 29.8864 28.2841 29.8833 30.7853 29.8796C30.9321 29.8794 31.0788 29.8791 31.2256 29.8789Z" fill="#CBCBCB"/>
</svg>
