<svg width="104" height="55" viewBox="0 0 104 55" fill="none" xmlns="http://www.w3.org/2000/svg">
<path d="M99.9217 48.1515V48.7318H99.9477C99.9997 48.6509 100.066 48.5701 100.147 48.4893C100.233 48.4027 100.337 48.3276 100.459 48.2641C100.58 48.1948 100.716 48.14 100.866 48.0996C101.022 48.0534 101.195 48.0303 101.385 48.0303C101.68 48.0303 101.951 48.088 102.199 48.2035C102.448 48.3132 102.661 48.4662 102.84 48.6625C103.019 48.8588 103.158 49.0897 103.256 49.3553C103.354 49.6209 103.403 49.9067 103.403 50.2127C103.403 50.5187 103.354 50.8074 103.256 51.0787C103.164 51.3443 103.028 51.5781 102.849 51.7802C102.676 51.9765 102.462 52.1353 102.208 52.2565C101.96 52.372 101.677 52.4297 101.359 52.4297C101.065 52.4297 100.794 52.3691 100.545 52.2479C100.303 52.1266 100.115 51.9621 99.9823 51.7542H99.965V54.387H98.9258V48.1515H99.9217ZM102.347 50.2127C102.347 50.051 102.321 49.8923 102.269 49.7364C102.222 49.5747 102.15 49.4304 102.052 49.3033C101.954 49.1763 101.83 49.0753 101.68 49.0002C101.53 48.9194 101.354 48.879 101.151 48.879C100.961 48.879 100.791 48.9194 100.641 49.0002C100.49 49.0811 100.361 49.185 100.251 49.312C100.147 49.439 100.066 49.5834 100.008 49.745C99.9564 49.9067 99.9304 50.0683 99.9304 50.23C99.9304 50.3917 99.9564 50.5533 100.008 50.715C100.066 50.8709 100.147 51.0123 100.251 51.1393C100.361 51.2664 100.49 51.3703 100.641 51.4511C100.791 51.5262 100.961 51.5637 101.151 51.5637C101.354 51.5637 101.53 51.5233 101.68 51.4425C101.83 51.3616 101.954 51.2577 102.052 51.1307C102.15 51.0037 102.222 50.8593 102.269 50.6977C102.321 50.536 102.347 50.3743 102.347 50.2127Z" fill="#CBCBCB"/>
<path d="M97.6785 52.3083H96.6912V51.6415H96.6739C96.5815 51.8493 96.4198 52.0341 96.1889 52.1958C95.9637 52.3516 95.6952 52.4296 95.3835 52.4296C95.1121 52.4296 94.8783 52.3834 94.682 52.291C94.4915 52.1929 94.3327 52.0659 94.2057 51.91C94.0844 51.7541 93.9949 51.5751 93.9372 51.373C93.8795 51.1709 93.8506 50.9631 93.8506 50.7495V48.1514H94.8898V50.455C94.8898 50.5763 94.8985 50.7033 94.9158 50.8361C94.9331 50.9689 94.9707 51.0901 95.0284 51.1998C95.0861 51.3037 95.1641 51.3903 95.2622 51.4596C95.3661 51.5289 95.5018 51.5635 95.6693 51.5635C95.8309 51.5635 95.9724 51.5318 96.0936 51.4683C96.2206 51.399 96.3217 51.3124 96.3967 51.2085C96.4776 51.1046 96.5382 50.9862 96.5786 50.8534C96.619 50.7148 96.6392 50.5763 96.6392 50.4377V48.1514H97.6785V52.3083Z" fill="#CBCBCB"/>
<path d="M88.3564 50.2127C88.3564 49.8836 88.4142 49.5863 88.5297 49.3207C88.6509 49.0493 88.8126 48.8184 89.0146 48.6278C89.2167 48.4373 89.4563 48.2901 89.7334 48.1862C90.0106 48.0822 90.305 48.0303 90.6168 48.0303C90.9286 48.0303 91.223 48.0822 91.5002 48.1862C91.7773 48.2901 92.0169 48.4373 92.219 48.6278C92.421 48.8184 92.5798 49.0493 92.6953 49.3207C92.8165 49.5863 92.8772 49.8836 92.8772 50.2127C92.8772 50.5418 92.8165 50.842 92.6953 51.1134C92.5798 51.3847 92.421 51.6186 92.219 51.8149C92.0169 52.0054 91.7773 52.1555 91.5002 52.2652C91.223 52.3749 90.9286 52.4297 90.6168 52.4297C90.305 52.4297 90.0106 52.3749 89.7334 52.2652C89.4563 52.1555 89.2167 52.0054 89.0146 51.8149C88.8126 51.6186 88.6509 51.3847 88.5297 51.1134C88.4142 50.842 88.3564 50.5418 88.3564 50.2127ZM89.413 50.2127C89.413 50.3743 89.4361 50.536 89.4823 50.6977C89.5343 50.8593 89.6093 51.0037 89.7075 51.1307C89.8056 51.2577 89.9297 51.3616 90.0799 51.4425C90.23 51.5233 90.409 51.5637 90.6168 51.5637C90.8247 51.5637 91.0036 51.5233 91.1537 51.4425C91.3039 51.3616 91.428 51.2577 91.5261 51.1307C91.6243 51.0037 91.6965 50.8593 91.7427 50.6977C91.7946 50.536 91.8206 50.3743 91.8206 50.2127C91.8206 50.051 91.7946 49.8923 91.7427 49.7364C91.6965 49.5747 91.6243 49.4304 91.5261 49.3033C91.428 49.1763 91.3039 49.0753 91.1537 49.0002C91.0036 48.9194 90.8247 48.879 90.6168 48.879C90.409 48.879 90.23 48.9194 90.0799 49.0002C89.9297 49.0753 89.8056 49.1763 89.7075 49.3033C89.6093 49.4304 89.5343 49.5747 89.4823 49.7364C89.4361 49.8923 89.413 50.051 89.413 50.2127Z" fill="#CBCBCB"/>
<path d="M85.5967 48.1515H86.5926V48.8443H86.6099C86.7254 48.6019 86.8871 48.4056 87.0949 48.2554C87.3028 48.1053 87.5453 48.0303 87.8224 48.0303C87.8628 48.0303 87.9061 48.0332 87.9523 48.0389C87.9985 48.0389 88.0389 48.0447 88.0735 48.0563V49.0089C88.0043 48.9916 87.9436 48.98 87.8917 48.9743C87.8455 48.9685 87.7993 48.9656 87.7531 48.9656C87.5164 48.9656 87.3259 49.0089 87.1815 49.0955C87.0372 49.1821 86.9246 49.286 86.8438 49.4073C86.7629 49.5285 86.7081 49.6526 86.6792 49.7797C86.6504 49.9067 86.6359 50.0077 86.6359 50.0828V52.3085H85.5967V48.1515Z" fill="#CBCBCB"/>
<path d="M84.3201 51.9875C84.0084 52.1376 83.6648 52.2531 83.2895 52.3339C82.92 52.4205 82.4928 52.4638 82.0078 52.4638C81.5113 52.4638 81.0581 52.3859 80.6481 52.23C80.2382 52.0683 79.886 51.846 79.5916 51.5631C79.2971 51.2745 79.0662 50.9338 78.8987 50.5412C78.7371 50.1428 78.6562 49.704 78.6562 49.2248C78.6562 48.7341 78.74 48.2924 78.9074 47.8998C79.0806 47.5014 79.3144 47.1637 79.6089 46.8865C79.9091 46.6094 80.2613 46.3958 80.6655 46.2457C81.0696 46.0956 81.5084 46.0205 81.9818 46.0205C82.4726 46.0205 82.92 46.0927 83.3242 46.237C83.7341 46.3756 84.0632 46.5603 84.3115 46.7913L83.558 47.6054C83.4021 47.4321 83.1827 47.2849 82.8998 47.1637C82.6227 47.0424 82.3196 46.9818 81.9905 46.9818C81.6672 46.9818 81.3727 47.0395 81.1071 47.155C80.8473 47.2705 80.625 47.4293 80.4403 47.6313C80.2555 47.8334 80.1112 48.0701 80.0073 48.3415C79.9091 48.6128 79.86 48.9073 79.86 49.2248C79.86 49.5539 79.9091 49.857 80.0073 50.1342C80.1112 50.4055 80.2555 50.6423 80.4403 50.8443C80.6308 51.0464 80.8589 51.2052 81.1245 51.3206C81.3958 51.4303 81.7018 51.4852 82.0425 51.4852C82.5101 51.4852 82.9172 51.413 83.2636 51.2687V49.7098H81.9732V48.8091H84.3201V51.9875Z" fill="#CBCBCB"/>
<path d="M74.6873 49.8143C74.6873 49.6815 74.6671 49.5545 74.6266 49.4333C74.592 49.312 74.5343 49.2052 74.4534 49.1128C74.3726 49.0204 74.2687 48.9483 74.1417 48.8963C74.0204 48.8386 73.8761 48.8097 73.7087 48.8097C73.3969 48.8097 73.1313 48.905 72.9119 49.0955C72.6983 49.2803 72.5799 49.5199 72.5568 49.8143H74.6873ZM75.7265 50.282C75.7265 50.3282 75.7265 50.3743 75.7265 50.4205C75.7265 50.4667 75.7236 50.5129 75.7179 50.5591H72.5568C72.5684 50.7092 72.6059 50.8478 72.6694 50.9748C72.7387 51.096 72.8282 51.2029 72.9379 51.2952C73.0476 51.3818 73.1717 51.4511 73.3103 51.5031C73.4488 51.555 73.5932 51.581 73.7433 51.581C74.0031 51.581 74.2225 51.5348 74.4015 51.4425C74.5805 51.3443 74.7277 51.2115 74.8432 51.0441L75.536 51.5983C75.1261 52.1526 74.5314 52.4297 73.752 52.4297C73.4286 52.4297 73.1313 52.3807 72.8599 52.2825C72.5886 52.1786 72.3519 52.0342 72.1498 51.8495C71.9535 51.6647 71.7976 51.4396 71.6821 51.174C71.5724 50.9026 71.5176 50.5966 71.5176 50.256C71.5176 49.9211 71.5724 49.618 71.6821 49.3466C71.7976 49.0695 71.9535 48.8357 72.1498 48.6452C72.3461 48.4489 72.577 48.2987 72.8426 48.1948C73.114 48.0851 73.4055 48.0303 73.7173 48.0303C74.006 48.0303 74.2716 48.0793 74.5141 48.1775C74.7623 48.2699 74.9759 48.4113 75.1549 48.6019C75.3339 48.7866 75.4725 49.0204 75.5706 49.3033C75.6746 49.5805 75.7265 49.9067 75.7265 50.282Z" fill="#CBCBCB"/>
<path d="M68.7578 48.1515H69.7538V48.8443H69.7711C69.8865 48.6019 70.0482 48.4056 70.2561 48.2554C70.4639 48.1053 70.7064 48.0303 70.9835 48.0303C71.0239 48.0303 71.0672 48.0332 71.1134 48.0389C71.1596 48.0389 71.2 48.0447 71.2347 48.0563V49.0089C71.1654 48.9916 71.1048 48.98 71.0528 48.9743C71.0066 48.9685 70.9604 48.9656 70.9142 48.9656C70.6775 48.9656 70.487 49.0089 70.3427 49.0955C70.1983 49.1821 70.0857 49.286 70.0049 49.4073C69.9241 49.5285 69.8692 49.6526 69.8404 49.7797C69.8115 49.9067 69.7971 50.0077 69.7971 50.0828V52.3085H68.7578V48.1515Z" fill="#CBCBCB"/>
<path d="M66.5774 51.7802H66.5514C66.4475 51.965 66.28 52.118 66.0491 52.2392C65.8182 52.3547 65.5555 52.4124 65.261 52.4124C65.0936 52.4124 64.9175 52.3893 64.7327 52.3431C64.5538 52.3027 64.3863 52.2334 64.2304 52.1353C64.0803 52.0314 63.9533 51.8986 63.8494 51.7369C63.7512 51.5695 63.7021 51.3645 63.7021 51.122C63.7021 50.8103 63.7887 50.562 63.962 50.3772C64.1409 50.1925 64.369 50.051 64.6461 49.9529C64.9233 49.8547 65.2293 49.7912 65.5641 49.7623C65.9048 49.7277 66.2367 49.7104 66.5601 49.7104V49.6065C66.5601 49.3466 66.4648 49.1561 66.2743 49.0349C66.0895 48.9079 65.8672 48.8443 65.6074 48.8443C65.388 48.8443 65.1773 48.8905 64.9752 48.9829C64.7731 49.0753 64.6057 49.1879 64.4729 49.3207L63.936 48.6885C64.1727 48.4691 64.444 48.3045 64.75 48.1948C65.0618 48.0851 65.3765 48.0303 65.694 48.0303C66.0635 48.0303 66.3667 48.0822 66.6034 48.1862C66.8459 48.2901 67.0364 48.4258 67.1749 48.5932C67.3135 48.7606 67.4088 48.9483 67.4607 49.1561C67.5185 49.364 67.5473 49.5718 67.5473 49.7797V52.3085H66.5774V51.7802ZM66.5601 50.4119H66.3262C66.1588 50.4119 65.9827 50.4205 65.798 50.4379C65.6132 50.4494 65.4429 50.4812 65.287 50.5331C65.1311 50.5793 65.0012 50.6486 64.8973 50.741C64.7934 50.8276 64.7414 50.9488 64.7414 51.1047C64.7414 51.2029 64.7616 51.2866 64.802 51.3559C64.8482 51.4194 64.9059 51.4713 64.9752 51.5117C65.0445 51.5522 65.1224 51.581 65.2091 51.5983C65.2957 51.6157 65.3823 51.6243 65.4689 51.6243C65.8268 51.6243 66.0982 51.5291 66.2829 51.3385C66.4677 51.148 66.5601 50.8882 66.5601 50.5591V50.4119Z" fill="#CBCBCB"/>
<path d="M56.4473 48.1514H57.5731L58.4391 51.1305H58.4565L59.3485 48.1514H60.457L61.3577 51.1305H61.375L62.2584 48.1514H63.3409L61.9033 52.3083H60.8467L59.9027 49.3985H59.8854L58.9501 52.3083H57.8935L56.4473 48.1514Z" fill="#CBCBCB"/>
<path d="M53.4951 48.9825V48.1511H54.2226V46.9473H55.2445V48.1511H56.2838V48.9825H55.2445V50.9137C55.2445 51.0985 55.2763 51.2515 55.3398 51.3727C55.4091 51.494 55.5592 51.5546 55.7901 51.5546C55.8594 51.5546 55.9345 51.5488 56.0153 51.5373C56.0961 51.5199 56.1683 51.4968 56.2318 51.468L56.2664 52.282C56.1741 52.3167 56.0644 52.3427 55.9373 52.36C55.8103 52.3831 55.6891 52.3946 55.5736 52.3946C55.2965 52.3946 55.0713 52.3571 54.8981 52.282C54.7249 52.2012 54.5863 52.0944 54.4824 51.9616C54.3842 51.823 54.315 51.6672 54.2746 51.494C54.2399 51.315 54.2226 51.1244 54.2226 50.9224V48.9825H53.4951Z" fill="#CBCBCB"/>
<path d="M51.5762 48.9828H50.7881V48.1514H51.5762V47.5365C51.5762 47.2883 51.6022 47.0515 51.6541 46.8264C51.7119 46.5954 51.8042 46.3934 51.9313 46.2202C52.064 46.0469 52.2373 45.9113 52.4509 45.8131C52.6645 45.7092 52.933 45.6572 53.2563 45.6572C53.3718 45.6572 53.467 45.663 53.5421 45.6745C53.6229 45.6803 53.7037 45.6948 53.7846 45.7178L53.7153 46.6012C53.6576 46.5839 53.594 46.5695 53.5248 46.5579C53.4613 46.5464 53.392 46.5406 53.3169 46.5406C53.1668 46.5406 53.0456 46.5695 52.9532 46.6272C52.8608 46.6849 52.7886 46.76 52.7367 46.8524C52.6905 46.9447 52.6587 47.0458 52.6414 47.1555C52.6241 47.2652 52.6154 47.372 52.6154 47.4759V48.1514H53.5767V48.9828H52.6154V52.3084H51.5762V48.9828Z" fill="#CBCBCB"/>
<path d="M45.8838 50.2127C45.8838 49.8836 45.9415 49.5863 46.057 49.3207C46.1782 49.0493 46.3399 48.8184 46.542 48.6278C46.7441 48.4373 46.9837 48.2901 47.2608 48.1862C47.5379 48.0822 47.8324 48.0303 48.1441 48.0303C48.4559 48.0303 48.7504 48.0822 49.0275 48.1862C49.3046 48.2901 49.5442 48.4373 49.7463 48.6278C49.9484 48.8184 50.1072 49.0493 50.2226 49.3207C50.3439 49.5863 50.4045 49.8836 50.4045 50.2127C50.4045 50.5418 50.3439 50.842 50.2226 51.1134C50.1072 51.3847 49.9484 51.6186 49.7463 51.8149C49.5442 52.0054 49.3046 52.1555 49.0275 52.2652C48.7504 52.3749 48.4559 52.4297 48.1441 52.4297C47.8324 52.4297 47.5379 52.3749 47.2608 52.2652C46.9837 52.1555 46.7441 52.0054 46.542 51.8149C46.3399 51.6186 46.1782 51.3847 46.057 51.1134C45.9415 50.842 45.8838 50.5418 45.8838 50.2127ZM46.9404 50.2127C46.9404 50.3743 46.9634 50.536 47.0096 50.6977C47.0616 50.8593 47.1367 51.0037 47.2348 51.1307C47.333 51.2577 47.4571 51.3616 47.6072 51.4425C47.7573 51.5233 47.9363 51.5637 48.1441 51.5637C48.352 51.5637 48.531 51.5233 48.6811 51.4425C48.8312 51.3616 48.9553 51.2577 49.0535 51.1307C49.1516 51.0037 49.2238 50.8593 49.27 50.6977C49.322 50.536 49.3479 50.3743 49.3479 50.2127C49.3479 50.051 49.322 49.8923 49.27 49.7364C49.2238 49.5747 49.1516 49.4304 49.0535 49.3033C48.9553 49.1763 48.8312 49.0753 48.6811 49.0002C48.531 48.9194 48.352 48.879 48.1441 48.879C47.9363 48.879 47.7573 48.9194 47.6072 49.0002C47.4571 49.0753 47.333 49.1763 47.2348 49.3033C47.1367 49.4304 47.0616 49.5747 47.0096 49.7364C46.9634 49.8923 46.9404 50.051 46.9404 50.2127Z" fill="#CBCBCB"/>
<path d="M44.3315 47.4581C44.216 47.308 44.0515 47.1839 43.8378 47.0857C43.63 46.9818 43.4193 46.9298 43.2056 46.9298C43.0786 46.9298 42.9516 46.9472 42.8246 46.9818C42.6976 47.0107 42.5821 47.0598 42.4782 47.129C42.3742 47.1925 42.2876 47.2791 42.2184 47.3888C42.1548 47.4928 42.1231 47.6198 42.1231 47.7699C42.1231 47.9085 42.152 48.0268 42.2097 48.125C42.2674 48.2231 42.3454 48.3068 42.4435 48.3761C42.5474 48.4454 42.6716 48.506 42.8159 48.558C42.9603 48.61 43.119 48.6619 43.2922 48.7139C43.4885 48.7774 43.6906 48.8496 43.8985 48.9304C44.1121 49.0112 44.3055 49.118 44.4787 49.2508C44.6577 49.3836 44.802 49.551 44.9117 49.7531C45.0272 49.9552 45.0849 50.2063 45.0849 50.5066C45.0849 50.8357 45.0243 51.1243 44.9031 51.3726C44.7818 51.6151 44.6202 51.8172 44.4181 51.9788C44.216 52.1405 43.9793 52.2617 43.7079 52.3426C43.4366 52.4234 43.1508 52.4638 42.8506 52.4638C42.4522 52.4638 42.0625 52.3916 41.6814 52.2473C41.3004 52.0972 40.9886 51.8778 40.7461 51.5891L41.5255 50.8616C41.6756 51.0695 41.8748 51.234 42.1231 51.3553C42.3771 51.4765 42.6254 51.5372 42.8679 51.5372C42.9949 51.5372 43.1248 51.5227 43.2576 51.4939C43.3904 51.4592 43.5087 51.4044 43.6127 51.3293C43.7224 51.2543 43.809 51.1619 43.8725 51.0522C43.9418 50.9367 43.9764 50.7953 43.9764 50.6278C43.9764 50.4662 43.9389 50.3334 43.8638 50.2294C43.7888 50.1197 43.6877 50.0274 43.5607 49.9523C43.4337 49.8715 43.2836 49.8022 43.1104 49.7445C42.9372 49.6867 42.7553 49.6261 42.5648 49.5626C42.38 49.5049 42.1953 49.4356 42.0105 49.3547C41.8258 49.2739 41.6583 49.1671 41.5082 49.0343C41.3639 48.9015 41.2455 48.7399 41.1531 48.5493C41.0608 48.353 41.0146 48.1105 41.0146 47.8219C41.0146 47.5101 41.0781 47.2416 41.2051 47.0164C41.3379 46.7913 41.5082 46.6065 41.7161 46.4622C41.9297 46.3121 42.1693 46.2024 42.4349 46.1331C42.7062 46.058 42.9805 46.0205 43.2576 46.0205C43.5694 46.0205 43.884 46.0754 44.2016 46.1851C44.5249 46.2948 44.8049 46.4593 45.0416 46.6787L44.3315 47.4581Z" fill="#CBCBCB"/>
<path d="M33.9473 48.1515H34.9345V48.8184H34.9519C35.0442 48.6105 35.203 48.4287 35.4282 48.2728C35.6591 48.1111 35.9305 48.0303 36.2423 48.0303C36.5136 48.0303 36.7446 48.0793 36.9351 48.1775C37.1314 48.2699 37.2902 48.394 37.4114 48.5499C37.5384 48.7058 37.6308 48.8848 37.6885 49.0868C37.7463 49.2889 37.7751 49.4968 37.7751 49.7104V52.3085H36.7359V50.0048C36.7359 49.8836 36.7272 49.7566 36.7099 49.6238C36.6926 49.491 36.6551 49.3726 36.5973 49.2687C36.5396 49.159 36.4588 49.0695 36.3548 49.0002C36.2567 48.931 36.1239 48.8963 35.9565 48.8963C35.789 48.8963 35.6447 48.931 35.5234 49.0002C35.4022 49.0637 35.3012 49.1475 35.2203 49.2514C35.1453 49.3553 35.0875 49.4766 35.0471 49.6151C35.0067 49.7479 34.9865 49.8836 34.9865 50.0222V52.3085H33.9473V48.1515Z" fill="#CBCBCB"/>
<path d="M31.7668 51.7802H31.7409C31.6369 51.965 31.4695 52.118 31.2386 52.2392C31.0076 52.3547 30.7449 52.4124 30.4505 52.4124C30.283 52.4124 30.1069 52.3893 29.9222 52.3431C29.7432 52.3027 29.5758 52.2334 29.4199 52.1353C29.2698 52.0314 29.1428 51.8986 29.0388 51.7369C28.9407 51.5695 28.8916 51.3645 28.8916 51.122C28.8916 50.8103 28.9782 50.562 29.1514 50.3772C29.3304 50.1925 29.5585 50.051 29.8356 49.9529C30.1127 49.8547 30.4187 49.7912 30.7536 49.7623C31.0942 49.7277 31.4262 49.7104 31.7495 49.7104V49.6065C31.7495 49.3466 31.6543 49.1561 31.4637 49.0349C31.279 48.9079 31.0567 48.8443 30.7969 48.8443C30.5775 48.8443 30.3668 48.8905 30.1647 48.9829C29.9626 49.0753 29.7952 49.1879 29.6624 49.3207L29.1254 48.6885C29.3621 48.4691 29.6335 48.3045 29.9395 48.1948C30.2513 48.0851 30.5659 48.0303 30.8835 48.0303C31.253 48.0303 31.5561 48.0822 31.7928 48.1862C32.0353 48.2901 32.2258 48.4258 32.3644 48.5932C32.503 48.7606 32.5982 48.9483 32.6502 49.1561C32.7079 49.364 32.7368 49.5718 32.7368 49.7797V52.3085H31.7668V51.7802ZM31.7495 50.4119H31.5157C31.3483 50.4119 31.1722 50.4205 30.9874 50.4379C30.8027 50.4494 30.6323 50.4812 30.4764 50.5331C30.3206 50.5793 30.1907 50.6486 30.0867 50.741C29.9828 50.8276 29.9308 50.9488 29.9308 51.1047C29.9308 51.2029 29.9511 51.2866 29.9915 51.3559C30.0377 51.4194 30.0954 51.4713 30.1647 51.5117C30.234 51.5522 30.3119 51.581 30.3985 51.5983C30.4851 51.6157 30.5717 51.6243 30.6583 51.6243C31.0163 51.6243 31.2876 51.5291 31.4724 51.3385C31.6571 51.148 31.7495 50.8882 31.7495 50.5591V50.4119Z" fill="#CBCBCB"/>
<path d="M27.7979 49.3033C27.7171 49.1879 27.5959 49.0926 27.4342 49.0176C27.2725 48.9367 27.108 48.8963 26.9406 48.8963C26.75 48.8963 26.5826 48.9367 26.4383 49.0176C26.2939 49.0926 26.1727 49.1936 26.0745 49.3207C25.9821 49.4477 25.9129 49.592 25.8667 49.7537C25.8205 49.9096 25.7974 50.0683 25.7974 50.23C25.7974 50.3917 25.8205 50.5533 25.8667 50.715C25.9186 50.8709 25.9937 51.0123 26.0918 51.1393C26.19 51.2664 26.3112 51.3703 26.4556 51.4511C26.6057 51.5262 26.7789 51.5637 26.9752 51.5637C27.1369 51.5637 27.2985 51.5319 27.4602 51.4684C27.6218 51.4049 27.7517 51.3126 27.8499 51.1913L28.4994 51.8495C28.3262 52.0342 28.1039 52.1786 27.8326 52.2825C27.567 52.3807 27.2783 52.4297 26.9665 52.4297C26.6605 52.4297 26.369 52.3807 26.0918 52.2825C25.8205 52.1844 25.5809 52.04 25.373 51.8495C25.171 51.659 25.0093 51.428 24.8881 51.1567C24.7726 50.8853 24.7148 50.5764 24.7148 50.23C24.7148 49.8951 24.7726 49.592 24.8881 49.3207C25.0093 49.0493 25.171 48.8184 25.373 48.6278C25.5751 48.4373 25.8089 48.2901 26.0745 48.1862C26.3459 48.0822 26.6346 48.0303 26.9406 48.0303C27.2466 48.0303 27.541 48.088 27.8239 48.2035C28.1126 48.319 28.3406 48.4777 28.5081 48.6798L27.7979 49.3033Z" fill="#CBCBCB"/>
<path d="M22.657 48.1514H23.6962V52.3084H22.657V48.1514ZM22.5098 46.7398C22.5098 46.5723 22.5704 46.428 22.6916 46.3067C22.8187 46.1797 22.9774 46.1162 23.168 46.1162C23.3585 46.1162 23.5173 46.1768 23.6443 46.2981C23.7771 46.4136 23.8435 46.5608 23.8435 46.7398C23.8435 46.9187 23.7771 47.0689 23.6443 47.1901C23.5173 47.3056 23.3585 47.3633 23.168 47.3633C22.9774 47.3633 22.8187 47.3027 22.6916 47.1814C22.5704 47.0544 22.5098 46.9072 22.5098 46.7398Z" fill="#CBCBCB"/>
<path d="M19.4854 48.1515H20.4813V48.8443H20.4986C20.6141 48.6019 20.7757 48.4056 20.9836 48.2554C21.1914 48.1053 21.4339 48.0303 21.7111 48.0303C21.7515 48.0303 21.7948 48.0332 21.841 48.0389C21.8872 48.0389 21.9276 48.0447 21.9622 48.0563V49.0089C21.8929 48.9916 21.8323 48.98 21.7803 48.9743C21.7342 48.9685 21.688 48.9656 21.6418 48.9656C21.4051 48.9656 21.2145 49.0089 21.0702 49.0955C20.9259 49.1821 20.8133 49.286 20.7324 49.4073C20.6516 49.5285 20.5968 49.6526 20.5679 49.7797C20.539 49.9067 20.5246 50.0077 20.5246 50.0828V52.3085H19.4854V48.1515Z" fill="#CBCBCB"/>
<path d="M17.4392 49.8143C17.4392 49.6815 17.419 49.5545 17.3786 49.4333C17.344 49.312 17.2862 49.2052 17.2054 49.1128C17.1246 49.0204 17.0206 48.9483 16.8936 48.8963C16.7724 48.8386 16.628 48.8097 16.4606 48.8097C16.1488 48.8097 15.8832 48.905 15.6638 49.0955C15.4502 49.2803 15.3319 49.5199 15.3088 49.8143H17.4392ZM18.4785 50.282C18.4785 50.3282 18.4785 50.3743 18.4785 50.4205C18.4785 50.4667 18.4756 50.5129 18.4698 50.5591H15.3088C15.3203 50.7092 15.3578 50.8478 15.4214 50.9748C15.4906 51.096 15.5801 51.2029 15.6898 51.2952C15.7995 51.3818 15.9237 51.4511 16.0622 51.5031C16.2008 51.555 16.3451 51.581 16.4952 51.581C16.7551 51.581 16.9745 51.5348 17.1534 51.4425C17.3324 51.3443 17.4796 51.2115 17.5951 51.0441L18.2879 51.5983C17.878 52.1526 17.2833 52.4297 16.5039 52.4297C16.1806 52.4297 15.8832 52.3807 15.6119 52.2825C15.3405 52.1786 15.1038 52.0342 14.9017 51.8495C14.7054 51.6647 14.5495 51.4396 14.4341 51.174C14.3244 50.9026 14.2695 50.5966 14.2695 50.256C14.2695 49.9211 14.3244 49.618 14.4341 49.3466C14.5495 49.0695 14.7054 48.8357 14.9017 48.6452C15.098 48.4489 15.329 48.2987 15.5946 48.1948C15.8659 48.0851 16.1575 48.0303 16.4693 48.0303C16.7579 48.0303 17.0235 48.0793 17.266 48.1775C17.5143 48.2699 17.7279 48.4113 17.9069 48.6019C18.0859 48.7866 18.2244 49.0204 18.3226 49.3033C18.4265 49.5805 18.4785 49.9067 18.4785 50.282Z" fill="#CBCBCB"/>
<path d="M11.77 48.0303C12.0414 48.0303 12.2723 48.0793 12.4628 48.1775C12.6591 48.2699 12.8179 48.394 12.9392 48.5499C13.0662 48.7058 13.1585 48.8848 13.2163 49.0868C13.274 49.2889 13.3029 49.4968 13.3029 49.7104V52.3085H12.2636V50.0048C12.2636 49.8836 12.255 49.7566 12.2377 49.6238C12.2203 49.491 12.1828 49.3726 12.1251 49.2687C12.0673 49.159 11.9865 49.0695 11.8826 49.0002C11.7844 48.931 11.6516 48.8963 11.4842 48.8963C11.3226 48.8963 11.184 48.931 11.0685 49.0002C10.953 49.0695 10.8578 49.159 10.7827 49.2687C10.7077 49.3784 10.6528 49.5025 10.6182 49.6411C10.5835 49.7739 10.5662 49.9067 10.5662 50.0395V52.3085H9.52697V49.797C9.52697 49.5372 9.46346 49.3236 9.33644 49.1561C9.2152 48.9829 9.02178 48.8963 8.7562 48.8963C8.60031 48.8963 8.46463 48.931 8.34916 49.0002C8.23369 49.0637 8.13843 49.1475 8.06337 49.2514C7.99409 49.3553 7.93924 49.4766 7.89882 49.6151C7.86418 49.7479 7.84686 49.8836 7.84686 50.0222V52.3085H6.80762V48.1515H7.7949V48.8184H7.81222C7.85841 48.7144 7.91903 48.6163 7.99409 48.5239C8.07492 48.4315 8.16729 48.3478 8.27122 48.2728C8.38092 48.1977 8.50505 48.14 8.64361 48.0996C8.78218 48.0534 8.93518 48.0303 9.10261 48.0303C9.42593 48.0303 9.6944 48.1024 9.90803 48.2468C10.1216 48.3911 10.2862 48.5816 10.4017 48.8184C10.5402 48.5643 10.725 48.3709 10.9559 48.2381C11.1869 48.0996 11.4582 48.0303 11.77 48.0303Z" fill="#CBCBCB"/>
<path d="M2.66739 46.1768H3.61137L6.25278 52.3083H5.00569L4.43411 50.9053H1.77537L1.22111 52.3083H0L2.66739 46.1768ZM4.05305 49.97L3.10907 47.4758L2.14777 49.97H4.05305Z" fill="#CBCBCB"/>
<path d="M91.8363 39.0158C88.1113 39.7525 84.4777 39.6861 80.8805 38.6291C76.9291 37.4681 73.7192 35.2597 71.3002 31.9061C70.9273 31.3891 70.8662 30.9212 70.988 30.3024C71.7908 26.225 71.0709 22.5048 68.2471 19.3298C67.9741 19.0229 67.9677 18.7053 67.9688 18.3552C67.9973 9.39897 73.9402 2.42585 82.1663 0.610741C88.8221 -0.857872 95.0003 0.298613 100.574 4.33524C101.034 4.66824 101.156 4.92913 100.775 5.4222C99.2689 7.37503 97.7777 9.34022 96.3188 11.3287C95.9138 11.8807 95.6381 11.863 95.1291 11.4477C91.883 8.79953 88.1935 7.92764 84.1651 9.09512C80.4566 10.1699 78.2416 12.7918 77.3701 16.5034C76.6216 19.6912 76.9107 22.8167 78.4842 25.7264C80.2166 28.9298 82.9975 30.5596 86.5986 30.836C88.7407 31.0004 90.8072 30.6807 92.8083 29.8853C93.5253 29.6003 93.8894 29.2089 93.834 28.3705C93.7578 27.2176 93.7947 26.0548 93.8306 24.8978C93.8488 24.3111 93.6533 24.0965 93.0538 24.1062C91.1409 24.1373 89.2268 24.1018 87.314 24.1383C86.7353 24.1493 86.576 23.9481 86.5824 23.3994C86.6071 21.2849 86.6122 19.1698 86.5891 17.0553C86.5817 16.3827 86.7983 16.1402 87.5043 16.1442C91.8093 16.1691 96.1146 16.1516 100.42 16.1425C100.923 16.1414 101.427 16.1214 101.928 16.081C102.549 16.0308 102.827 16.2256 102.825 16.9186C102.802 22.3315 102.812 27.7445 102.819 33.1575C102.819 33.5313 102.745 33.8209 102.414 34.0635C99.2296 36.3958 95.7634 38.1205 91.8363 39.0158Z" fill="#CBCBCB"/>
<path d="M59.7297 16.3097C61.033 16.7341 62.2434 17.2227 63.4107 17.8244C66.9248 19.6355 69.0048 22.4784 69.3691 26.4206C69.7642 30.695 68.4827 34.3182 64.8464 36.8945C62.8968 38.2758 60.7218 39.0968 58.3848 39.4813C55.0408 40.0315 51.7215 39.8399 48.4295 39.0425C47.8834 38.9103 47.5868 38.6403 47.3923 38.1032C47.3923 38.1032 43.2187 31.0734 42.6203 30.0368C42.4372 29.5445 44.8661 27.9312 45.3515 27.6652C45.6939 27.4776 45.8556 27.7869 46.0454 27.9588C47.8916 29.6308 49.9931 30.8264 52.4437 31.3418C54.0848 31.687 55.7339 31.7405 57.3716 31.2804C57.8358 31.15 58.2692 30.9552 58.6791 30.7033C60.804 29.3973 60.8568 26.973 58.7707 25.5889C57.318 24.6252 55.6388 24.2426 53.9823 23.8138C51.8651 23.2659 49.7231 22.7951 47.7247 21.8683C42.9032 19.6321 40.6848 16.0218 41.0936 10.8626C41.4796 5.99169 44.1709 2.46606 49.134 1.03607C55.1338 -0.692579 60.8799 0.0266747 66.2622 3.27401C66.4561 3.39097 66.6329 3.53795 66.8319 3.64414C67.5043 4.00287 67.585 4.42104 67.1672 5.09268C66.0241 6.93028 64.9564 8.81454 63.8445 10.6717C63.3744 11.4569 63.314 11.4648 62.5915 10.9135C60.093 9.00717 57.2803 8.10397 54.1381 8.24734C53.1402 8.29288 52.2043 8.55661 51.3582 9.10277C49.7504 10.1406 49.6345 12.255 51.13 13.4467C51.9942 14.1354 53.0223 14.4899 54.0665 14.7817C55.9302 15.3026 57.8026 15.7923 59.7297 16.3097Z" fill="#CBCBCB"/>
<path d="M22.4548 1.3584C22.4804 1.3613 22.4804 1.3613 22.5113 1.37259C22.5327 1.40135 22.5327 1.40135 22.5531 1.43959C22.5608 1.45379 22.5685 1.46799 22.5765 1.48262C22.5847 1.49811 22.5929 1.51359 22.6013 1.52954C22.6191 1.56226 22.6369 1.59495 22.6547 1.62764C22.6592 1.63599 22.6637 1.64435 22.6684 1.65295C22.713 1.73515 22.7598 1.81597 22.807 1.89666C22.8235 1.9249 22.84 1.95315 22.8564 1.9814C22.8647 1.99554 22.8729 2.00968 22.8814 2.02424C22.9252 2.09948 22.9685 2.17497 23.0118 2.25047C23.0206 2.26579 23.0294 2.28112 23.0385 2.29691C23.0563 2.32798 23.0741 2.35905 23.0919 2.39012C23.1361 2.46714 23.1803 2.54414 23.2246 2.62113C23.2422 2.65187 23.2599 2.68261 23.2775 2.71335C23.2863 2.72857 23.295 2.74379 23.304 2.75946C24.8665 5.48001 24.8665 5.48001 24.893 5.52613C24.9106 5.55685 24.9283 5.58757 24.9459 5.61829C24.9902 5.69548 25.0346 5.77268 25.0788 5.8499C25.1639 5.99819 25.2492 6.14633 25.3352 6.29405C25.4118 6.42557 25.4873 6.55771 25.5624 6.69009C25.6358 6.81954 25.7101 6.94849 25.785 7.07712C25.8719 7.22643 25.9579 7.3763 26.0438 7.52618C26.088 7.6032 26.1323 7.68019 26.1765 7.75719C26.1941 7.78793 26.2118 7.81867 26.2295 7.84941C26.2426 7.87224 26.2426 7.87224 26.2559 7.89552C27.8184 10.6161 27.8184 10.6161 27.8449 10.6622C27.8625 10.6929 27.8802 10.7236 27.8978 10.7543C27.9422 10.8315 27.9865 10.9087 28.0308 10.986C28.1158 11.1342 28.2011 11.2824 28.2872 11.4301C28.3637 11.5616 28.4392 11.6938 28.5143 11.8261C28.5878 11.9556 28.6621 12.0846 28.737 12.2132C28.8239 12.3625 28.9098 12.5124 28.9958 12.6622C29.04 12.7393 29.0842 12.8163 29.1284 12.8932C29.1461 12.924 29.1637 12.9547 29.1814 12.9855C29.1945 13.0083 29.1945 13.0083 29.2079 13.0316C30.7704 15.7521 30.7704 15.7521 30.7968 15.7983C30.8145 15.829 30.8321 15.8597 30.8498 15.8904C30.8941 15.9676 30.9384 16.0448 30.9827 16.122C31.0678 16.2703 31.1531 16.4184 31.2391 16.5662C31.3157 16.6977 31.3911 16.8298 31.4662 16.9622C31.5397 17.0917 31.614 17.2206 31.6889 17.3492C31.7758 17.4985 31.8618 17.6484 31.9477 17.7983C31.9919 17.8753 32.0361 17.9523 32.0804 18.0293C32.098 18.06 32.1157 18.0908 32.1333 18.1215C32.1421 18.1367 32.1508 18.152 32.1598 18.1676C33.7223 20.8882 33.7223 20.8882 33.7488 20.9343C33.7664 20.965 33.7841 20.9957 33.8017 21.0265C33.846 21.1037 33.8904 21.1809 33.9346 21.2581C34.0197 21.4064 34.105 21.5545 34.191 21.7022C34.2676 21.8338 34.3431 21.9659 34.4182 22.0983C34.4916 22.2277 34.5659 22.3567 34.6408 22.4853C34.7278 22.6346 34.8137 22.7845 34.8997 22.9344C34.9438 23.0114 34.9881 23.0884 35.0323 23.1654C35.05 23.1961 35.0676 23.2268 35.0853 23.2576C35.094 23.2728 35.1027 23.288 35.1117 23.3037C36.6742 26.0243 36.6742 26.0243 36.7007 26.0704C36.7183 26.101 36.7358 26.1315 36.7534 26.162C36.7944 26.2335 36.8355 26.305 36.8765 26.3766C36.8909 26.4019 36.9054 26.4272 36.9199 26.4524C36.938 26.4841 36.9561 26.5158 36.9742 26.5474C37.0156 26.6196 37.0574 26.691 37.1036 26.7602C37.1156 26.7833 37.1156 26.7833 37.1156 26.8259C36.1716 26.8277 35.2275 26.8295 34.2835 26.8311C34.2695 26.8312 34.2556 26.8312 34.2412 26.8312C33.9375 26.8317 33.6339 26.8322 33.3302 26.8327C33.1813 26.833 33.0324 26.8332 32.8835 26.8335C32.8686 26.8335 32.8538 26.8335 32.8386 26.8336C32.3583 26.8344 31.8779 26.8353 31.3976 26.8362C30.9041 26.8372 30.4105 26.8381 29.9169 26.8388C29.8472 26.839 29.7775 26.8391 29.7078 26.8392C29.694 26.8392 29.6803 26.8392 29.6662 26.8392C29.4453 26.8396 29.2245 26.84 29.0036 26.8405C28.7815 26.841 28.5595 26.8414 28.3375 26.8417C28.2055 26.8418 28.0736 26.8421 27.9417 26.8424C27.8535 26.8427 27.7654 26.8428 27.6772 26.8428C27.627 26.8429 27.5768 26.8429 27.5266 26.8431C27.4724 26.8434 27.4182 26.8434 27.364 26.8433C27.3486 26.8434 27.3331 26.8435 27.3172 26.8436C27.0357 26.8428 26.7918 26.7729 26.5842 26.577C26.4638 26.4514 26.382 26.2952 26.2965 26.1448C26.2882 26.1302 26.2799 26.1157 26.2714 26.1006C26.2334 26.0339 26.1955 25.9673 26.1576 25.9006C26.0963 25.7924 26.0343 25.6847 25.9717 25.5773C25.8909 25.4386 25.8113 25.2993 25.732 25.1597C25.6686 25.048 25.6049 24.9366 25.5409 24.8254C25.4672 24.6973 25.394 24.569 25.3211 24.4405C25.2514 24.3178 25.1812 24.1953 25.1101 24.0734C25.039 23.9515 24.9688 23.829 24.8991 23.7063C24.7999 23.5314 24.6999 23.3569 24.5997 23.1826C24.5556 23.106 24.5115 23.0293 24.4675 22.9525C24.4498 22.9218 24.4322 22.8911 24.4145 22.8603C23.5406 21.3387 22.6667 19.817 19.8595 14.9292C19.8507 14.914 19.842 14.8988 19.833 14.8831C19.8153 14.8524 19.7977 14.8216 19.78 14.7908C19.7361 14.7143 19.6921 14.6378 19.6481 14.5613C19.5518 14.3938 19.4559 14.2261 19.3605 14.058C19.2956 13.9437 19.2301 13.8297 19.1639 13.7162C19.0928 13.5942 19.0226 13.4718 18.9529 13.349C18.8536 13.1742 18.7537 12.9997 18.6534 12.8254C18.6005 12.7333 18.5476 12.6412 18.4947 12.5491C18.4508 12.4726 18.4068 12.3961 18.3628 12.3196C18.2669 12.1527 18.1713 11.9856 18.0762 11.8183C18.008 11.6982 17.9394 11.5782 17.8706 11.4585C17.862 11.4435 17.8534 11.4285 17.8446 11.4131C17.8042 11.3428 17.7637 11.2725 17.723 11.2024C17.348 10.5561 17.348 10.5561 17.3984 10.2117C17.4173 10.1495 17.4448 10.0975 17.4791 10.0424C17.5002 10.0082 17.5203 9.9735 17.5404 9.93865C17.5737 9.8808 17.6073 9.82312 17.6411 9.76551C17.6959 9.67153 17.7486 9.57642 17.8009 9.48103C17.8758 9.34471 17.9526 9.20973 18.0311 9.07551C18.0899 8.97492 18.147 8.87353 18.2034 8.77163C18.276 8.64069 18.3504 8.51097 18.4259 8.38174C18.4848 8.28065 18.5422 8.17878 18.5989 8.07642C18.6709 7.9465 18.7446 7.81767 18.8194 7.68939C18.8826 7.58115 18.9449 7.47244 19.0067 7.36347C19.0114 7.35519 19.0162 7.34691 19.021 7.33838C19.0449 7.29626 19.0688 7.25413 19.0927 7.21199C19.1402 7.12826 19.1878 7.04457 19.2354 6.96089C19.2401 6.95266 19.2447 6.94444 19.2495 6.93596C19.3609 6.74015 19.4732 6.54487 19.5855 6.34961C19.6118 6.3039 19.6381 6.25819 19.6644 6.21247C19.6731 6.19735 19.6818 6.18222 19.6907 6.16664C19.7607 6.04484 19.8301 5.92274 19.8994 5.8006C19.9722 5.67236 20.046 5.54467 20.1202 5.41727C20.1835 5.30854 20.2459 5.19928 20.3079 5.08984C20.3858 4.95258 20.4645 4.81583 20.544 4.6795C20.6072 4.57077 20.6696 4.4615 20.7316 4.35207C20.8099 4.21414 20.8889 4.07669 20.9687 3.93967C21.0556 3.79035 21.1416 3.64049 21.2275 3.4906C21.2717 3.41358 21.3159 3.33659 21.3602 3.25959C21.3778 3.22885 21.3955 3.19811 21.4131 3.16737C21.5191 2.98293 21.625 2.79848 21.7309 2.61404C21.7397 2.59882 21.7484 2.5836 21.7574 2.56792C21.7751 2.5372 21.7927 2.50648 21.8103 2.47577C21.8547 2.39858 21.899 2.32137 21.9433 2.24415C22.0379 2.07916 22.1329 1.91439 22.2285 1.74997C22.3043 1.61966 22.3796 1.48907 22.4548 1.3584Z" fill="#CBCBCB"/>
<path d="M15.4034 13.3691C15.4439 13.4178 15.477 13.4668 15.5079 13.522C15.5169 13.5379 15.5259 13.5538 15.5352 13.5703C15.5399 13.5787 15.5446 13.5871 15.5495 13.5957C15.5746 13.6406 15.6 13.6854 15.6253 13.7302C15.6304 13.7393 15.6356 13.7484 15.6408 13.7578C15.6885 13.8421 15.737 13.9258 15.7857 14.0094C15.8541 14.1268 15.9221 14.2445 15.9897 14.3624C16.0903 14.5378 16.1917 14.7127 16.2934 14.8874C16.4398 15.1389 16.5851 15.3911 16.7299 15.6436C16.8242 15.808 16.9186 15.9723 17.0139 16.1361C17.1093 16.3 17.2037 16.4643 17.2981 16.6288C17.3244 16.6748 17.3508 16.7207 17.3772 16.7666C17.4736 16.9341 17.5695 17.1018 17.6649 17.2699C17.7298 17.3842 17.7953 17.4982 17.8615 17.6118C17.9323 17.7332 18.0023 17.855 18.0717 17.9771C18.0764 17.9854 18.0811 17.9937 18.0859 18.0022C18.1243 18.0697 18.1626 18.1372 18.2009 18.2047C18.2343 18.2637 18.2678 18.3226 18.3013 18.3815C18.306 18.3898 18.3107 18.3981 18.3155 18.4066C18.3881 18.5343 18.4616 18.6615 18.5356 18.7884C18.5989 18.8971 18.6612 19.0064 18.7233 19.1158C18.8016 19.2538 18.8806 19.3912 18.9604 19.5283C19.0204 19.6312 19.0799 19.7344 19.1392 19.8377C19.148 19.853 19.1568 19.8684 19.1659 19.8842C19.2102 19.9614 19.2544 20.0386 19.2986 20.1158C19.3976 20.2888 19.4978 20.461 19.5994 20.6325C19.6641 20.7419 19.7278 20.8519 19.7908 20.9622C19.8602 21.0836 19.9308 21.2042 20.0027 21.324C20.5429 22.2245 20.5429 22.2245 20.4806 22.6021C20.4279 22.8029 20.3252 22.9856 20.2192 23.1623C20.1703 23.2439 20.1232 23.3265 20.076 23.409C20.0069 23.5295 19.9375 23.6499 19.8676 23.7699C19.7989 23.8879 19.7307 24.0062 19.6628 24.1247C19.5948 24.2431 19.5266 24.3614 19.4579 24.4794C19.3536 24.6587 19.2503 24.8386 19.1471 25.0186C19.0359 25.2126 18.9243 25.4065 18.8118 25.5999C18.7247 25.7497 18.6385 25.9001 18.5522 26.0504C18.4992 26.1428 18.4462 26.2351 18.3931 26.3275C18.3488 26.4047 18.3044 26.4819 18.2601 26.5591C18.1667 26.7221 18.0728 26.8848 17.9783 27.0472C17.8912 27.197 17.805 27.3474 17.7187 27.4977C17.6745 27.5748 17.6303 27.6518 17.5861 27.7288C17.5684 27.7595 17.5507 27.7902 17.5331 27.821C17.4978 27.8825 17.4625 27.944 17.4271 28.0054C17.4184 28.0207 17.4096 28.0359 17.4006 28.0516C17.383 28.0823 17.3653 28.113 17.3477 28.1437C17.3034 28.2209 17.259 28.2981 17.2147 28.3754C17.1212 28.5383 17.0274 28.701 16.9329 28.8634C16.8458 29.0133 16.7596 29.1636 16.6733 29.314C16.6291 29.391 16.5849 29.468 16.5406 29.545C16.523 29.5757 16.5053 29.6065 16.4877 29.6372C16.3111 29.9447 16.1345 30.2521 15.9579 30.5595C15.9492 30.5748 15.9404 30.59 15.9314 30.6057C15.9138 30.6364 15.8961 30.6671 15.8785 30.6978C15.8341 30.775 15.7898 30.8522 15.7455 30.9295C15.6604 31.0778 15.5751 31.2259 15.4891 31.3736C15.4174 31.4968 15.3466 31.6204 15.2763 31.7443C15.198 31.8823 15.119 32.0197 15.0392 32.1568C14.9522 32.3061 14.8662 32.456 14.7803 32.6059C14.7361 32.6829 14.6918 32.7599 14.6476 32.8369C14.6299 32.8677 14.6123 32.8984 14.5946 32.9292C14.5593 32.9906 14.524 33.0521 14.4887 33.1136C14.4799 33.1288 14.4712 33.1441 14.4622 33.1597C14.4445 33.1905 14.4269 33.2212 14.4092 33.2519C14.3649 33.3291 14.3206 33.4063 14.2763 33.4835C14.1828 33.6465 14.0889 33.8092 13.9945 33.9716C13.9073 34.1214 13.8211 34.2718 13.7349 34.4221C13.6907 34.4992 13.6464 34.5762 13.6022 34.6532C13.5845 34.6839 13.5669 34.7146 13.5492 34.7454C13.5139 34.8069 13.4786 34.8684 13.4433 34.9298C13.4345 34.9451 13.4258 34.9603 13.4168 34.976C13.3991 35.0067 13.3815 35.0374 13.3638 35.0681C13.3195 35.1453 13.2751 35.2225 13.2308 35.2998C13.1374 35.4627 13.0435 35.6254 12.949 35.7878C12.8529 35.9531 12.7578 36.119 12.6627 36.2849C12.5514 36.479 12.4399 36.6729 12.3274 36.8662C12.2313 37.0315 12.1362 37.1974 12.0411 37.3633C11.8156 37.7566 11.8156 37.7566 11.706 37.9442C11.6624 38.0189 11.6195 38.094 11.5774 38.1696C11.4853 38.3346 11.3975 38.4913 11.2641 38.6262C11.2536 38.6371 11.2431 38.648 11.2323 38.6593C11.0551 38.8309 10.8725 38.8408 10.6389 38.8419C10.6202 38.8421 10.6016 38.8422 10.5824 38.8423C10.5306 38.8427 10.4788 38.843 10.4269 38.8433C10.3817 38.8435 10.3365 38.8438 10.2913 38.8441C10.1381 38.8451 9.98492 38.8459 9.83173 38.8467C9.77673 38.847 9.72173 38.8473 9.66673 38.8476C8.45028 38.8543 7.23382 38.8547 4.7847 38.8542C4.46945 38.8541 4.1542 38.854 3.83894 38.854C3.82805 38.854 3.81715 38.854 3.80593 38.854C3.69642 38.854 3.58692 38.8539 3.47741 38.8539C3.25476 38.8539 3.03212 38.8538 2.80947 38.8538C2.79926 38.8538 2.78905 38.8538 2.77852 38.8538C2.10821 38.8537 1.43789 38.8534 0.767578 38.8532C0.77733 38.7993 0.790844 38.761 0.8189 38.7138C0.830576 38.694 0.830576 38.694 0.842488 38.6737C0.850984 38.6595 0.859481 38.6453 0.868235 38.6306C0.8864 38.5998 0.904556 38.5689 0.922702 38.5381C0.932106 38.5222 0.941509 38.5063 0.951198 38.4898C0.996224 38.4132 1.04039 38.3361 1.08456 38.259C1.10234 38.228 1.12013 38.197 1.13792 38.166C1.14675 38.1506 1.15558 38.1352 1.16468 38.1194C1.21768 38.027 1.27075 37.9346 1.3238 37.8423C1.36815 37.7651 1.41248 37.6879 1.45678 37.6106C1.54186 37.4623 1.62717 37.3142 1.71322 37.1664C1.78492 37.0433 1.8557 36.9197 1.92601 36.7957C2.00428 36.6578 2.0833 36.5203 2.16312 36.3833C2.25006 36.234 2.33604 36.0841 2.422 35.9342C2.46619 35.8572 2.51044 35.7802 2.55467 35.7032C2.57233 35.6724 2.58999 35.6417 2.60765 35.6109C3.06679 34.8116 3.52592 34.0123 3.98506 33.2129C3.9938 33.1977 4.00254 33.1825 4.01155 33.1668C4.0292 33.1361 4.04684 33.1054 4.06449 33.0747C4.10884 32.9975 4.15317 32.9202 4.19746 32.843C4.28254 32.6947 4.36786 32.5466 4.45391 32.3988C4.52561 32.2757 4.59638 32.1521 4.6667 32.0281C4.74496 31.8902 4.82399 31.7527 4.9038 31.6157C4.99074 31.4664 5.07672 31.3165 5.16269 31.1666C5.20688 31.0896 5.25112 31.0126 5.29536 30.9355C5.31302 30.9048 5.33068 30.8741 5.34834 30.8433C5.80747 30.044 6.26661 29.2447 6.72574 28.4453C6.73449 28.4301 6.74323 28.4149 6.75224 28.3992C6.76988 28.3685 6.78753 28.3378 6.80518 28.307C6.84953 28.2298 6.89386 28.1526 6.93815 28.0754C7.02323 27.9271 7.10855 27.7789 7.19459 27.6312C7.26629 27.5081 7.33707 27.3844 7.40738 27.2605C7.48565 27.1226 7.56467 26.9851 7.64449 26.8481C7.73143 26.6987 7.81741 26.5489 7.90338 26.399C7.94757 26.3219 7.99181 26.2449 8.03605 26.1679C8.05371 26.1372 8.07136 26.1064 8.08902 26.0757C8.47752 25.3993 8.86602 24.723 9.25452 24.0466C9.26326 24.0314 9.27201 24.0162 9.28101 24.0005C9.29866 23.9698 9.31631 23.9391 9.33396 23.9083C9.37831 23.8311 9.42264 23.7539 9.46693 23.6767C9.55201 23.5284 9.63732 23.3802 9.72337 23.2325C9.79507 23.1094 9.86584 22.9857 9.93616 22.8618C10.0144 22.7239 10.0935 22.5864 10.1733 22.4494C10.2602 22.3 10.3462 22.1502 10.4322 22.0003C10.4763 21.9232 10.5206 21.8462 10.5648 21.7692C10.5825 21.7385 10.6001 21.7077 10.6178 21.677C11.0769 20.8777 11.5361 20.0783 11.9952 19.279C12.004 19.2638 12.0127 19.2486 12.0217 19.2329C12.0393 19.2022 12.057 19.1714 12.0746 19.1407C12.119 19.0635 12.1633 18.9863 12.2076 18.9091C12.2927 18.7608 12.378 18.6126 12.4641 18.4649C12.5358 18.3418 12.6065 18.2181 12.6768 18.0942C12.7551 17.9563 12.8341 17.8188 12.914 17.6818C13.0009 17.5324 13.0869 17.3825 13.1728 17.2326C13.217 17.1556 13.2613 17.0786 13.3055 17.0016C13.3232 16.9709 13.3408 16.9401 13.3585 16.9094C14.0472 15.7104 14.0472 15.7104 14.7359 14.5114C14.7446 14.4962 14.7534 14.4809 14.7624 14.4653C14.78 14.4345 14.7977 14.4038 14.8153 14.3731C14.8597 14.2959 14.904 14.2187 14.9483 14.1415C15.0364 13.9879 15.1247 13.8344 15.2136 13.6813C15.2215 13.6677 15.2294 13.654 15.2375 13.64C15.3831 13.3896 15.3831 13.3896 15.4034 13.3691Z" fill="#CBCBCB"/>
<path d="M31.9932 29.8789C33.0443 29.8774 34.0953 29.876 35.1464 29.8754C35.2318 29.8753 35.3172 29.8753 35.4026 29.8752C35.4239 29.8752 35.4451 29.8752 35.4664 29.8752C35.8042 29.875 36.1419 29.8746 36.4797 29.8741C36.8287 29.8737 37.1777 29.8734 37.5267 29.8734C37.7287 29.8733 37.9306 29.8732 38.1325 29.8728C38.2678 29.8725 38.4032 29.8725 38.5385 29.8726C38.6157 29.8726 38.6929 29.8726 38.7701 29.8723C38.8404 29.8721 38.9108 29.8721 38.9811 29.8723C39.0064 29.8724 39.0316 29.8723 39.0568 29.8721C39.283 29.8707 39.5614 29.8936 39.7346 30.0574C39.802 30.1303 39.8506 30.2115 39.8991 30.2975C39.9165 30.3277 39.9338 30.3579 39.9512 30.388C39.9602 30.4038 39.9693 30.4196 39.9786 30.4359C40.0221 30.5118 40.0665 30.5873 40.1108 30.6627C40.1261 30.6887 40.1414 30.7147 40.1567 30.7407C40.222 30.8518 40.2881 30.9623 40.3548 31.0725C40.436 31.2068 40.5151 31.3423 40.5935 31.4783C40.6559 31.5867 40.7193 31.6945 40.7832 31.8021C40.847 31.9095 40.9105 32.0171 40.9738 32.1248C40.9789 32.1336 40.984 32.1423 40.9893 32.1512C41.0655 32.281 41.1416 32.4109 41.2175 32.5409C41.2824 32.6518 41.3475 32.7626 41.4126 32.8734C41.5108 33.0404 41.6088 33.2075 41.7065 33.3748C41.7307 33.4163 41.755 33.4577 41.7793 33.4991C41.8642 33.644 41.9486 33.7891 42.0325 33.9345C42.1048 34.0599 42.1782 34.1845 42.2524 34.3088C42.3342 34.446 42.4143 34.584 42.4934 34.7228C42.5628 34.8445 42.6335 34.9653 42.7053 35.0855C42.7875 35.223 42.868 35.3614 42.9474 35.5006C43.0203 35.6284 43.094 35.7556 43.1685 35.8825C43.2288 35.9853 43.2886 36.0884 43.3482 36.1916C43.4161 36.3092 43.4844 36.4266 43.553 36.5438C43.6307 36.6764 43.7078 36.8093 43.7847 36.9424C43.8437 37.0446 43.9031 37.1465 43.9627 37.2483C44.0404 37.3809 44.1175 37.5138 44.1944 37.6469C44.2534 37.7491 44.3128 37.851 44.3725 37.9528C44.45 38.0851 44.527 38.2178 44.6036 38.3507C44.6489 38.4292 44.6945 38.5075 44.7406 38.5855C44.7498 38.6011 44.759 38.6167 44.7685 38.6328C44.7861 38.6627 44.8038 38.6925 44.8215 38.7223C44.8333 38.7422 44.8333 38.7422 44.8453 38.7625C44.8522 38.7742 44.8591 38.7859 44.8663 38.798C44.8811 38.8264 44.8811 38.8264 44.8811 38.8546C35.2301 38.8546 25.5792 38.8546 15.6357 38.8546C15.657 38.7911 15.6755 38.7458 15.7083 38.6893C15.7172 38.6738 15.7261 38.6583 15.7354 38.6424C15.7451 38.6256 15.7549 38.6089 15.7647 38.5921C15.7748 38.5746 15.785 38.557 15.7951 38.5394C15.8163 38.5029 15.8374 38.4664 15.8585 38.4299C15.9027 38.3538 15.9463 38.2774 15.99 38.201C16.0756 38.0512 16.1618 37.9019 16.2482 37.7526C16.3084 37.6488 16.3681 37.5448 16.4276 37.4407C16.5021 37.3105 16.577 37.1805 16.653 37.051C16.753 36.8807 16.8511 36.7093 16.9491 36.5378C16.9967 36.4546 17.0442 36.3715 17.0918 36.2884C17.0965 36.2803 17.1012 36.2721 17.106 36.2636C17.1823 36.1304 17.2591 35.9974 17.3361 35.8646C17.3962 35.7608 17.4559 35.6568 17.5155 35.5527C17.5978 35.4086 17.681 35.2649 17.765 35.1218C17.828 35.0144 17.8901 34.9065 17.9519 34.7984C18.0512 34.6248 18.1512 34.4515 18.2515 34.2784C18.2956 34.2022 18.3396 34.1261 18.3837 34.0499C18.4365 33.9586 18.4893 33.8673 18.5421 33.7761C18.6381 33.6104 18.7337 33.4444 18.8289 33.2782C18.8968 33.1595 18.965 33.041 19.0336 32.9227C19.1305 32.7554 19.2267 32.5877 19.3227 32.4199C19.3561 32.3615 19.3896 32.3031 19.4231 32.2448C19.5225 32.0717 19.6212 31.8984 19.7187 31.7243C19.7771 31.6199 19.8363 31.516 19.8959 31.4123C19.9472 31.3229 19.9982 31.2334 20.049 31.1438C20.0566 31.1304 20.0642 31.117 20.0721 31.1032C20.1122 31.0324 20.1521 30.9615 20.1918 30.8904C20.5261 30.2914 20.5261 30.2914 20.6371 30.1751C20.6506 30.1606 20.6506 30.1606 20.6643 30.1459C20.7265 30.0848 20.7952 30.0418 20.872 30.0017C20.8848 29.9948 20.8848 29.9948 20.8978 29.9878C21.0723 29.9018 21.2687 29.9012 21.4587 29.9016C21.4843 29.9015 21.51 29.9013 21.5357 29.9012C21.6069 29.9009 21.678 29.9008 21.7491 29.9008C21.8283 29.9007 21.9074 29.9004 21.9866 29.9001C22.1383 29.8995 22.29 29.8992 22.4417 29.899C22.5892 29.8987 22.7367 29.8984 22.8842 29.898C22.8943 29.898 22.9044 29.8979 22.9148 29.8979C22.9562 29.8978 22.9976 29.8977 23.0389 29.8976C23.4348 29.8965 23.8306 29.8956 24.2265 29.8948C24.6834 29.8939 25.1403 29.8928 25.5972 29.8916C25.7411 29.8912 25.8849 29.8908 26.0288 29.8905C26.0449 29.8904 26.061 29.8904 26.0777 29.8903C27.5647 29.8864 29.0516 29.8833 31.5528 29.8796C31.6996 29.8794 31.8464 29.8791 31.9932 29.8789Z" fill="#CBCBCB"/>
</svg>
