<svg width="52" height="42" viewBox="0 0 52 42" fill="none" xmlns="http://www.w3.org/2000/svg">
<path d="M51.246 9.77577C51.246 15.1749 46.8692 19.5517 41.4701 19.5517C36.0711 19.5517 31.6943 15.1749 31.6943 9.77577C31.6943 4.3768 36.0711 0 41.4701 0C46.8692 0 51.246 4.3768 51.246 9.77577Z" fill="#1C6DD0"/>
<path d="M41.4696 21.75C46.8686 21.75 51.2454 26.1268 51.2454 31.526C51.2454 36.7204 47.194 40.9677 42.0786 41.2822L42.0806 41.3017H21.51C19.9713 41.3017 19.2149 39.4288 20.322 38.3601L34.4556 24.7172C36.2322 22.8874 38.7179 21.75 41.4696 21.75Z" fill="#F9FAFB"/>
<path d="M0 31.526C0 26.1268 4.37677 21.75 9.7758 21.75C15.1749 21.75 19.5516 26.1268 19.5516 31.526C19.5516 36.9249 15.1749 41.3017 9.7758 41.3017C4.37677 41.3017 0 36.9249 0 31.526Z" fill="#F7BFA0"/>
<path d="M9.77582 19.5517C4.37679 19.5517 0 15.1749 0 9.77577C0 4.58134 4.05142 0.334017 9.16674 0.0195725L9.16482 0H29.7353C31.2741 1.82923e-05 32.0305 1.87291 30.9234 2.94158L16.7897 16.5845C15.0132 18.4143 12.5275 19.5517 9.77582 19.5517Z" fill="#F9FAFB"/>
</svg>
