<svg width="235" height="45" viewBox="0 0 235 45" fill="none" xmlns="http://www.w3.org/2000/svg">
<path d="M28.3465 24.9746V43.4901H20.9503V25.1611C20.9503 20.75 17.7462 18.7618 14.1722 18.7618C10.5981 18.7618 7.39409 20.75 7.39409 25.1611V43.4901H0V24.9746C0 19.5694 4.00505 11.8643 14.1743 11.8643C24.3435 11.8643 28.3465 19.5694 28.3465 24.9746Z" fill="#CBCBCB"/>
<path d="M76.7221 43.9286C66.616 43.9286 61.2549 38.7714 61.2549 29.2031V0H68.649V12.4278H75.6751V19.2617H68.649V29.1416C68.649 34.7948 70.9301 37.0947 76.7221 37.0947V43.9286Z" fill="#CBCBCB"/>
<path d="M93.1143 12.4297H101.063L108.582 33.4931L116.1 12.4297H124.049L121.768 18.5196L127.068 33.4931L134.586 12.4297H142.535L130.888 43.496H123.246L117.822 28.957L112.399 43.496H104.761L93.1143 12.4297Z" fill="#CBCBCB"/>
<path d="M172.611 12.4297H180.56L188.079 33.4931L195.597 12.4297H203.546L191.899 43.496H184.256L172.611 12.4297Z" fill="#CBCBCB"/>
<path d="M225.551 33.8652H233.624C231.591 40.1416 226.106 44.0546 218.649 44.0546C209.098 44.0546 202.688 37.5916 202.688 27.9618C202.688 18.3935 209.096 11.9941 218.649 11.9941C228.202 11.9941 234.549 18.3935 234.549 27.9618C234.549 28.8309 234.488 29.6385 234.425 30.4482H210.33C211.131 34.7342 214.213 37.2206 218.588 37.2206C221.668 37.2206 224.071 36.04 225.551 33.8652ZM226.352 23.6143C225.057 20.5704 222.284 18.8302 218.586 18.8302C214.951 18.8302 212.178 20.5704 210.883 23.6143H226.352Z" fill="#CBCBCB"/>
<path d="M46.346 26.5165L56.8221 17.1899C57.333 16.7341 57.5895 16.1385 57.5895 15.5407C57.5895 14.9451 57.333 14.3473 56.8221 13.8916C55.8004 12.9801 54.1416 12.9801 53.1177 13.8916L44.4937 21.5692L35.8698 13.8916C34.848 12.9801 33.1892 12.9801 32.1654 13.8916C31.1415 14.8031 31.1415 16.2784 32.1654 17.1899L42.6415 26.5165C43.6633 27.428 45.3242 27.428 46.346 26.5165Z" fill="#CBCBCB"/>
<path d="M44.494 27.875C43.6594 27.875 42.8247 27.591 42.1877 27.025L31.7115 17.6984C31.0661 17.1239 30.7129 16.3545 30.7129 15.5299C30.7129 14.7054 31.0682 13.9359 31.7115 13.3636C32.9835 12.2317 35.0522 12.2317 36.3242 13.3636L44.494 20.6384L52.6639 13.3636C53.9338 12.2317 56.0046 12.2317 57.2765 13.3636C57.9199 13.938 58.2752 14.7075 58.2752 15.5299C58.2752 16.3545 57.9199 17.1239 57.2765 17.6962L46.8004 27.0229C46.1654 27.5931 45.3287 27.875 44.494 27.875ZM34.0178 13.8956C33.5091 13.8956 33.0003 14.0652 32.6198 14.4022C32.275 14.7096 32.0836 15.1123 32.0836 15.532C32.0836 15.9539 32.2729 16.3545 32.6198 16.6618L43.0959 25.9885C43.8549 26.6647 45.1332 26.6626 45.8921 25.9885L56.3683 16.6618C56.7131 16.3545 56.9044 15.9539 56.9044 15.532C56.9044 15.1102 56.7152 14.7096 56.3683 14.4022C55.6115 13.7282 54.3311 13.7261 53.5721 14.4022L44.494 22.4846L35.4159 14.4022C35.0375 14.0652 34.5266 13.8956 34.0178 13.8956Z" fill="#CBCBCB"/>
<path d="M46.344 29.3017L56.8202 38.8382C57.3311 39.3045 57.5876 39.9129 57.5876 40.5234C57.5876 41.1338 57.3311 41.7443 56.8202 42.2085C55.7984 43.1391 54.1396 43.1391 53.1158 42.2085L44.4918 34.3572L35.8678 42.2085C34.846 43.1391 33.1873 43.1391 32.1634 42.2085C31.1395 41.278 31.1395 39.7687 32.1634 38.8361L42.6396 29.2996C43.6614 28.3711 45.3222 28.3711 46.344 29.3017Z" fill="#CBCBCB"/>
<path d="M34.016 43.5954C33.1793 43.5954 32.3404 43.305 31.7034 42.7242C31.0622 42.1413 30.709 41.3591 30.709 40.5261C30.709 39.6909 31.0622 38.9109 31.7034 38.3259L42.1796 28.7893C43.4537 27.6278 45.5287 27.6299 46.8028 28.7893L57.2789 38.3259C57.9202 38.9088 58.2734 39.6909 58.2734 40.524C58.2734 41.3591 57.9202 42.1392 57.2789 42.7221C56.0049 43.8837 53.9298 43.8837 52.6558 42.7221L44.4901 35.2905L36.3245 42.7221C35.6895 43.305 34.8528 43.5954 34.016 43.5954ZM44.4922 29.3002C43.9856 29.3002 43.4768 29.4719 43.1005 29.8153L32.6243 39.3518C32.2753 39.6697 32.0839 40.0852 32.0839 40.524C32.0839 40.9628 32.2774 41.3782 32.6243 41.6962C33.3916 42.3957 34.6404 42.3957 35.4078 41.6962L44.4922 33.4272L53.5766 41.6962C54.344 42.3957 55.5928 42.3957 56.3602 41.6962C56.7092 41.3782 56.9005 40.9628 56.9005 40.524C56.9005 40.0852 56.7092 39.6697 56.3602 39.3518L45.884 29.8153C45.5077 29.4719 44.9989 29.3002 44.4922 29.3002Z" fill="#CBCBCB"/>
<path d="M159.723 13.89L170.199 23.2167C170.71 23.6724 170.966 24.2681 170.966 24.8658C170.966 25.4636 170.71 26.0592 170.199 26.5149C169.177 27.4264 167.519 27.4264 166.495 26.5149L157.871 18.8374L149.247 26.5149C148.225 27.4264 146.566 27.4264 145.542 26.5149C144.518 25.6035 144.518 24.1282 145.542 23.2167L156.019 13.89C157.04 12.9807 158.701 12.9807 159.723 13.89Z" fill="#CBCBCB"/>
<path d="M147.395 27.8737C146.56 27.8737 145.726 27.5897 145.088 27.0237C144.445 26.4493 144.09 25.6798 144.09 24.8574C144.09 24.0328 144.445 23.2634 145.088 22.691L155.565 13.3644C156.837 12.2325 158.905 12.2303 160.177 13.3644L170.653 22.691C171.299 23.2655 171.652 24.0349 171.652 24.8574C171.652 25.6819 171.297 26.4514 170.653 27.0237C169.382 28.1556 167.313 28.1577 166.041 27.0237L157.871 19.7489L149.701 27.0237C149.064 27.5918 148.229 27.8737 147.395 27.8737ZM157.871 13.8943C157.362 13.8943 156.853 14.0639 156.473 14.4009L145.997 23.7276C145.652 24.0349 145.461 24.4356 145.461 24.8574C145.461 25.2792 145.652 25.6798 145.997 25.9872C146.754 26.6634 148.034 26.6634 148.793 25.9872L157.871 17.9048L166.949 25.9872C167.706 26.6634 168.986 26.6634 169.745 25.9872C170.09 25.6798 170.281 25.2771 170.281 24.8574C170.281 24.4377 170.092 24.0349 169.745 23.7276L159.269 14.4009C158.891 14.0639 158.38 13.8943 157.871 13.8943Z" fill="#CBCBCB"/>
<path d="M159.723 29.3017L170.199 38.8382C170.71 39.3045 170.966 39.9129 170.966 40.5234C170.966 41.1338 170.71 41.7443 170.199 42.2085C169.177 43.1391 167.519 43.1391 166.495 42.2085L157.871 34.3572L149.247 42.2085C148.225 43.1391 146.566 43.1391 145.542 42.2085C144.518 41.278 144.518 39.7687 145.542 38.8361L156.019 29.2996C157.04 28.3711 158.701 28.3711 159.723 29.3017Z" fill="#CBCBCB"/>
<path d="M147.395 43.5962C146.558 43.5962 145.719 43.3058 145.082 42.725C144.441 42.1421 144.088 41.3599 144.088 40.5269C144.088 39.6917 144.441 38.9117 145.082 38.3267L155.559 28.7901C156.833 27.6285 158.908 27.6285 160.182 28.7901L170.658 38.3267C171.299 38.9096 171.652 39.6917 171.652 40.5248C171.652 41.3599 171.299 42.14 170.658 42.7229C169.384 43.8845 167.309 43.8845 166.035 42.7229L157.871 35.2913L149.705 42.7229C149.068 43.3058 148.232 43.5962 147.395 43.5962ZM157.871 29.301C157.364 29.301 156.856 29.4727 156.479 29.8161L146.003 39.3526C145.654 39.6705 145.463 40.086 145.463 40.5248C145.463 40.9636 145.656 41.379 146.003 41.697C146.771 42.3965 148.019 42.3965 148.787 41.697L157.871 33.428L166.956 41.697C167.723 42.3965 168.972 42.3965 169.739 41.697C170.088 41.379 170.279 40.9636 170.279 40.5248C170.279 40.086 170.088 39.6705 169.739 39.3526L159.263 29.8161C158.887 29.4727 158.378 29.301 157.871 29.301Z" fill="#CBCBCB"/>
</svg>
