<svg width="422" height="477" viewBox="0 0 422 477" fill="none" xmlns="http://www.w3.org/2000/svg">
<g clip-path="url(#clip0_129_659)">
<rect width="421.662" height="477" rx="32" fill="black"/>
<rect width="421.662" height="477" rx="32" fill="url(#paint0_radial_129_659)"/>
<path d="M68.9915 223L60.7812 193.909H66.4489L71.6903 215.287H71.9602L77.5568 193.909H82.7131L88.3239 215.301H88.5795L93.821 193.909H99.4886L91.2784 223H86.0795L80.2557 202.588H80.0284L74.1903 223H68.9915ZM109.148 223.426C106.961 223.426 105.071 222.972 103.48 222.062C101.899 221.144 100.682 219.847 99.8298 218.17C98.9776 216.485 98.5514 214.501 98.5514 212.219C98.5514 209.974 98.9776 208.005 99.8298 206.31C100.692 204.605 101.894 203.279 103.438 202.332C104.981 201.376 106.795 200.898 108.878 200.898C110.223 200.898 111.492 201.116 112.685 201.551C113.888 201.977 114.948 202.64 115.867 203.54C116.795 204.439 117.524 205.585 118.054 206.977C118.585 208.36 118.85 210.008 118.85 211.92V213.497H100.966V210.031H113.921C113.911 209.046 113.698 208.17 113.282 207.403C112.865 206.627 112.282 206.016 111.534 205.571C110.796 205.126 109.934 204.903 108.949 204.903C107.898 204.903 106.975 205.159 106.179 205.67C105.384 206.172 104.764 206.835 104.318 207.659C103.883 208.473 103.66 209.368 103.651 210.344V213.369C103.651 214.638 103.883 215.727 104.347 216.636C104.811 217.536 105.46 218.227 106.293 218.71C107.126 219.184 108.102 219.42 109.219 219.42C109.967 219.42 110.644 219.316 111.25 219.108C111.856 218.89 112.382 218.573 112.827 218.156C113.272 217.74 113.608 217.223 113.836 216.608L118.637 217.148C118.334 218.417 117.756 219.525 116.904 220.472C116.061 221.409 114.981 222.138 113.665 222.659C112.349 223.17 110.843 223.426 109.148 223.426ZM141.617 201.182V205.159H129.074V201.182H141.617ZM132.171 195.955H137.313V216.438C137.313 217.129 137.417 217.659 137.625 218.028C137.843 218.388 138.127 218.634 138.477 218.767C138.828 218.9 139.216 218.966 139.642 218.966C139.964 218.966 140.258 218.942 140.523 218.895C140.797 218.848 141.006 218.805 141.148 218.767L142.014 222.787C141.74 222.882 141.347 222.986 140.835 223.099C140.333 223.213 139.718 223.279 138.989 223.298C137.701 223.336 136.541 223.142 135.509 222.716C134.476 222.28 133.657 221.608 133.051 220.699C132.455 219.79 132.161 218.653 132.171 217.29V195.955ZM144.717 223V201.182H149.703V204.818H149.93C150.328 203.559 151.01 202.588 151.976 201.906C152.951 201.215 154.064 200.869 155.314 200.869C155.598 200.869 155.915 200.884 156.265 200.912C156.625 200.931 156.923 200.964 157.16 201.011V205.741C156.942 205.666 156.597 205.599 156.123 205.543C155.659 205.476 155.209 205.443 154.774 205.443C153.836 205.443 152.994 205.647 152.245 206.054C151.507 206.452 150.924 207.006 150.498 207.716C150.072 208.426 149.859 209.245 149.859 210.173V223H144.717ZM165.264 223.44C163.882 223.44 162.636 223.194 161.528 222.702C160.43 222.2 159.559 221.461 158.915 220.486C158.28 219.51 157.963 218.308 157.963 216.878C157.963 215.647 158.19 214.629 158.645 213.824C159.099 213.019 159.72 212.375 160.506 211.892C161.292 211.409 162.177 211.045 163.162 210.798C164.156 210.543 165.184 210.358 166.244 210.244C167.523 210.112 168.56 209.993 169.355 209.889C170.151 209.776 170.728 209.605 171.088 209.378C171.457 209.141 171.642 208.777 171.642 208.284V208.199C171.642 207.129 171.325 206.3 170.69 205.713C170.056 205.126 169.142 204.832 167.949 204.832C166.689 204.832 165.69 205.107 164.952 205.656C164.223 206.205 163.73 206.854 163.474 207.602L158.673 206.92C159.052 205.595 159.677 204.487 160.548 203.597C161.42 202.697 162.485 202.025 163.744 201.58C165.004 201.125 166.396 200.898 167.92 200.898C168.972 200.898 170.018 201.021 171.06 201.267C172.101 201.513 173.053 201.92 173.915 202.489C174.777 203.047 175.468 203.81 175.989 204.776C176.519 205.741 176.784 206.949 176.784 208.398V223H171.841V220.003H171.67C171.358 220.609 170.918 221.177 170.349 221.707C169.791 222.228 169.085 222.65 168.233 222.972C167.39 223.284 166.401 223.44 165.264 223.44ZM166.599 219.662C167.632 219.662 168.527 219.458 169.284 219.051C170.042 218.634 170.624 218.085 171.031 217.403C171.448 216.722 171.656 215.978 171.656 215.173V212.602C171.495 212.735 171.221 212.858 170.832 212.972C170.454 213.085 170.027 213.185 169.554 213.27C169.08 213.355 168.612 213.431 168.148 213.497C167.684 213.563 167.281 213.62 166.94 213.668C166.173 213.772 165.487 213.942 164.881 214.179C164.275 214.416 163.796 214.747 163.446 215.173C163.096 215.59 162.92 216.13 162.92 216.793C162.92 217.74 163.266 218.455 163.957 218.938C164.649 219.42 165.529 219.662 166.599 219.662ZM180.755 223V201.182H185.897V223H180.755ZM183.34 198.085C182.525 198.085 181.825 197.815 181.238 197.276C180.65 196.726 180.357 196.068 180.357 195.301C180.357 194.525 180.65 193.866 181.238 193.327C181.825 192.777 182.525 192.503 183.34 192.503C184.164 192.503 184.864 192.777 185.442 193.327C186.029 193.866 186.323 194.525 186.323 195.301C186.323 196.068 186.029 196.726 185.442 197.276C184.864 197.815 184.164 198.085 183.34 198.085ZM195.126 210.216V223H189.984V201.182H194.899V204.889H195.155C195.657 203.668 196.457 202.697 197.555 201.977C198.663 201.258 200.032 200.898 201.66 200.898C203.166 200.898 204.478 201.22 205.595 201.864C206.722 202.508 207.593 203.44 208.209 204.662C208.834 205.884 209.141 207.366 209.132 209.108V223H203.99V209.903C203.99 208.445 203.611 207.304 202.854 206.48C202.105 205.656 201.069 205.244 199.743 205.244C198.843 205.244 198.043 205.443 197.342 205.841C196.651 206.229 196.106 206.793 195.709 207.531C195.32 208.27 195.126 209.165 195.126 210.216ZM232.776 201.182V205.159H220.233V201.182H232.776ZM223.33 195.955H228.472V216.438C228.472 217.129 228.576 217.659 228.785 218.028C229.002 218.388 229.286 218.634 229.637 218.767C229.987 218.9 230.375 218.966 230.802 218.966C231.124 218.966 231.417 218.942 231.682 218.895C231.957 218.848 232.165 218.805 232.307 218.767L233.174 222.787C232.899 222.882 232.506 222.986 231.995 223.099C231.493 223.213 230.877 223.279 230.148 223.298C228.86 223.336 227.7 223.142 226.668 222.716C225.636 222.28 224.817 221.608 224.211 220.699C223.614 219.79 223.32 218.653 223.33 217.29V195.955ZM242.155 223.44C240.772 223.44 239.527 223.194 238.419 222.702C237.321 222.2 236.449 221.461 235.805 220.486C235.171 219.51 234.854 218.308 234.854 216.878C234.854 215.647 235.081 214.629 235.536 213.824C235.99 213.019 236.61 212.375 237.396 211.892C238.182 211.409 239.068 211.045 240.053 210.798C241.047 210.543 242.074 210.358 243.135 210.244C244.413 210.112 245.45 209.993 246.246 209.889C247.041 209.776 247.619 209.605 247.979 209.378C248.348 209.141 248.533 208.777 248.533 208.284V208.199C248.533 207.129 248.215 206.3 247.581 205.713C246.946 205.126 246.033 204.832 244.839 204.832C243.58 204.832 242.581 205.107 241.842 205.656C241.113 206.205 240.621 206.854 240.365 207.602L235.564 206.92C235.943 205.595 236.568 204.487 237.439 203.597C238.31 202.697 239.375 202.025 240.635 201.58C241.894 201.125 243.286 200.898 244.811 200.898C245.862 200.898 246.909 201.021 247.95 201.267C248.992 201.513 249.944 201.92 250.805 202.489C251.667 203.047 252.358 203.81 252.879 204.776C253.41 205.741 253.675 206.949 253.675 208.398V223H248.732V220.003H248.561C248.249 220.609 247.808 221.177 247.24 221.707C246.681 222.228 245.976 222.65 245.124 222.972C244.281 223.284 243.291 223.44 242.155 223.44ZM243.49 219.662C244.522 219.662 245.417 219.458 246.175 219.051C246.932 218.634 247.515 218.085 247.922 217.403C248.339 216.722 248.547 215.978 248.547 215.173V212.602C248.386 212.735 248.111 212.858 247.723 212.972C247.344 213.085 246.918 213.185 246.445 213.27C245.971 213.355 245.502 213.431 245.038 213.497C244.574 213.563 244.172 213.62 243.831 213.668C243.064 213.772 242.377 213.942 241.771 214.179C241.165 214.416 240.687 214.747 240.337 215.173C239.986 215.59 239.811 216.13 239.811 216.793C239.811 217.74 240.157 218.455 240.848 218.938C241.539 219.42 242.42 219.662 243.49 219.662ZM262.787 193.909V223H257.645V193.909H262.787ZM276.534 223.426C274.346 223.426 272.457 222.972 270.866 222.062C269.285 221.144 268.068 219.847 267.216 218.17C266.364 216.485 265.937 214.501 265.937 212.219C265.937 209.974 266.364 208.005 267.216 206.31C268.078 204.605 269.28 203.279 270.824 202.332C272.367 201.376 274.181 200.898 276.264 200.898C277.609 200.898 278.878 201.116 280.071 201.551C281.274 201.977 282.334 202.64 283.253 203.54C284.181 204.439 284.91 205.585 285.44 206.977C285.971 208.36 286.236 210.008 286.236 211.92V213.497H268.352V210.031H281.307C281.297 209.046 281.084 208.17 280.667 207.403C280.251 206.627 279.668 206.016 278.92 205.571C278.182 205.126 277.32 204.903 276.335 204.903C275.284 204.903 274.361 205.159 273.565 205.67C272.77 206.172 272.149 206.835 271.704 207.659C271.269 208.473 271.046 209.368 271.037 210.344V213.369C271.037 214.638 271.269 215.727 271.733 216.636C272.197 217.536 272.846 218.227 273.679 218.71C274.512 219.184 275.488 219.42 276.605 219.42C277.353 219.42 278.03 219.316 278.636 219.108C279.242 218.89 279.768 218.573 280.213 218.156C280.658 217.74 280.994 217.223 281.221 216.608L286.023 217.148C285.72 218.417 285.142 219.525 284.29 220.472C283.447 221.409 282.367 222.138 281.051 222.659C279.735 223.17 278.229 223.426 276.534 223.426ZM294.528 210.216V223H289.386V201.182H294.301V204.889H294.556C295.058 203.668 295.858 202.697 296.957 201.977C298.065 201.258 299.433 200.898 301.062 200.898C302.568 200.898 303.879 201.22 304.997 201.864C306.123 202.508 306.995 203.44 307.61 204.662C308.235 205.884 308.543 207.366 308.534 209.108V223H303.391V209.903C303.391 208.445 303.013 207.304 302.255 206.48C301.507 205.656 300.47 205.244 299.144 205.244C298.245 205.244 297.445 205.443 296.744 205.841C296.052 206.229 295.508 206.793 295.11 207.531C294.722 208.27 294.528 209.165 294.528 210.216ZM323.456 201.182V205.159H310.913V201.182H323.456ZM314.01 195.955H319.152V216.438C319.152 217.129 319.256 217.659 319.464 218.028C319.682 218.388 319.966 218.634 320.316 218.767C320.667 218.9 321.055 218.966 321.481 218.966C321.803 218.966 322.097 218.942 322.362 218.895C322.637 218.848 322.845 218.805 322.987 218.767L323.853 222.787C323.579 222.882 323.186 222.986 322.674 223.099C322.173 223.213 321.557 223.279 320.828 223.298C319.54 223.336 318.38 223.142 317.348 222.716C316.316 222.28 315.496 221.608 314.89 220.699C314.294 219.79 314 218.653 314.01 217.29V195.955ZM73.5369 245.182V249.159H60.9943V245.182H73.5369ZM64.0909 239.955H69.233V260.438C69.233 261.129 69.3371 261.659 69.5455 262.028C69.7633 262.388 70.0473 262.634 70.3977 262.767C70.7481 262.9 71.1364 262.966 71.5625 262.966C71.8845 262.966 72.178 262.942 72.4432 262.895C72.7178 262.848 72.9261 262.805 73.0682 262.767L73.9347 266.787C73.66 266.882 73.267 266.986 72.7557 267.099C72.2538 267.213 71.6383 267.279 70.9091 267.298C69.6212 267.336 68.4612 267.142 67.429 266.716C66.3968 266.28 65.5777 265.608 64.9716 264.699C64.375 263.79 64.0814 262.653 64.0909 261.29V239.955ZM82.2482 254.216V267H77.1061V237.909H82.1345V248.889H82.3902C82.9016 247.658 83.6923 246.687 84.7624 245.977C85.8419 245.258 87.215 244.898 88.8817 244.898C90.3968 244.898 91.7179 245.215 92.8447 245.849C93.9716 246.484 94.8429 247.412 95.4584 248.634C96.0834 249.855 96.3959 251.347 96.3959 253.108V267H91.2538V253.903C91.2538 252.436 90.875 251.295 90.1175 250.48C89.3694 249.656 88.3182 249.244 86.9641 249.244C86.055 249.244 85.2406 249.443 84.5209 249.841C83.8107 250.229 83.2519 250.793 82.8447 251.531C82.447 252.27 82.2482 253.165 82.2482 254.216ZM106.716 267.44C105.333 267.44 104.088 267.194 102.98 266.702C101.881 266.2 101.01 265.461 100.366 264.486C99.7319 263.51 99.4146 262.308 99.4146 260.878C99.4146 259.647 99.6419 258.629 100.096 257.824C100.551 257.019 101.171 256.375 101.957 255.892C102.743 255.409 103.629 255.045 104.613 254.798C105.608 254.543 106.635 254.358 107.696 254.244C108.974 254.112 110.011 253.993 110.807 253.889C111.602 253.776 112.18 253.605 112.54 253.378C112.909 253.141 113.094 252.777 113.094 252.284V252.199C113.094 251.129 112.776 250.3 112.142 249.713C111.507 249.126 110.594 248.832 109.4 248.832C108.141 248.832 107.142 249.107 106.403 249.656C105.674 250.205 105.182 250.854 104.926 251.602L100.125 250.92C100.504 249.595 101.129 248.487 102 247.597C102.871 246.697 103.936 246.025 105.196 245.58C106.455 245.125 107.847 244.898 109.372 244.898C110.423 244.898 111.47 245.021 112.511 245.267C113.553 245.513 114.505 245.92 115.366 246.489C116.228 247.047 116.919 247.81 117.44 248.776C117.971 249.741 118.236 250.949 118.236 252.398V267H113.292V264.003H113.122C112.81 264.609 112.369 265.177 111.801 265.707C111.242 266.228 110.537 266.65 109.685 266.972C108.842 267.284 107.852 267.44 106.716 267.44ZM108.051 263.662C109.083 263.662 109.978 263.458 110.736 263.051C111.493 262.634 112.076 262.085 112.483 261.403C112.899 260.722 113.108 259.978 113.108 259.173V256.602C112.947 256.735 112.672 256.858 112.284 256.972C111.905 257.085 111.479 257.185 111.006 257.27C110.532 257.355 110.063 257.431 109.599 257.497C109.135 257.563 108.733 257.62 108.392 257.668C107.625 257.772 106.938 257.942 106.332 258.179C105.726 258.416 105.248 258.747 104.898 259.173C104.547 259.59 104.372 260.13 104.372 260.793C104.372 261.74 104.718 262.455 105.409 262.938C106.1 263.42 106.981 263.662 108.051 263.662ZM133.101 245.182V249.159H120.558V245.182H133.101ZM123.655 239.955H128.797V260.438C128.797 261.129 128.901 261.659 129.11 262.028C129.327 262.388 129.611 262.634 129.962 262.767C130.312 262.9 130.7 262.966 131.127 262.966C131.449 262.966 131.742 262.942 132.007 262.895C132.282 262.848 132.49 262.805 132.632 262.767L133.499 266.787C133.224 266.882 132.831 266.986 132.32 267.099C131.818 267.213 131.202 267.279 130.473 267.298C129.185 267.336 128.025 267.142 126.993 266.716C125.961 266.28 125.142 265.608 124.536 264.699C123.939 263.79 123.646 262.653 123.655 261.29V239.955ZM144.923 267V245.182H150.065V267H144.923ZM147.509 242.085C146.694 242.085 145.993 241.815 145.406 241.276C144.819 240.726 144.526 240.068 144.526 239.301C144.526 238.525 144.819 237.866 145.406 237.327C145.993 236.777 146.694 236.503 147.509 236.503C148.332 236.503 149.033 236.777 149.611 237.327C150.198 237.866 150.491 238.525 150.491 239.301C150.491 240.068 150.198 240.726 149.611 241.276C149.033 241.815 148.332 242.085 147.509 242.085ZM171.397 250.949L166.71 251.46C166.577 250.987 166.345 250.542 166.014 250.125C165.692 249.708 165.256 249.372 164.707 249.116C164.158 248.861 163.485 248.733 162.69 248.733C161.62 248.733 160.72 248.965 159.991 249.429C159.271 249.893 158.916 250.494 158.926 251.233C158.916 251.867 159.148 252.384 159.622 252.781C160.105 253.179 160.9 253.506 162.008 253.761L165.73 254.557C167.794 255.002 169.328 255.707 170.332 256.673C171.345 257.639 171.857 258.903 171.866 260.466C171.857 261.839 171.454 263.051 170.659 264.102C169.873 265.144 168.779 265.958 167.377 266.545C165.976 267.133 164.366 267.426 162.548 267.426C159.877 267.426 157.728 266.867 156.099 265.75C154.47 264.623 153.5 263.056 153.187 261.048L158.201 260.565C158.429 261.55 158.912 262.294 159.65 262.795C160.389 263.297 161.35 263.548 162.534 263.548C163.755 263.548 164.735 263.297 165.474 262.795C166.222 262.294 166.596 261.673 166.596 260.935C166.596 260.31 166.355 259.794 165.872 259.386C165.398 258.979 164.66 258.667 163.656 258.449L159.934 257.668C157.841 257.232 156.293 256.498 155.289 255.466C154.286 254.424 153.788 253.108 153.798 251.517C153.788 250.172 154.153 249.008 154.892 248.023C155.64 247.028 156.677 246.261 158.002 245.722C159.338 245.172 160.876 244.898 162.619 244.898C165.176 244.898 167.188 245.442 168.656 246.531C170.133 247.62 171.047 249.093 171.397 250.949ZM183.628 245.182H188.77V268.25C188.77 269.822 188.472 271.119 187.875 272.142C187.279 273.165 186.417 273.927 185.29 274.429C184.163 274.931 182.795 275.182 181.185 275.182C180.995 275.182 180.82 275.177 180.659 275.168C180.498 275.168 180.323 275.163 180.134 275.153V270.963C180.276 270.973 180.404 270.977 180.517 270.977C180.631 270.987 180.749 270.991 180.872 270.991C181.857 270.991 182.563 270.75 182.989 270.267C183.415 269.794 183.628 269.098 183.628 268.179V245.182ZM186.185 242.085C185.361 242.085 184.655 241.815 184.068 241.276C183.491 240.726 183.202 240.068 183.202 239.301C183.202 238.525 183.491 237.866 184.068 237.327C184.655 236.777 185.361 236.503 186.185 236.503C186.999 236.503 187.695 236.777 188.273 237.327C188.86 237.866 189.154 238.525 189.154 239.301C189.154 240.068 188.86 240.726 188.273 241.276C187.695 241.815 186.999 242.085 186.185 242.085ZM202.375 267.426C200.244 267.426 198.397 266.957 196.835 266.02C195.272 265.082 194.06 263.771 193.199 262.085C192.346 260.4 191.92 258.43 191.92 256.176C191.92 253.922 192.346 251.948 193.199 250.253C194.06 248.558 195.272 247.241 196.835 246.304C198.397 245.366 200.244 244.898 202.375 244.898C204.505 244.898 206.352 245.366 207.914 246.304C209.477 247.241 210.684 248.558 211.537 250.253C212.398 251.948 212.829 253.922 212.829 256.176C212.829 258.43 212.398 260.4 211.537 262.085C210.684 263.771 209.477 265.082 207.914 266.02C206.352 266.957 204.505 267.426 202.375 267.426ZM202.403 263.307C203.558 263.307 204.524 262.99 205.301 262.355C206.077 261.711 206.655 260.849 207.034 259.77C207.422 258.69 207.616 257.488 207.616 256.162C207.616 254.827 207.422 253.619 207.034 252.54C206.655 251.451 206.077 250.584 205.301 249.94C204.524 249.296 203.558 248.974 202.403 248.974C201.219 248.974 200.235 249.296 199.449 249.94C198.672 250.584 198.09 251.451 197.701 252.54C197.323 253.619 197.133 254.827 197.133 256.162C197.133 257.488 197.323 258.69 197.701 259.77C198.09 260.849 198.672 261.711 199.449 262.355C200.235 262.99 201.219 263.307 202.403 263.307ZM216.221 267V237.909H221.363V248.79H221.576C221.841 248.259 222.215 247.696 222.698 247.099C223.181 246.493 223.835 245.977 224.658 245.551C225.482 245.116 226.533 244.898 227.812 244.898C229.497 244.898 231.017 245.329 232.371 246.19C233.735 247.043 234.815 248.307 235.61 249.983C236.415 251.65 236.817 253.695 236.817 256.119C236.817 258.515 236.424 260.551 235.638 262.227C234.853 263.903 233.782 265.182 232.428 266.062C231.074 266.943 229.54 267.384 227.826 267.384C226.576 267.384 225.539 267.175 224.715 266.759C223.891 266.342 223.228 265.84 222.727 265.253C222.234 264.656 221.851 264.093 221.576 263.562H221.278V267H216.221ZM221.263 256.091C221.263 257.502 221.462 258.738 221.86 259.798C222.267 260.859 222.85 261.687 223.607 262.284C224.374 262.871 225.302 263.165 226.391 263.165C227.528 263.165 228.479 262.862 229.246 262.256C230.013 261.64 230.591 260.802 230.979 259.741C231.377 258.671 231.576 257.455 231.576 256.091C231.576 254.737 231.382 253.534 230.994 252.483C230.605 251.432 230.028 250.608 229.261 250.011C228.494 249.415 227.537 249.116 226.391 249.116C225.293 249.116 224.36 249.405 223.593 249.983C222.826 250.561 222.244 251.37 221.846 252.412C221.458 253.454 221.263 254.68 221.263 256.091ZM253.213 252.767V257H240.117V252.767H253.213ZM257.422 267V245.182H262.408V248.818H262.635C263.033 247.559 263.714 246.588 264.68 245.906C265.656 245.215 266.768 244.869 268.018 244.869C268.302 244.869 268.62 244.884 268.97 244.912C269.33 244.931 269.628 244.964 269.865 245.011V249.741C269.647 249.666 269.301 249.599 268.828 249.543C268.364 249.476 267.914 249.443 267.479 249.443C266.541 249.443 265.698 249.647 264.95 250.054C264.212 250.452 263.629 251.006 263.203 251.716C262.777 252.426 262.564 253.245 262.564 254.173V267H257.422ZM280.842 267.426C278.654 267.426 276.765 266.972 275.174 266.062C273.593 265.144 272.376 263.847 271.524 262.17C270.671 260.485 270.245 258.501 270.245 256.219C270.245 253.974 270.671 252.005 271.524 250.31C272.385 248.605 273.588 247.279 275.132 246.332C276.675 245.376 278.489 244.898 280.572 244.898C281.917 244.898 283.186 245.116 284.379 245.551C285.581 245.977 286.642 246.64 287.561 247.54C288.489 248.439 289.218 249.585 289.748 250.977C290.278 252.36 290.543 254.008 290.543 255.92V257.497H272.66V254.031H285.614C285.605 253.046 285.392 252.17 284.975 251.403C284.559 250.627 283.976 250.016 283.228 249.571C282.489 249.126 281.628 248.903 280.643 248.903C279.592 248.903 278.668 249.159 277.873 249.67C277.078 250.172 276.457 250.835 276.012 251.659C275.577 252.473 275.354 253.368 275.345 254.344V257.369C275.345 258.638 275.577 259.727 276.041 260.636C276.505 261.536 277.153 262.227 277.987 262.71C278.82 263.184 279.795 263.42 280.913 263.42C281.661 263.42 282.338 263.316 282.944 263.108C283.55 262.89 284.076 262.573 284.521 262.156C284.966 261.74 285.302 261.223 285.529 260.608L290.33 261.148C290.027 262.417 289.45 263.525 288.597 264.472C287.755 265.409 286.675 266.138 285.359 266.659C284.043 267.17 282.537 267.426 280.842 267.426ZM299.972 267.44C298.589 267.44 297.344 267.194 296.236 266.702C295.138 266.2 294.267 265.461 293.623 264.486C292.988 263.51 292.671 262.308 292.671 260.878C292.671 259.647 292.898 258.629 293.353 257.824C293.807 257.019 294.428 256.375 295.213 255.892C295.999 255.409 296.885 255.045 297.87 254.798C298.864 254.543 299.892 254.358 300.952 254.244C302.231 254.112 303.267 253.993 304.063 253.889C304.858 253.776 305.436 253.605 305.796 253.378C306.165 253.141 306.35 252.777 306.35 252.284V252.199C306.35 251.129 306.033 250.3 305.398 249.713C304.764 249.126 303.85 248.832 302.657 248.832C301.397 248.832 300.398 249.107 299.66 249.656C298.93 250.205 298.438 250.854 298.182 251.602L293.381 250.92C293.76 249.595 294.385 248.487 295.256 247.597C296.127 246.697 297.193 246.025 298.452 245.58C299.712 245.125 301.104 244.898 302.628 244.898C303.679 244.898 304.726 245.021 305.767 245.267C306.809 245.513 307.761 245.92 308.623 246.489C309.484 247.047 310.176 247.81 310.696 248.776C311.227 249.741 311.492 250.949 311.492 252.398V267H306.549V264.003H306.378C306.066 264.609 305.625 265.177 305.057 265.707C304.499 266.228 303.793 266.65 302.941 266.972C302.098 267.284 301.108 267.44 299.972 267.44ZM301.307 263.662C302.339 263.662 303.234 263.458 303.992 263.051C304.749 262.634 305.332 262.085 305.739 261.403C306.156 260.722 306.364 259.978 306.364 259.173V256.602C306.203 256.735 305.928 256.858 305.54 256.972C305.161 257.085 304.735 257.185 304.262 257.27C303.788 257.355 303.32 257.431 302.856 257.497C302.392 257.563 301.989 257.62 301.648 257.668C300.881 257.772 300.195 257.942 299.588 258.179C298.982 258.416 298.504 258.747 298.154 259.173C297.803 259.59 297.628 260.13 297.628 260.793C297.628 261.74 297.974 262.455 298.665 262.938C299.356 263.42 300.237 263.662 301.307 263.662ZM323.559 267.384C321.845 267.384 320.311 266.943 318.957 266.062C317.603 265.182 316.532 263.903 315.746 262.227C314.96 260.551 314.567 258.515 314.567 256.119C314.567 253.695 314.965 251.65 315.761 249.983C316.566 248.307 317.65 247.043 319.013 246.19C320.377 245.329 321.897 244.898 323.573 244.898C324.852 244.898 325.903 245.116 326.727 245.551C327.55 245.977 328.204 246.493 328.687 247.099C329.17 247.696 329.544 248.259 329.809 248.79H330.022V237.909H335.178V267H330.121V263.562H329.809C329.544 264.093 329.16 264.656 328.658 265.253C328.156 265.84 327.494 266.342 326.67 266.759C325.846 267.175 324.809 267.384 323.559 267.384ZM324.994 263.165C326.083 263.165 327.011 262.871 327.778 262.284C328.545 261.687 329.127 260.859 329.525 259.798C329.923 258.738 330.121 257.502 330.121 256.091C330.121 254.68 329.923 253.454 329.525 252.412C329.137 251.37 328.559 250.561 327.792 249.983C327.034 249.405 326.102 249.116 324.994 249.116C323.848 249.116 322.891 249.415 322.124 250.011C321.357 250.608 320.78 251.432 320.391 252.483C320.003 253.534 319.809 254.737 319.809 256.091C319.809 257.455 320.003 258.671 320.391 259.741C320.789 260.802 321.371 261.64 322.138 262.256C322.915 262.862 323.867 263.165 324.994 263.165ZM342.654 275.182C341.953 275.182 341.304 275.125 340.708 275.011C340.121 274.907 339.652 274.784 339.301 274.642L340.495 270.636C341.243 270.854 341.91 270.958 342.497 270.949C343.085 270.939 343.601 270.755 344.046 270.395C344.5 270.045 344.884 269.457 345.196 268.634L345.637 267.455L337.725 245.182H343.179L348.208 261.659H348.435L353.478 245.182H358.946L350.21 269.642C349.803 270.797 349.264 271.787 348.591 272.611C347.919 273.444 347.095 274.079 346.12 274.514C345.154 274.959 343.998 275.182 342.654 275.182ZM73.6932 289.182V293.159H60.7955V289.182H73.6932ZM64.0199 311V287.122C64.0199 285.654 64.3229 284.433 64.929 283.457C65.5445 282.482 66.3684 281.753 67.4006 281.27C68.4328 280.787 69.5786 280.545 70.8381 280.545C71.7282 280.545 72.5189 280.616 73.2102 280.759C73.9015 280.901 74.4129 281.028 74.7443 281.142L73.7216 285.119C73.5038 285.053 73.2292 284.987 72.8977 284.92C72.5663 284.845 72.197 284.807 71.7898 284.807C70.8333 284.807 70.1563 285.039 69.7585 285.503C69.3703 285.957 69.1761 286.611 69.1761 287.463V311H64.0199ZM76.5202 311V289.182H81.506V292.818H81.7332C82.131 291.559 82.8128 290.588 83.7787 289.906C84.7541 289.215 85.8668 288.869 87.1168 288.869C87.4009 288.869 87.7181 288.884 88.0685 288.912C88.4283 288.931 88.7266 288.964 88.9634 289.011V293.741C88.7456 293.666 88.3999 293.599 87.9264 293.543C87.4624 293.476 87.0126 293.443 86.577 293.443C85.6395 293.443 84.7967 293.647 84.0486 294.054C83.3099 294.452 82.7276 295.006 82.3014 295.716C81.8753 296.426 81.6622 297.245 81.6622 298.173V311H76.5202ZM99.7982 311.426C97.6675 311.426 95.8209 310.957 94.2584 310.02C92.6959 309.082 91.4838 307.771 90.622 306.085C89.7697 304.4 89.3436 302.43 89.3436 300.176C89.3436 297.922 89.7697 295.948 90.622 294.253C91.4838 292.558 92.6959 291.241 94.2584 290.304C95.8209 289.366 97.6675 288.898 99.7982 288.898C101.929 288.898 103.775 289.366 105.338 290.304C106.9 291.241 108.108 292.558 108.96 294.253C109.822 295.948 110.253 297.922 110.253 300.176C110.253 302.43 109.822 304.4 108.96 306.085C108.108 307.771 106.9 309.082 105.338 310.02C103.775 310.957 101.929 311.426 99.7982 311.426ZM99.8266 307.307C100.982 307.307 101.948 306.99 102.724 306.355C103.501 305.711 104.078 304.849 104.457 303.77C104.846 302.69 105.04 301.488 105.04 300.162C105.04 298.827 104.846 297.619 104.457 296.54C104.078 295.451 103.501 294.584 102.724 293.94C101.948 293.296 100.982 292.974 99.8266 292.974C98.6429 292.974 97.658 293.296 96.872 293.94C96.0955 294.584 95.5131 295.451 95.1249 296.54C94.7461 297.619 94.5567 298.827 94.5567 300.162C94.5567 301.488 94.7461 302.69 95.1249 303.77C95.5131 304.849 96.0955 305.711 96.872 306.355C97.658 306.99 98.6429 307.307 99.8266 307.307ZM113.417 311V289.182H118.332V292.889H118.588C119.042 291.639 119.795 290.664 120.846 289.963C121.897 289.253 123.152 288.898 124.61 288.898C126.088 288.898 127.333 289.258 128.346 289.977C129.369 290.687 130.088 291.658 130.505 292.889H130.732C131.215 291.677 132.03 290.711 133.176 289.991C134.331 289.262 135.699 288.898 137.281 288.898C139.288 288.898 140.927 289.532 142.195 290.801C143.464 292.07 144.099 293.921 144.099 296.355V311H138.943V297.151C138.943 295.796 138.583 294.807 137.863 294.182C137.143 293.547 136.263 293.23 135.221 293.23C133.98 293.23 133.01 293.618 132.309 294.395C131.618 295.162 131.272 296.161 131.272 297.392V311H126.23V296.938C126.23 295.811 125.889 294.911 125.207 294.239C124.534 293.566 123.654 293.23 122.565 293.23C121.826 293.23 121.154 293.42 120.548 293.798C119.942 294.168 119.459 294.693 119.099 295.375C118.739 296.047 118.559 296.833 118.559 297.733V311H113.417ZM164.934 311.384C163.22 311.384 161.686 310.943 160.332 310.062C158.978 309.182 157.907 307.903 157.121 306.227C156.335 304.551 155.942 302.515 155.942 300.119C155.942 297.695 156.34 295.65 157.136 293.983C157.941 292.307 159.025 291.043 160.388 290.19C161.752 289.329 163.272 288.898 164.948 288.898C166.227 288.898 167.278 289.116 168.102 289.551C168.925 289.977 169.579 290.493 170.062 291.099C170.545 291.696 170.919 292.259 171.184 292.79H171.397V281.909H176.553V311H171.496V307.562H171.184C170.919 308.093 170.535 308.656 170.033 309.253C169.531 309.84 168.869 310.342 168.045 310.759C167.221 311.175 166.184 311.384 164.934 311.384ZM166.369 307.165C167.458 307.165 168.386 306.871 169.153 306.284C169.92 305.687 170.502 304.859 170.9 303.798C171.298 302.738 171.496 301.502 171.496 300.091C171.496 298.68 171.298 297.454 170.9 296.412C170.512 295.37 169.934 294.561 169.167 293.983C168.409 293.405 167.477 293.116 166.369 293.116C165.223 293.116 164.266 293.415 163.499 294.011C162.732 294.608 162.155 295.432 161.766 296.483C161.378 297.534 161.184 298.737 161.184 300.091C161.184 301.455 161.378 302.671 161.766 303.741C162.164 304.802 162.746 305.64 163.513 306.256C164.29 306.862 165.242 307.165 166.369 307.165ZM187.111 311.44C185.729 311.44 184.483 311.194 183.375 310.702C182.277 310.2 181.406 309.461 180.762 308.486C180.127 307.51 179.81 306.308 179.81 304.878C179.81 303.647 180.037 302.629 180.492 301.824C180.946 301.019 181.567 300.375 182.353 299.892C183.139 299.409 184.024 299.045 185.009 298.798C186.003 298.543 187.031 298.358 188.091 298.244C189.37 298.112 190.407 297.993 191.202 297.889C191.997 297.776 192.575 297.605 192.935 297.378C193.304 297.141 193.489 296.777 193.489 296.284V296.199C193.489 295.129 193.172 294.3 192.537 293.713C191.903 293.126 190.989 292.832 189.796 292.832C188.536 292.832 187.537 293.107 186.799 293.656C186.069 294.205 185.577 294.854 185.321 295.602L180.52 294.92C180.899 293.595 181.524 292.487 182.395 291.597C183.266 290.697 184.332 290.025 185.591 289.58C186.851 289.125 188.243 288.898 189.767 288.898C190.818 288.898 191.865 289.021 192.907 289.267C193.948 289.513 194.9 289.92 195.762 290.489C196.623 291.047 197.315 291.81 197.836 292.776C198.366 293.741 198.631 294.949 198.631 296.398V311H193.688V308.003H193.517C193.205 308.609 192.764 309.177 192.196 309.707C191.638 310.228 190.932 310.65 190.08 310.972C189.237 311.284 188.247 311.44 187.111 311.44ZM188.446 307.662C189.479 307.662 190.373 307.458 191.131 307.051C191.889 306.634 192.471 306.085 192.878 305.403C193.295 304.722 193.503 303.978 193.503 303.173V300.602C193.342 300.735 193.068 300.858 192.679 300.972C192.3 301.085 191.874 301.185 191.401 301.27C190.927 301.355 190.459 301.431 189.995 301.497C189.531 301.563 189.128 301.62 188.787 301.668C188.02 301.772 187.334 301.942 186.728 302.179C186.121 302.416 185.643 302.747 185.293 303.173C184.943 303.59 184.767 304.13 184.767 304.793C184.767 305.74 185.113 306.455 185.804 306.938C186.496 307.42 187.376 307.662 188.446 307.662ZM205.016 319.182C204.315 319.182 203.667 319.125 203.07 319.011C202.483 318.907 202.014 318.784 201.664 318.642L202.857 314.636C203.605 314.854 204.273 314.958 204.86 314.949C205.447 314.939 205.963 314.755 206.408 314.395C206.863 314.045 207.246 313.457 207.559 312.634L207.999 311.455L200.087 289.182H205.542L210.57 305.659H210.797L215.84 289.182H221.309L212.573 313.642C212.166 314.797 211.626 315.787 210.954 316.611C210.281 317.444 209.457 318.079 208.482 318.514C207.516 318.959 206.361 319.182 205.016 319.182ZM241.906 311.426C239.775 311.426 237.929 310.957 236.366 310.02C234.804 309.082 233.592 307.771 232.73 306.085C231.878 304.4 231.451 302.43 231.451 300.176C231.451 297.922 231.878 295.948 232.73 294.253C233.592 292.558 234.804 291.241 236.366 290.304C237.929 289.366 239.775 288.898 241.906 288.898C244.037 288.898 245.883 289.366 247.446 290.304C249.008 291.241 250.216 292.558 251.068 294.253C251.93 295.948 252.361 297.922 252.361 300.176C252.361 302.43 251.93 304.4 251.068 306.085C250.216 307.771 249.008 309.082 247.446 310.02C245.883 310.957 244.037 311.426 241.906 311.426ZM241.934 307.307C243.09 307.307 244.056 306.99 244.832 306.355C245.609 305.711 246.186 304.849 246.565 303.77C246.953 302.69 247.147 301.488 247.147 300.162C247.147 298.827 246.953 297.619 246.565 296.54C246.186 295.451 245.609 294.584 244.832 293.94C244.056 293.296 243.09 292.974 241.934 292.974C240.751 292.974 239.766 293.296 238.98 293.94C238.203 294.584 237.621 295.451 237.233 296.54C236.854 297.619 236.664 298.827 236.664 300.162C236.664 301.488 236.854 302.69 237.233 303.77C237.621 304.849 238.203 305.711 238.98 306.355C239.766 306.99 240.751 307.307 241.934 307.307ZM260.667 298.216V311H255.525V289.182H260.44V292.889H260.695C261.197 291.668 261.997 290.697 263.096 289.977C264.204 289.258 265.572 288.898 267.201 288.898C268.707 288.898 270.018 289.22 271.136 289.864C272.263 290.508 273.134 291.44 273.749 292.662C274.374 293.884 274.682 295.366 274.673 297.108V311H269.531V297.903C269.531 296.445 269.152 295.304 268.394 294.48C267.646 293.656 266.609 293.244 265.283 293.244C264.384 293.244 263.584 293.443 262.883 293.841C262.192 294.229 261.647 294.793 261.249 295.531C260.861 296.27 260.667 297.165 260.667 298.216ZM288.359 311.426C286.171 311.426 284.282 310.972 282.691 310.062C281.11 309.144 279.893 307.847 279.041 306.17C278.188 304.485 277.762 302.501 277.762 300.219C277.762 297.974 278.188 296.005 279.041 294.31C279.903 292.605 281.105 291.279 282.649 290.332C284.192 289.376 286.006 288.898 288.089 288.898C289.434 288.898 290.703 289.116 291.896 289.551C293.099 289.977 294.159 290.64 295.078 291.54C296.006 292.439 296.735 293.585 297.265 294.977C297.796 296.36 298.061 298.008 298.061 299.92V301.497H280.177V298.031H293.132C293.122 297.046 292.909 296.17 292.492 295.403C292.076 294.627 291.493 294.016 290.745 293.571C290.007 293.126 289.145 292.903 288.16 292.903C287.109 292.903 286.186 293.159 285.39 293.67C284.595 294.172 283.974 294.835 283.529 295.659C283.094 296.473 282.871 297.368 282.862 298.344V301.369C282.862 302.638 283.094 303.727 283.558 304.636C284.022 305.536 284.671 306.227 285.504 306.71C286.337 307.184 287.313 307.42 288.43 307.42C289.178 307.42 289.855 307.316 290.461 307.108C291.067 306.89 291.593 306.573 292.038 306.156C292.483 305.74 292.819 305.223 293.046 304.608L297.848 305.148C297.545 306.417 296.967 307.525 296.115 308.472C295.272 309.409 294.192 310.138 292.876 310.659C291.56 311.17 290.054 311.426 288.359 311.426Z" fill="white"/>
</g>
<defs>
<radialGradient id="paint0_radial_129_659" cx="0" cy="0" r="1" gradientUnits="userSpaceOnUse" gradientTransform="translate(18.5 3.7256) rotate(50.6182) scale(612.308 541.273)">
<stop stop-color="#F7BFA0" stop-opacity="0.5"/>
<stop offset="1" stop-color="#1C6DD0" stop-opacity="0"/>
</radialGradient>
<clipPath id="clip0_129_659">
<rect width="421.662" height="477" rx="32" fill="white"/>
</clipPath>
</defs>
</svg>
