<svg width="380" height="189" viewBox="0 0 380 189" fill="none" xmlns="http://www.w3.org/2000/svg">
<circle cx="11.1608" cy="152.891" r="11.1607" transform="rotate(90 11.1608 152.891)" fill="#1C6DD0"/>
<circle cx="35.3422" cy="177.692" r="11.1607" transform="rotate(90 35.3422 177.692)" fill="#4DA7A0"/>
<path d="M14.881 166.531C6.66252 166.531 0.00012207 173.194 0.00012207 181.412L0.00012207 188.853H7.44057C15.6591 188.853 22.3215 182.19 22.3215 173.972V166.531H14.881Z" fill="#F7BFA0"/>
<path d="M134.841 0C74.4547 0 25.5016 48.9531 25.5016 109.34L25.5016 164.01H80.1715C140.558 164.01 189.511 115.057 189.511 54.6699V0H134.841Z" fill="#0C141C"/>
<path d="M86.8081 74.2199C86.8081 78.1837 83.5948 81.397 79.631 81.397C75.6673 81.397 72.454 78.1837 72.454 74.2199C72.454 70.2562 75.6673 67.043 79.631 67.043C83.5948 67.043 86.8081 70.2562 86.8081 74.2199Z" fill="white"/>
<path d="M79.631 83.0117C83.5947 83.0117 86.808 86.225 86.808 90.1888C86.808 94.0024 83.8336 97.1205 80.0781 97.3514L80.0796 97.3658H64.9775C63.8478 97.3658 63.2925 95.9907 64.1053 95.2062L74.4816 85.1901C75.7859 83.8468 77.6108 83.0117 79.631 83.0117Z" fill="white"/>
<path d="M49.1858 90.1888C49.1858 86.225 52.399 83.0117 56.3628 83.0117C60.3266 83.0117 63.5398 86.225 63.5398 90.1888C63.5398 94.1525 60.3266 97.3658 56.3628 97.3658C52.399 97.3658 49.1858 94.1525 49.1858 90.1888Z" fill="white"/>
<path d="M56.3627 81.397C52.399 81.397 49.1857 78.1837 49.1857 74.2199C49.1857 70.4064 52.1601 67.2882 55.9156 67.0573L55.9142 67.043H71.0162C72.1459 67.043 72.7012 68.418 71.8884 69.2026L61.5121 79.2186C60.2078 80.562 58.3829 81.397 56.3627 81.397Z" fill="white"/>
<path d="M163.221 84.0558C163.221 83.3924 163.745 83.0781 164.252 83.0781C164.775 83.0781 165.282 83.3924 165.282 84.0558V94.4784C165.282 95.1243 164.775 95.456 164.252 95.456C163.745 95.456 163.221 95.1243 163.221 94.4784V84.0558Z" fill="white"/>
<path d="M156.747 83.0781C159.942 83.0781 161.845 85.1033 161.845 88.141V94.4784C161.845 95.1243 161.339 95.456 160.815 95.456C160.309 95.456 159.785 95.1243 159.785 94.4784V93.2214C159.785 91.493 158.859 90.655 156.747 90.655C154.635 90.655 153.709 91.493 153.709 93.2214V94.4784C153.709 95.1243 153.203 95.456 152.679 95.456C152.173 95.456 151.649 95.1243 151.649 94.4784V88.141C151.649 85.1033 153.57 83.0781 156.747 83.0781ZM159.785 90.009V88.141C159.785 86.0111 158.475 84.9636 156.747 84.9636C155.019 84.9636 153.709 86.0111 153.709 88.141V90.009C154.39 89.2234 155.438 88.8044 156.747 88.8044C158.074 88.8044 159.121 89.2234 159.785 90.009Z" fill="white"/>
<path d="M146.704 90.5867C146.704 91.0407 146.425 91.2851 145.953 91.2851H139.651C139.791 92.8214 141.048 93.5896 142.357 93.5896C143.195 93.5896 144.085 93.2753 144.696 92.6119C144.923 92.3849 145.168 92.2802 145.412 92.2802C146.146 92.2802 146.774 93.1531 146.233 93.8514C145.465 94.864 143.981 95.4401 142.479 95.4401C140.14 95.4401 137.713 94.0609 137.713 90.8312C137.713 87.6887 140 86.1523 142.27 86.1523C144.487 86.1523 146.704 87.6363 146.704 90.5867ZM139.773 89.8186H144.784C144.417 88.5441 143.352 87.9156 142.287 87.9156C141.205 87.9156 140.14 88.5441 139.773 89.8186Z" fill="white"/>
<path d="M127.667 99.1415V90.9187C127.667 87.7587 130.023 86.1875 132.363 86.1875C134.72 86.1875 137.077 87.7587 137.077 90.9187C137.077 94.0786 134.825 95.5451 132.66 95.5451C131.525 95.5451 130.408 95.1436 129.639 94.358V99.1415C129.639 99.8049 129.151 100.119 128.662 100.119C128.155 100.119 127.667 99.8049 127.667 99.1415ZM132.345 93.7818C133.917 93.7818 135.051 92.4899 135.051 90.9187C135.051 89.33 133.917 88.0555 132.345 88.0555C130.774 88.0555 129.639 89.33 129.639 90.9187C129.639 92.4899 130.774 93.7818 132.345 93.7818Z" fill="white"/>
<path d="M126.68 90.7937V94.5647C126.68 95.2106 126.191 95.5423 125.703 95.5423C125.196 95.5423 124.707 95.2106 124.707 94.5647V93.8663C124.079 94.9662 122.892 95.5074 121.652 95.5074C119.54 95.5074 117.27 93.9187 117.27 90.7937C117.27 87.6337 119.627 86.0625 121.984 86.0625C124.323 86.0625 126.68 87.6337 126.68 90.7937ZM122.001 93.6568C123.573 93.6568 124.707 92.3824 124.707 90.7937C124.707 89.2224 123.573 87.9305 122.001 87.9305C120.43 87.9305 119.295 89.2224 119.295 90.7937C119.295 92.3824 120.43 93.6568 122.001 93.6568Z" fill="white"/>
<path d="M114.812 92.557C115.038 92.2253 115.353 92.0856 115.65 92.0856C116.33 92.0856 116.959 92.8188 116.418 93.6743C115.615 94.8964 114.166 95.5249 112.699 95.5249C110.395 95.5249 108.038 93.9885 108.038 90.7937C108.038 87.5988 110.395 86.0625 112.699 86.0625C114.166 86.0625 115.615 86.691 116.418 87.9131C116.959 88.7685 116.33 89.5018 115.65 89.5018C115.353 89.5018 115.038 89.3621 114.812 89.0304C114.34 88.2972 113.467 87.8956 112.612 87.8956C111.337 87.8956 110.063 88.786 110.063 90.7937C110.063 92.8188 111.32 93.6918 112.594 93.6918C113.467 93.6918 114.34 93.2902 114.812 92.557Z" fill="white"/>
<path d="M102.892 93.5704C104.341 93.5879 105.353 93.0118 105.353 92.0516C105.353 88.944 98.1604 91.7199 98.1604 86.5697C98.1604 84.5271 99.8363 83.0257 102.507 83.0431C104.585 83.0431 106.296 83.916 106.977 85.819C107.308 86.6919 106.663 87.3029 106.034 87.3029C105.667 87.3029 105.301 87.0934 105.126 86.6221C104.707 85.4873 103.799 84.9635 102.507 84.9635C101.146 84.9635 100.203 85.6269 100.203 86.5697C100.203 89.8518 107.396 86.9538 107.396 92.0516C107.396 94.2688 105.353 95.4908 102.926 95.4908C100.797 95.4908 98.946 94.6179 98.2127 92.7499C97.881 91.9119 98.5619 91.266 99.2078 91.266C99.5396 91.266 99.8713 91.4405 100.046 91.877C100.5 93.0292 101.565 93.553 102.892 93.5704Z" fill="white"/>
<path d="M129.514 68.7623C131.923 68.7623 133.913 70.2462 133.913 73.2316V77.1073C133.913 77.7533 133.425 78.085 132.918 78.085C132.429 78.085 131.923 77.7533 131.923 77.1073V73.0745C131.923 71.381 130.858 70.5256 129.514 70.5256H127.105V77.1073C127.105 77.7533 126.616 78.085 126.127 78.085C125.621 78.085 125.132 77.7533 125.132 77.1073V65.2706C125.132 64.6247 125.621 64.293 126.127 64.293C126.616 64.293 127.105 64.6247 127.105 65.2706V68.7623H129.514Z" fill="white"/>
<path d="M122.271 75.0999C122.498 74.7682 122.813 74.6286 123.109 74.6286C123.79 74.6286 124.419 75.3618 123.878 76.2173C123.075 77.4393 121.625 78.0678 120.159 78.0678C117.854 78.0678 115.498 76.5315 115.498 73.3367C115.498 70.1418 117.854 68.6055 120.159 68.6055C121.625 68.6055 123.075 69.234 123.878 70.456C124.419 71.3115 123.79 72.0447 123.109 72.0447C122.813 72.0447 122.498 71.9051 122.271 71.5734C121.8 70.8401 120.927 70.4386 120.072 70.4386C118.797 70.4386 117.523 71.329 117.523 73.3367C117.523 75.3618 118.78 76.2347 120.054 76.2347C120.927 76.2347 121.8 75.8332 122.271 75.0999Z" fill="white"/>
<path d="M114.847 73.1258C114.847 73.5797 114.568 73.8241 114.096 73.8241H107.794C107.933 75.3605 109.19 76.1286 110.5 76.1286C111.338 76.1286 112.228 75.8144 112.839 75.151C113.066 74.924 113.311 74.8192 113.555 74.8192C114.288 74.8192 114.917 75.6922 114.375 76.3905C113.607 77.4031 112.123 77.9792 110.622 77.9792C108.283 77.9792 105.856 76.6 105.856 73.3702C105.856 70.2277 108.143 68.6914 110.412 68.6914C112.63 68.6914 114.847 70.1754 114.847 73.1258ZM107.916 72.3576H112.926C112.56 71.0832 111.495 70.4547 110.43 70.4547C109.347 70.4547 108.283 71.0832 107.916 72.3576Z" fill="white"/>
<path d="M101.338 77.0223V67.5599H98.4745C97.235 67.5599 97.2524 65.7617 98.4745 65.7617H106.278C107.5 65.7617 107.518 67.5599 106.278 67.5599H103.415V77.0223C103.415 77.6682 102.891 77.9999 102.385 77.9999C101.861 77.9999 101.338 77.6682 101.338 77.0223Z" fill="white"/>
<circle cx="200.862" cy="152.891" r="11.1607" transform="rotate(90 200.862 152.891)" fill="#1C6DD0"/>
<circle cx="225.043" cy="177.692" r="11.1607" transform="rotate(90 225.043 177.692)" fill="#4DA7A0"/>
<path d="M204.582 166.531C196.364 166.531 189.701 173.194 189.701 181.412V188.853H197.142C205.36 188.853 212.022 182.19 212.022 173.972V166.531H204.582Z" fill="#F7BFA0"/>
<path d="M215.58 109.34V163.632H269.872C330.05 163.632 378.834 114.848 378.834 54.6699V0.37793H324.542C264.364 0.37793 215.58 49.1617 215.58 109.34Z" fill="white" stroke="#C6C6C6" stroke-width="0.755405"/>
<path d="M276.509 74.2199C276.509 78.1837 273.296 81.397 269.332 81.397C265.368 81.397 262.155 78.1837 262.155 74.2199C262.155 70.2562 265.368 67.043 269.332 67.043C273.296 67.043 276.509 70.2562 276.509 74.2199Z" fill="black"/>
<path d="M269.332 83.0117C273.296 83.0117 276.509 86.225 276.509 90.1888C276.509 94.0024 273.534 97.1205 269.779 97.3514L269.78 97.3658H254.678C253.549 97.3658 252.993 95.9907 253.806 95.2062L264.182 85.1901C265.487 83.8468 267.312 83.0117 269.332 83.0117Z" fill="black"/>
<path d="M238.886 90.1888C238.886 86.225 242.1 83.0117 246.063 83.0117C250.027 83.0117 253.24 86.225 253.24 90.1888C253.24 94.1525 250.027 97.3658 246.063 97.3658C242.1 97.3658 238.886 94.1525 238.886 90.1888Z" fill="black"/>
<path d="M246.063 81.397C242.099 81.397 238.886 78.1837 238.886 74.2199C238.886 70.4064 241.861 67.2882 245.616 67.0573L245.615 67.043H260.717C261.846 67.043 262.402 68.418 261.589 69.2026L251.213 79.2186C249.908 80.562 248.083 81.397 246.063 81.397Z" fill="black"/>
<path d="M352.923 84.0558C352.923 83.3924 353.446 83.0781 353.953 83.0781C354.476 83.0781 354.983 83.3924 354.983 84.0558V94.4784C354.983 95.1243 354.476 95.456 353.953 95.456C353.446 95.456 352.923 95.1243 352.923 94.4784V84.0558Z" fill="black"/>
<path d="M346.448 83.0781C349.643 83.0781 351.546 85.1033 351.546 88.141V94.4784C351.546 95.1243 351.039 95.456 350.516 95.456C350.009 95.456 349.486 95.1243 349.486 94.4784V93.2214C349.486 91.493 348.56 90.655 346.448 90.655C344.335 90.655 343.41 91.493 343.41 93.2214V94.4784C343.41 95.1243 342.904 95.456 342.38 95.456C341.874 95.456 341.35 95.1243 341.35 94.4784V88.141C341.35 85.1033 343.27 83.0781 346.448 83.0781ZM349.486 90.009V88.141C349.486 86.0111 348.176 84.9636 346.448 84.9636C344.719 84.9636 343.41 86.0111 343.41 88.141V90.009C344.091 89.2234 345.138 88.8044 346.448 88.8044C347.775 88.8044 348.822 89.2234 349.486 90.009Z" fill="black"/>
<path d="M336.405 90.5867C336.405 91.0407 336.126 91.2851 335.655 91.2851H329.352C329.492 92.8214 330.749 93.5896 332.058 93.5896C332.896 93.5896 333.787 93.2753 334.398 92.6119C334.625 92.3849 334.869 92.2802 335.113 92.2802C335.847 92.2802 336.475 93.1531 335.934 93.8514C335.166 94.864 333.682 95.4401 332.18 95.4401C329.841 95.4401 327.414 94.0609 327.414 90.8312C327.414 87.6887 329.701 86.1523 331.971 86.1523C334.188 86.1523 336.405 87.6363 336.405 90.5867ZM329.474 89.8186H334.485C334.118 88.5441 333.053 87.9156 331.988 87.9156C330.906 87.9156 329.841 88.5441 329.474 89.8186Z" fill="black"/>
<path d="M317.367 99.1415V90.9187C317.367 87.7587 319.724 86.1875 322.064 86.1875C324.42 86.1875 326.777 87.7587 326.777 90.9187C326.777 94.0786 324.525 95.5451 322.36 95.5451C321.226 95.5451 320.108 95.1436 319.34 94.358V99.1415C319.34 99.8049 318.851 100.119 318.362 100.119C317.856 100.119 317.367 99.8049 317.367 99.1415ZM322.046 93.7818C323.617 93.7818 324.752 92.4899 324.752 90.9187C324.752 89.33 323.617 88.0555 322.046 88.0555C320.475 88.0555 319.34 89.33 319.34 90.9187C319.34 92.4899 320.475 93.7818 322.046 93.7818Z" fill="black"/>
<path d="M316.381 90.7937V94.5647C316.381 95.2106 315.892 95.5423 315.403 95.5423C314.897 95.5423 314.408 95.2106 314.408 94.5647V93.8663C313.78 94.9662 312.593 95.5074 311.353 95.5074C309.241 95.5074 306.971 93.9187 306.971 90.7937C306.971 87.6337 309.328 86.0625 311.685 86.0625C314.024 86.0625 316.381 87.6337 316.381 90.7937ZM311.702 93.6568C313.273 93.6568 314.408 92.3824 314.408 90.7937C314.408 89.2224 313.273 87.9305 311.702 87.9305C310.131 87.9305 308.996 89.2224 308.996 90.7937C308.996 92.3824 310.131 93.6568 311.702 93.6568Z" fill="black"/>
<path d="M304.513 92.557C304.74 92.2253 305.054 92.0856 305.351 92.0856C306.032 92.0856 306.66 92.8188 306.119 93.6743C305.316 94.8964 303.867 95.5249 302.4 95.5249C300.096 95.5249 297.739 93.9885 297.739 90.7937C297.739 87.5988 300.096 86.0625 302.4 86.0625C303.867 86.0625 305.316 86.691 306.119 87.9131C306.66 88.7685 306.032 89.5018 305.351 89.5018C305.054 89.5018 304.74 89.3621 304.513 89.0304C304.041 88.2972 303.168 87.8956 302.313 87.8956C301.038 87.8956 299.764 88.786 299.764 90.7937C299.764 92.8188 301.021 93.6918 302.295 93.6918C303.168 93.6918 304.041 93.2902 304.513 92.557Z" fill="black"/>
<path d="M292.593 93.5704C294.042 93.5879 295.054 93.0118 295.054 92.0516C295.054 88.944 287.861 91.7199 287.861 86.5697C287.861 84.5271 289.537 83.0257 292.209 83.0431C294.286 83.0431 295.997 83.916 296.678 85.819C297.01 86.6919 296.364 87.3029 295.735 87.3029C295.368 87.3029 295.002 87.0934 294.827 86.6221C294.408 85.4873 293.5 84.9635 292.209 84.9635C290.847 84.9635 289.904 85.6269 289.904 86.5697C289.904 89.8518 297.097 86.9538 297.097 92.0516C297.097 94.2688 295.054 95.4908 292.628 95.4908C290.498 95.4908 288.647 94.6179 287.914 92.7499C287.582 91.9119 288.263 91.266 288.909 91.266C289.241 91.266 289.572 91.4405 289.747 91.877C290.201 93.0292 291.266 93.553 292.593 93.5704Z" fill="black"/>
<path d="M319.215 68.7623C321.624 68.7623 323.614 70.2462 323.614 73.2316V77.1073C323.614 77.7533 323.125 78.085 322.619 78.085C322.13 78.085 321.624 77.7533 321.624 77.1073V73.0745C321.624 71.381 320.559 70.5256 319.215 70.5256H316.805V77.1073C316.805 77.7533 316.317 78.085 315.828 78.085C315.321 78.085 314.833 77.7533 314.833 77.1073V65.2706C314.833 64.6247 315.321 64.293 315.828 64.293C316.317 64.293 316.805 64.6247 316.805 65.2706V68.7623H319.215Z" fill="black"/>
<path d="M311.972 75.0999C312.199 74.7682 312.514 74.6286 312.81 74.6286C313.491 74.6286 314.12 75.3618 313.579 76.2173C312.776 77.4393 311.327 78.0678 309.86 78.0678C307.556 78.0678 305.199 76.5315 305.199 73.3367C305.199 70.1418 307.556 68.6055 309.86 68.6055C311.327 68.6055 312.776 69.234 313.579 70.456C314.12 71.3115 313.491 72.0447 312.81 72.0447C312.514 72.0447 312.199 71.9051 311.972 71.5734C311.501 70.8401 310.628 70.4386 309.773 70.4386C308.498 70.4386 307.224 71.329 307.224 73.3367C307.224 75.3618 308.481 76.2347 309.755 76.2347C310.628 76.2347 311.501 75.8332 311.972 75.0999Z" fill="black"/>
<path d="M304.548 73.1258C304.548 73.5797 304.268 73.8241 303.797 73.8241H297.494C297.634 75.3605 298.891 76.1286 300.2 76.1286C301.038 76.1286 301.929 75.8144 302.54 75.151C302.767 74.924 303.011 74.8192 303.256 74.8192C303.989 74.8192 304.617 75.6922 304.076 76.3905C303.308 77.4031 301.824 77.9792 300.323 77.9792C297.983 77.9792 295.557 76.6 295.557 73.3702C295.557 70.2277 297.844 68.6914 300.113 68.6914C302.33 68.6914 304.548 70.1754 304.548 73.1258ZM297.617 72.3576H302.627C302.261 71.0832 301.196 70.4547 300.131 70.4547C299.048 70.4547 297.983 71.0832 297.617 72.3576Z" fill="black"/>
<path d="M291.039 77.0223V67.5599H288.175C286.936 67.5599 286.953 65.7617 288.175 65.7617H295.979C297.201 65.7617 297.219 67.5599 295.979 67.5599H293.116V77.0223C293.116 77.6682 292.592 77.9999 292.086 77.9999C291.562 77.9999 291.039 77.6682 291.039 77.0223Z" fill="black"/>
</svg>
