<svg width="443" height="549" viewBox="0 0 443 549" fill="none" xmlns="http://www.w3.org/2000/svg">
<rect width="421.662" height="477" rx="32" transform="matrix(-0.981554 -0.191185 -0.191185 0.981554 505.079 80.6157)" fill="#AF8872" fill-opacity="0.1"/>
<path d="M116.465 183.663L114.177 153.523L119.732 154.645L120.638 176.637L120.902 176.691L130.62 156.844L135.675 157.865L136.939 179.944L137.19 179.995L146.563 160.064L152.118 161.186L138.311 188.076L133.215 187.047L131.548 165.886L131.325 165.841L121.561 184.693L116.465 183.663ZM155.743 192.031C153.598 191.598 151.837 190.779 150.457 189.573C149.089 188.359 148.153 186.846 147.649 185.035C147.148 183.214 147.123 181.185 147.575 178.948C148.019 176.748 148.827 174.902 149.998 173.409C151.18 171.909 152.621 170.847 154.322 170.224C156.024 169.593 157.896 169.483 159.938 169.895C161.256 170.162 162.457 170.626 163.54 171.289C164.635 171.945 165.543 172.805 166.265 173.869C166.997 174.934 167.485 176.202 167.729 177.671C167.975 179.131 167.909 180.799 167.53 182.674L167.218 184.219L149.689 180.679L150.375 177.282L163.073 179.846C163.259 178.879 163.223 177.978 162.967 177.144C162.712 176.3 162.262 175.586 161.617 175.002C160.981 174.419 160.18 174.031 159.215 173.836C158.184 173.628 157.229 173.695 156.348 174.039C155.469 174.374 154.73 174.901 154.13 175.62C153.542 176.332 153.147 177.165 152.944 178.119L152.345 181.085C152.094 182.329 152.106 183.442 152.381 184.425C152.658 185.399 153.156 186.205 153.878 186.843C154.601 187.473 155.51 187.898 156.605 188.119C157.339 188.267 158.023 188.299 158.658 188.215C159.295 188.121 159.873 187.914 160.392 187.594C160.911 187.274 161.343 186.834 161.687 186.276L166.286 187.756C165.738 188.939 164.953 189.911 163.93 190.671C162.918 191.423 161.716 191.924 160.322 192.174C158.931 192.414 157.404 192.367 155.743 192.031ZM175.354 203.904L181.293 174.498L186.25 175.499L185.536 179.036L185.828 179.095C186.193 178.628 186.671 178.149 187.263 177.66C187.856 177.162 188.599 176.785 189.491 176.531C190.384 176.267 191.458 176.261 192.711 176.515C194.363 176.848 195.768 177.571 196.924 178.684C198.092 179.79 198.9 181.243 199.348 183.043C199.807 184.836 199.797 186.921 199.317 189.297C198.842 191.645 198.054 193.563 196.952 195.051C195.85 196.538 194.548 197.579 193.046 198.174C191.544 198.769 189.953 198.897 188.273 198.558C187.048 198.311 186.073 197.901 185.348 197.33C184.623 196.758 184.072 196.135 183.697 195.46C183.332 194.778 183.068 194.15 182.903 193.575L182.695 193.533L180.394 204.922L175.354 203.904ZM184.076 186.19C183.797 187.573 183.747 188.824 183.927 189.942C184.116 191.062 184.523 191.99 185.148 192.724C185.783 193.452 186.635 193.923 187.702 194.139C188.816 194.364 189.809 194.255 190.681 193.813C191.554 193.361 192.287 192.654 192.877 191.692C193.479 190.721 193.915 189.568 194.185 188.231C194.453 186.904 194.501 185.687 194.328 184.58C194.156 183.472 193.753 182.55 193.119 181.814C192.485 181.077 191.607 180.595 190.483 180.369C189.407 180.151 188.435 180.25 187.569 180.664C186.703 181.078 185.972 181.757 185.376 182.699C184.789 183.643 184.356 184.807 184.076 186.19ZM206.37 202.271C205.014 201.997 203.843 201.509 202.854 200.807C201.877 200.098 201.169 199.201 200.731 198.118C200.302 197.036 200.229 195.795 200.512 194.393C200.756 193.186 201.18 192.233 201.785 191.534C202.39 190.835 203.126 190.327 203.992 190.009C204.858 189.691 205.798 189.509 206.812 189.463C207.837 189.409 208.881 189.432 209.943 189.53C211.222 189.653 212.262 189.743 213.062 189.798C213.865 189.844 214.465 189.791 214.862 189.64C215.271 189.481 215.524 189.16 215.622 188.677L215.639 188.594C215.851 187.545 215.704 186.67 215.198 185.969C214.692 185.268 213.855 184.799 212.685 184.563C211.451 184.314 210.417 184.385 209.584 184.777C208.761 185.171 208.15 185.709 207.751 186.392L203.18 184.773C203.813 183.549 204.645 182.586 205.676 181.886C206.708 181.177 207.885 180.729 209.208 180.542C210.532 180.346 211.942 180.399 213.436 180.7C214.467 180.909 215.468 181.236 216.44 181.684C217.412 182.132 218.265 182.719 218.997 183.447C219.731 184.165 220.258 185.049 220.577 186.099C220.906 187.151 220.926 188.387 220.64 189.807L217.749 204.12L212.903 203.141L213.497 200.204L213.33 200.17C212.903 200.702 212.359 201.172 211.697 201.579C211.047 201.979 210.272 202.252 209.372 202.399C208.484 202.539 207.484 202.496 206.37 202.271ZM208.426 198.832C209.438 199.036 210.356 199.014 211.179 198.765C212.004 198.506 212.684 198.083 213.218 197.495C213.761 196.91 214.112 196.222 214.272 195.433L214.781 192.913C214.597 193.011 214.303 193.077 213.9 193.112C213.506 193.148 213.069 193.161 212.588 193.151C212.107 193.141 211.633 193.122 211.165 193.096C210.697 193.069 210.291 193.045 209.947 193.024C209.175 192.974 208.468 193.005 207.827 193.117C207.186 193.229 206.652 193.459 206.224 193.808C205.798 194.147 205.52 194.641 205.388 195.291C205.201 196.219 205.398 196.988 205.98 197.599C206.562 198.209 207.378 198.62 208.426 198.832ZM221.641 204.906L225.96 183.52L230.847 184.507L230.127 188.071L230.35 188.116C230.989 186.96 231.85 186.144 232.931 185.667C234.024 185.182 235.184 185.064 236.409 185.311C236.687 185.368 236.995 185.444 237.333 185.542C237.682 185.631 237.968 185.723 238.191 185.816L237.254 190.453C237.056 190.335 236.73 190.202 236.277 190.052C235.835 189.896 235.401 189.774 234.974 189.688C234.055 189.502 233.189 189.535 232.375 189.786C231.572 190.03 230.892 190.457 230.333 191.069C229.775 191.681 229.404 192.442 229.22 193.351L226.681 205.924L221.641 204.906ZM252.157 188.811L251.37 192.709L239.075 190.226L239.863 186.328L252.157 188.811ZM243.933 181.817L248.973 182.835L244.918 202.913C244.781 203.59 244.778 204.131 244.909 204.534C245.052 204.93 245.281 205.227 245.599 205.427C245.916 205.626 246.283 205.768 246.701 205.852C247.017 205.916 247.309 205.951 247.578 205.957C247.857 205.965 248.07 205.964 248.216 205.955L248.27 210.067C247.982 210.106 247.576 210.13 247.052 210.14C246.538 210.152 245.921 210.095 245.203 209.969C243.933 209.752 242.834 209.332 241.907 208.71C240.981 208.078 240.312 207.257 239.897 206.246C239.493 205.237 239.43 204.065 239.709 202.73L243.933 181.817ZM258.448 199.298L255.917 211.829L250.877 210.811L255.196 189.425L260.014 190.398L259.28 194.032L259.53 194.082C260.264 192.984 261.241 192.191 262.46 191.703C263.688 191.217 265.101 191.135 266.698 191.458C268.173 191.756 269.395 192.331 270.363 193.184C271.34 194.038 272.009 195.125 272.371 196.444C272.742 197.765 272.75 199.279 272.396 200.985L269.645 214.602L264.605 213.584L267.198 200.747C267.487 199.317 267.341 198.124 266.762 197.166C266.192 196.21 265.257 195.601 263.957 195.339C263.076 195.161 262.252 195.197 261.486 195.448C260.732 195.692 260.086 196.137 259.55 196.782C259.024 197.429 258.656 198.268 258.448 199.298ZM282.977 217.729C280.832 217.296 279.071 216.477 277.691 215.27C276.323 214.057 275.387 212.544 274.883 210.733C274.382 208.912 274.357 206.883 274.809 204.646C275.253 202.446 276.061 200.599 277.232 199.107C278.414 197.606 279.855 196.545 281.555 195.922C283.258 195.291 285.13 195.181 287.172 195.593C288.49 195.859 289.691 196.324 290.774 196.987C291.869 197.643 292.777 198.503 293.499 199.567C294.231 200.632 294.719 201.9 294.963 203.369C295.209 204.829 295.143 206.497 294.764 208.372L294.452 209.917L276.922 206.377L277.609 202.98L290.307 205.544C290.492 204.577 290.457 203.676 290.2 202.842C289.946 201.998 289.496 201.284 288.851 200.7C288.215 200.117 287.414 199.729 286.449 199.534C285.418 199.326 284.463 199.393 283.582 199.737C282.703 200.072 281.964 200.599 281.364 201.318C280.776 202.03 280.381 202.863 280.178 203.817L279.579 206.783C279.328 208.027 279.34 209.14 279.615 210.123C279.891 211.097 280.39 211.903 281.112 212.541C281.835 213.17 282.744 213.596 283.839 213.817C284.573 213.965 285.257 213.997 285.892 213.913C286.529 213.819 287.107 213.612 287.626 213.292C288.145 212.972 288.577 212.532 288.921 211.974L293.52 213.454C292.972 214.637 292.187 215.609 291.164 216.369C290.152 217.121 288.949 217.622 287.556 217.872C286.165 218.112 284.638 218.065 282.977 217.729ZM295.658 219.856L299.978 198.469L304.865 199.457L304.145 203.021L304.368 203.066C305.007 201.91 305.868 201.094 306.949 200.617C308.042 200.132 309.201 200.014 310.427 200.261C310.705 200.317 311.013 200.394 311.351 200.491C311.7 200.581 311.986 200.673 312.209 200.766L311.272 205.402C311.074 205.285 310.748 205.152 310.295 205.002C309.853 204.845 309.419 204.724 308.992 204.638C308.073 204.452 307.207 204.485 306.393 204.736C305.59 204.979 304.909 205.407 304.351 206.019C303.793 206.631 303.422 207.391 303.238 208.301L300.699 220.874L295.658 219.856ZM105.944 226.427L104.221 203.82L109.359 204.858L110.081 220.654L110.276 220.694L117.156 206.433L122.238 207.459L123.061 223.189L123.269 223.231L129.993 209.025L135.145 210.066L124.769 230.229L119.52 229.169L118.429 213.906L118.136 213.847L111.207 227.49L105.944 226.427ZM133.168 231.926L137.488 210.539L142.528 211.557L138.209 232.944L133.168 231.926ZM140.635 208.016C139.837 207.854 139.203 207.451 138.735 206.806C138.268 206.151 138.11 205.448 138.262 204.696C138.416 203.935 138.834 203.348 139.516 202.935C140.201 202.513 140.942 202.383 141.74 202.544C142.548 202.707 143.18 203.115 143.638 203.768C144.106 204.413 144.264 205.116 144.11 205.877C143.958 206.629 143.54 207.216 142.856 207.638C142.183 208.053 141.442 208.179 140.635 208.016ZM157.214 214.523L156.427 218.422L144.132 215.939L144.92 212.04L157.214 214.523ZM148.99 207.529L154.03 208.547L149.975 228.625C149.838 229.303 149.835 229.843 149.966 230.246C150.109 230.642 150.338 230.94 150.656 231.139C150.973 231.338 151.34 231.48 151.758 231.565C152.073 231.628 152.366 231.663 152.635 231.669C152.914 231.677 153.126 231.677 153.273 231.668L153.327 235.78C153.039 235.818 152.633 235.842 152.109 235.853C151.595 235.865 150.978 235.808 150.26 235.682C148.99 235.464 147.891 235.044 146.964 234.422C146.038 233.791 145.368 232.969 144.954 231.958C144.55 230.949 144.487 229.777 144.766 228.442L148.99 207.529ZM163.964 225.103L161.433 237.634L156.393 236.616L162.152 208.101L167.081 209.097L164.908 219.86L165.158 219.91C165.903 218.805 166.87 218.01 168.06 217.525C169.26 217.034 170.678 216.953 172.311 217.283C173.796 217.583 175.029 218.155 176.008 219C176.987 219.845 177.657 220.927 178.018 222.247C178.389 223.568 178.4 225.092 178.051 226.818L175.301 240.435L170.261 239.417L172.854 226.58C173.144 225.141 172.999 223.948 172.417 222.999C171.847 222.044 170.899 221.432 169.571 221.164C168.68 220.984 167.842 221.017 167.058 221.265C166.285 221.505 165.626 221.946 165.081 222.59C164.545 223.235 164.172 224.073 163.964 225.103ZM93.0424 268.71L98.8018 240.195L103.842 241.213L101.688 251.878L101.897 251.92C102.262 251.453 102.74 250.974 103.331 250.485C103.925 249.987 104.667 249.61 105.559 249.356C106.453 249.092 107.527 249.086 108.78 249.34C110.432 249.673 111.836 250.397 112.993 251.509C114.161 252.615 114.969 254.068 115.417 255.868C115.876 257.661 115.865 259.746 115.385 262.122C114.911 264.47 114.123 266.388 113.021 267.876C111.918 269.363 110.616 270.404 109.115 270.999C107.613 271.595 106.022 271.722 104.342 271.383C103.117 271.136 102.142 270.726 101.416 270.155C100.691 269.583 100.141 268.96 99.7653 268.285C99.4007 267.603 99.1363 266.975 98.9721 266.4L98.6797 266.341L97.9992 269.711L93.0424 268.71ZM100.145 259.015C99.8656 260.398 99.8159 261.649 99.9958 262.767C100.185 263.887 100.592 264.815 101.216 265.549C101.852 266.277 102.703 266.748 103.771 266.964C104.885 267.189 105.878 267.08 106.749 266.638C107.623 266.186 108.355 265.479 108.946 264.517C109.548 263.546 109.983 262.393 110.253 261.056C110.521 259.729 110.569 258.512 110.397 257.405C110.224 256.297 109.821 255.375 109.187 254.639C108.554 253.902 107.675 253.42 106.552 253.194C105.475 252.976 104.504 253.075 103.638 253.489C102.771 253.903 102.04 254.582 101.444 255.524C100.857 256.468 100.424 257.632 100.145 259.015ZM131.788 267.174L134.291 254.782L139.331 255.8L135.011 277.186L130.124 276.199L130.892 272.398L130.669 272.353C129.945 273.453 128.953 274.272 127.695 274.81C126.446 275.35 125.018 275.458 123.413 275.133C122.011 274.85 120.835 274.289 119.883 273.45C118.943 272.603 118.293 271.52 117.931 270.201C117.572 268.872 117.564 267.354 117.909 265.646L120.66 252.029L125.7 253.047L123.107 265.884C122.833 267.239 122.987 268.391 123.568 269.339C124.15 270.288 125.044 270.884 126.25 271.127C126.993 271.277 127.749 271.242 128.518 271.02C129.288 270.799 129.967 270.376 130.557 269.751C131.158 269.119 131.568 268.26 131.788 267.174ZM159.099 265.676L154.403 265.249C154.367 264.759 154.227 264.277 153.985 263.803C153.752 263.331 153.391 262.915 152.904 262.555C152.416 262.196 151.782 261.938 151.002 261.78C149.954 261.568 149.026 261.618 148.219 261.928C147.422 262.24 146.955 262.76 146.818 263.485C146.683 264.105 146.808 264.657 147.194 265.141C147.588 265.626 148.303 266.104 149.339 266.574L152.829 268.091C154.764 268.935 156.129 269.931 156.921 271.076C157.723 272.224 157.974 273.564 157.674 275.098C157.393 276.442 156.759 277.55 155.771 278.423C154.794 279.288 153.561 279.87 152.071 280.168C150.581 280.466 148.945 280.435 147.162 280.075C144.545 279.547 142.548 278.573 141.173 277.156C139.8 275.728 139.158 274 139.25 271.97L144.26 272.49C144.288 273.5 144.614 274.324 145.239 274.962C145.863 275.601 146.756 276.037 147.916 276.271C149.114 276.513 150.124 276.461 150.947 276.115C151.78 275.772 152.269 275.238 152.416 274.514C152.539 273.901 152.405 273.347 152.012 272.853C151.629 272.36 150.967 271.907 150.026 271.495L146.532 269.992C144.567 269.151 143.195 268.125 142.415 266.915C141.638 265.695 141.411 264.306 141.735 262.749C141.992 261.429 142.58 260.359 143.499 259.54C144.429 258.714 145.598 258.167 147.004 257.9C148.421 257.626 149.984 257.662 151.692 258.007C154.198 258.513 156.063 259.445 157.286 260.803C158.519 262.163 159.123 263.787 159.099 265.676ZM159.36 282.104L163.68 260.718L168.72 261.736L164.401 283.122L159.36 282.104ZM166.827 258.194C166.029 258.033 165.395 257.63 164.927 256.984C164.46 256.33 164.302 255.627 164.454 254.875C164.608 254.114 165.026 253.527 165.708 253.114C166.393 252.692 167.134 252.561 167.932 252.722C168.74 252.886 169.372 253.293 169.83 253.946C170.298 254.592 170.456 255.295 170.302 256.056C170.15 256.808 169.732 257.395 169.048 257.817C168.375 258.232 167.635 258.357 166.827 258.194ZM175.979 272.418L173.448 284.949L168.407 283.931L172.727 262.545L177.544 263.518L176.81 267.152L177.061 267.203C177.795 266.105 178.771 265.312 179.991 264.824C181.219 264.338 182.632 264.256 184.228 264.578C185.704 264.876 186.926 265.452 187.894 266.304C188.871 267.158 189.54 268.245 189.902 269.564C190.272 270.885 190.281 272.399 189.926 274.105L187.176 287.722L182.136 286.704L184.729 273.867C185.017 272.437 184.872 271.244 184.293 270.286C183.722 269.331 182.787 268.722 181.488 268.459C180.606 268.281 179.782 268.318 179.017 268.569C178.262 268.812 177.617 269.257 177.081 269.902C176.554 270.549 176.187 271.388 175.979 272.418ZM200.507 290.849C198.363 290.416 196.601 289.597 195.222 288.391C193.853 287.177 192.918 285.665 192.414 283.853C191.912 282.032 191.887 280.003 192.339 277.766C192.784 275.566 193.591 273.72 194.762 272.227C195.944 270.727 197.386 269.665 199.086 269.043C200.788 268.411 202.661 268.301 204.703 268.714C206.021 268.98 207.222 269.444 208.305 270.108C209.399 270.763 210.308 271.623 211.03 272.687C211.762 273.752 212.249 275.02 212.494 276.489C212.74 277.95 212.673 279.617 212.295 281.492L211.983 283.038L194.453 279.497L195.139 276.1L207.837 278.665C208.023 277.697 207.988 276.797 207.731 275.962C207.476 275.119 207.026 274.405 206.381 273.82C205.745 273.238 204.945 272.849 203.979 272.654C202.949 272.446 201.993 272.514 201.112 272.857C200.233 273.192 199.494 273.719 198.895 274.438C198.307 275.15 197.911 275.984 197.709 276.938L197.11 279.903C196.859 281.147 196.87 282.261 197.145 283.244C197.422 284.217 197.921 285.023 198.642 285.662C199.365 286.291 200.275 286.716 201.37 286.937C202.103 287.085 202.787 287.117 203.423 287.033C204.06 286.939 204.638 286.733 205.157 286.412C205.675 286.092 206.107 285.653 206.452 285.094L211.051 286.574C210.503 287.758 209.717 288.729 208.694 289.489C207.683 290.241 206.48 290.742 205.087 290.992C203.695 291.233 202.169 291.185 200.507 290.849ZM233.27 280.657L228.574 280.23C228.538 279.74 228.398 279.257 228.156 278.783C227.923 278.311 227.562 277.895 227.075 277.536C226.587 277.177 225.953 276.918 225.173 276.761C224.125 276.549 223.197 276.598 222.39 276.909C221.593 277.221 221.126 277.74 220.989 278.466C220.854 279.086 220.979 279.638 221.365 280.121C221.759 280.607 222.474 281.085 223.51 281.555L227 283.071C228.936 283.916 230.3 284.911 231.092 286.057C231.894 287.204 232.145 288.545 231.845 290.078C231.564 291.422 230.93 292.531 229.942 293.403C228.965 294.269 227.732 294.851 226.242 295.149C224.752 295.447 223.116 295.416 221.333 295.056C218.716 294.527 216.719 293.554 215.344 292.136C213.971 290.709 213.329 288.981 213.421 286.951L218.431 287.47C218.459 288.481 218.785 289.305 219.41 289.943C220.034 290.581 220.927 291.018 222.087 291.252C223.285 291.494 224.295 291.442 225.118 291.096C225.951 290.752 226.441 290.218 226.587 289.494C226.71 288.882 226.576 288.328 226.183 287.833C225.8 287.34 225.138 286.888 224.197 286.476L220.703 284.973C218.738 284.132 217.366 283.106 216.586 281.895C215.809 280.676 215.582 279.287 215.906 277.729C216.163 276.409 216.751 275.34 217.67 274.521C218.6 273.694 219.769 273.148 221.175 272.881C222.592 272.607 224.155 272.642 225.863 272.987C228.369 273.494 230.234 274.426 231.457 275.784C232.69 277.144 233.294 278.768 233.27 280.657ZM253.612 284.765L248.916 284.339C248.88 283.848 248.741 283.366 248.498 282.892C248.265 282.42 247.905 282.004 247.417 281.645C246.929 281.285 246.296 281.027 245.516 280.869C244.467 280.658 243.539 280.707 242.733 281.017C241.935 281.33 241.468 281.849 241.331 282.575C241.196 283.195 241.322 283.747 241.707 284.23C242.102 284.716 242.817 285.193 243.852 285.663L247.342 287.18C249.278 288.025 250.642 289.02 251.435 290.166C252.237 291.313 252.488 292.653 252.187 294.187C251.906 295.531 251.272 296.639 250.284 297.512C249.307 298.378 248.074 298.959 246.584 299.257C245.094 299.555 243.458 299.524 241.676 299.164C239.058 298.636 237.062 297.663 235.686 296.245C234.313 294.818 233.672 293.089 233.763 291.06L238.774 291.579C238.801 292.589 239.128 293.414 239.752 294.052C240.377 294.69 241.269 295.126 242.43 295.361C243.627 295.602 244.637 295.55 245.461 295.205C246.293 294.861 246.783 294.327 246.929 293.603C247.053 292.99 246.918 292.437 246.526 291.942C246.142 291.449 245.48 290.996 244.539 290.584L241.046 289.082C239.081 288.24 237.708 287.214 236.929 286.004C236.151 284.784 235.924 283.396 236.249 281.838C236.506 280.518 237.094 279.448 238.012 278.629C238.943 277.803 240.111 277.256 241.517 276.99C242.935 276.716 244.498 276.751 246.206 277.096C248.712 277.602 250.576 278.534 251.8 279.892C253.032 281.252 253.636 282.877 253.612 284.765ZM263.257 303.523C261.113 303.09 259.351 302.271 257.972 301.065C256.604 299.851 255.668 298.339 255.164 296.527C254.662 294.706 254.637 292.677 255.089 290.44C255.534 288.24 256.341 286.394 257.512 284.901C258.694 283.401 260.136 282.339 261.836 281.717C263.539 281.085 265.411 280.975 267.453 281.387C268.771 281.654 269.972 282.118 271.055 282.782C272.149 283.437 273.058 284.297 273.78 285.361C274.512 286.426 275 287.694 275.244 289.163C275.49 290.623 275.424 292.291 275.045 294.166L274.733 295.712L257.203 292.171L257.889 288.774L270.587 291.338C270.773 290.371 270.738 289.47 270.481 288.636C270.226 287.792 269.777 287.078 269.131 286.494C268.495 285.912 267.695 285.523 266.729 285.328C265.699 285.12 264.743 285.188 263.863 285.531C262.983 285.866 262.244 286.393 261.645 287.112C261.057 287.824 260.661 288.657 260.459 289.612L259.86 292.577C259.609 293.821 259.621 294.935 259.895 295.917C260.172 296.891 260.671 297.697 261.392 298.336C262.115 298.965 263.025 299.39 264.12 299.611C264.853 299.759 265.538 299.791 266.173 299.707C266.81 299.613 267.388 299.406 267.907 299.086C268.426 298.766 268.857 298.326 269.202 297.768L273.801 299.248C273.253 300.432 272.467 301.403 271.444 302.163C270.433 302.915 269.23 303.416 267.837 303.666C266.445 303.906 264.919 303.859 263.257 303.523ZM296.02 293.331L291.324 292.904C291.288 292.413 291.148 291.931 290.906 291.457C290.673 290.985 290.312 290.569 289.825 290.21C289.337 289.851 288.703 289.592 287.924 289.435C286.875 289.223 285.947 289.272 285.14 289.583C284.343 289.895 283.876 290.414 283.739 291.14C283.604 291.76 283.729 292.312 284.115 292.795C284.509 293.281 285.224 293.759 286.26 294.229L289.75 295.745C291.686 296.59 293.05 297.585 293.842 298.731C294.644 299.878 294.895 301.219 294.595 302.752C294.314 304.096 293.68 305.205 292.692 306.077C291.715 306.943 290.482 307.525 288.992 307.823C287.502 308.121 285.866 308.09 284.084 307.73C281.466 307.201 279.469 306.228 278.094 304.81C276.721 303.383 276.08 301.655 276.171 299.625L281.181 300.144C281.209 301.155 281.535 301.979 282.16 302.617C282.785 303.255 283.677 303.691 284.837 303.926C286.035 304.168 287.045 304.116 287.868 303.77C288.701 303.426 289.191 302.892 289.337 302.168C289.461 301.556 289.326 301.002 288.933 300.507C288.55 300.014 287.888 299.562 286.947 299.149L283.454 297.647C281.488 296.806 280.116 295.78 279.337 294.569C278.559 293.349 278.332 291.961 278.656 290.403C278.913 289.083 279.501 288.014 280.42 287.195C281.35 286.368 282.519 285.821 283.925 285.555C285.343 285.281 286.905 285.316 288.613 285.661C291.119 286.167 292.984 287.1 294.207 288.458C295.44 289.818 296.044 291.442 296.02 293.331ZM319.829 292.256L319.042 296.155L306.748 293.671L307.535 289.773L319.829 292.256ZM311.605 285.262L316.646 286.28L312.59 306.358C312.454 307.035 312.451 307.576 312.582 307.979C312.724 308.375 312.954 308.672 313.271 308.872C313.588 309.071 313.956 309.213 314.373 309.297C314.689 309.361 314.981 309.396 315.251 309.402C315.529 309.41 315.742 309.409 315.889 309.4L315.942 313.512C315.654 313.551 315.248 313.575 314.725 313.585C314.21 313.597 313.594 313.54 312.875 313.414C311.605 313.197 310.507 312.777 309.579 312.155C308.654 311.523 307.984 310.702 307.57 309.691C307.165 308.682 307.102 307.51 307.381 306.175L311.605 285.262ZM327.564 316.512C325.475 316.09 323.758 315.265 322.412 314.036C321.066 312.808 320.137 311.283 319.626 309.46C319.125 307.639 319.097 305.624 319.543 303.414C319.989 301.205 320.798 299.354 321.969 297.862C323.149 296.371 324.598 295.32 326.315 294.711C328.032 294.101 329.935 294.007 332.024 294.429C334.112 294.851 335.829 295.676 337.175 296.904C338.521 298.132 339.444 299.662 339.944 301.492C340.453 303.324 340.485 305.345 340.038 307.554C339.592 309.763 338.78 311.609 337.602 313.09C336.432 314.574 334.989 315.62 333.272 316.23C331.555 316.839 329.652 316.933 327.564 316.512ZM328.407 312.479C329.539 312.708 330.549 312.588 331.436 312.12C332.324 311.643 333.061 310.912 333.646 309.929C334.241 308.948 334.669 307.808 334.931 306.508C335.196 305.199 335.245 303.977 335.078 302.842C334.922 301.7 334.527 300.736 333.894 299.951C333.26 299.166 332.377 298.659 331.244 298.431C330.084 298.196 329.055 298.317 328.157 298.793C327.269 299.27 326.526 300.004 325.93 300.995C325.345 301.978 324.92 303.124 324.656 304.433C324.393 305.732 324.341 306.948 324.499 308.082C324.665 309.217 325.066 310.177 325.699 310.962C326.344 311.739 327.247 312.245 328.407 312.479ZM84.1087 311.794L88.4282 290.407L93.2457 291.38L92.5117 295.014L92.7623 295.065C93.4554 293.93 94.3864 293.123 95.5555 292.644C96.7264 292.156 98.0266 292.056 99.4561 292.345C100.904 292.637 102.053 293.237 102.904 294.143C103.766 295.041 104.279 296.135 104.444 297.424L104.667 297.469C105.38 296.377 106.37 295.591 107.635 295.113C108.912 294.627 110.326 294.54 111.876 294.853C113.844 295.251 115.324 296.197 116.316 297.692C117.309 299.187 117.564 301.127 117.083 303.513L114.183 317.868L109.129 316.847L111.871 303.272C112.139 301.945 111.982 300.903 111.4 300.148C110.821 299.384 110.02 298.898 108.999 298.692C107.783 298.447 106.755 298.635 105.914 299.257C105.085 299.872 104.548 300.783 104.304 301.99L101.61 315.329L96.6676 314.33L99.4517 300.546C99.6748 299.442 99.5187 298.492 98.9835 297.698C98.4576 296.906 97.6609 296.402 96.5934 296.187C95.8694 296.04 95.1728 296.093 94.5038 296.344C93.8366 296.586 93.2592 297.006 92.7714 297.603C92.2856 298.191 91.9536 298.925 91.7755 299.807L89.149 312.812L84.1087 311.794ZM124.187 320.338C122.832 320.064 121.66 319.576 120.672 318.874C119.694 318.165 118.987 317.268 118.548 316.185C118.12 315.103 118.047 313.861 118.33 312.46C118.574 311.253 118.998 310.3 119.603 309.601C120.208 308.902 120.943 308.394 121.809 308.076C122.675 307.758 123.615 307.576 124.629 307.53C125.655 307.476 126.698 307.498 127.761 307.597C129.04 307.72 130.08 307.809 130.88 307.865C131.682 307.911 132.282 307.858 132.68 307.707C133.089 307.548 133.342 307.227 133.44 306.744L133.456 306.661C133.668 305.612 133.521 304.737 133.016 304.036C132.51 303.335 131.672 302.866 130.503 302.63C129.268 302.38 128.235 302.452 127.402 302.844C126.578 303.238 125.967 303.776 125.569 304.459L120.997 302.84C121.631 301.616 122.463 300.653 123.493 299.953C124.525 299.244 125.703 298.796 127.025 298.609C128.35 298.413 129.759 298.465 131.254 298.767C132.284 298.975 133.286 299.303 134.258 299.751C135.23 300.198 136.082 300.786 136.815 301.513C137.549 302.232 138.075 303.116 138.395 304.166C138.723 305.217 138.744 306.453 138.457 307.874L135.566 322.187L130.721 321.208L131.314 318.27L131.147 318.237C130.721 318.769 130.177 319.239 129.515 319.646C128.864 320.046 128.089 320.319 127.19 320.466C126.302 320.606 125.301 320.563 124.187 320.338ZM126.244 316.899C127.256 317.103 128.173 317.08 128.997 316.831C129.822 316.573 130.501 316.15 131.035 315.562C131.579 314.976 131.93 314.289 132.09 313.5L132.599 310.98C132.414 311.078 132.121 311.144 131.718 311.179C131.324 311.215 130.887 311.228 130.406 311.218C129.925 311.208 129.45 311.189 128.982 311.162C128.514 311.135 128.109 311.111 127.765 311.09C126.993 311.041 126.286 311.072 125.645 311.184C125.004 311.296 124.47 311.526 124.042 311.874C123.616 312.213 123.337 312.708 123.206 313.358C123.019 314.286 123.216 315.055 123.798 315.665C124.38 316.276 125.195 316.687 126.244 316.899ZM145.408 317.19L146.623 311.103L147.431 311.266L156.852 304.227L162.741 305.417L151.161 314.033L150.117 313.822L145.408 317.19ZM139.458 322.973L145.218 294.458L150.258 295.476L144.499 323.991L139.458 322.973ZM152.88 325.684L147.884 314.545L151.999 311.681L158.909 326.901L152.88 325.684ZM169.108 329.396C166.963 328.963 165.202 328.143 163.822 326.937C162.454 325.724 161.518 324.211 161.014 322.4C160.513 320.579 160.488 318.55 160.94 316.313C161.384 314.113 162.191 312.266 163.362 310.774C164.545 309.273 165.986 308.212 167.686 307.589C169.389 306.957 171.261 306.848 173.303 307.26C174.621 307.526 175.822 307.991 176.905 308.654C178 309.31 178.908 310.17 179.63 311.233C180.362 312.299 180.85 313.566 181.094 315.036C181.34 316.496 181.274 318.164 180.895 320.039L180.583 321.584L163.053 318.044L163.74 314.646L176.438 317.211C176.623 316.244 176.588 315.343 176.331 314.509C176.077 313.665 175.627 312.951 174.982 312.367C174.346 311.784 173.545 311.396 172.58 311.201C171.549 310.992 170.594 311.06 169.713 311.404C168.834 311.739 168.094 312.265 167.495 312.985C166.907 313.697 166.512 314.53 166.309 315.484L165.71 318.45C165.459 319.694 165.471 320.807 165.746 321.79C166.022 322.764 166.521 323.57 167.243 324.208C167.966 324.837 168.875 325.262 169.97 325.484C170.704 325.632 171.388 325.664 172.023 325.58C172.66 325.486 173.238 325.279 173.757 324.959C174.276 324.639 174.707 324.199 175.052 323.641L179.651 325.12C179.103 326.304 178.318 327.276 177.295 328.035C176.283 328.788 175.08 329.289 173.687 329.538C172.296 329.779 170.769 329.732 169.108 329.396ZM194.223 334.034L188.71 332.92L204.508 306.433L210.885 307.721L215.178 338.266L209.664 337.153L206.626 312.947L206.404 312.902L194.223 334.034ZM196.662 322.89L211.7 325.927L210.862 330.076L195.824 327.039L196.662 322.89ZM228.682 311.316L222.923 339.831L217.758 338.787L223.517 310.272L228.682 311.316ZM81.4647 356.597C80.1095 356.324 78.9376 355.836 77.9491 355.134C76.9717 354.424 76.264 353.528 75.8259 352.444C75.3971 351.363 75.3242 350.121 75.6073 348.719C75.851 347.513 76.2753 346.56 76.8803 345.861C77.4852 345.162 78.2206 344.653 79.0867 344.336C79.9527 344.018 80.8928 343.836 81.9069 343.789C82.9321 343.736 83.9758 343.758 85.0379 343.857C86.3173 343.98 87.3571 344.069 88.1575 344.124C88.9597 344.171 89.5596 344.118 89.9574 343.966C90.3662 343.807 90.6194 343.487 90.7169 343.004L90.7338 342.92C90.9456 341.871 90.7987 340.996 90.293 340.295C89.7874 339.594 88.9497 339.126 87.7802 338.889C86.5456 338.64 85.512 338.711 84.6792 339.103C83.8558 339.498 83.2447 340.036 82.8459 340.719L78.2748 339.1C78.9086 337.875 79.7405 336.913 80.7707 336.213C81.8028 335.503 82.9802 335.055 84.3028 334.868C85.6274 334.672 87.0369 334.725 88.5313 335.027C89.5616 335.235 90.5629 335.563 91.5353 336.01C92.5076 336.458 93.3598 337.046 94.092 337.773C94.8261 338.491 95.3528 339.375 95.6721 340.425C96.0006 341.477 96.0215 342.713 95.7347 344.133L92.8438 358.446L87.9984 357.468L88.5918 354.53L88.4247 354.496C87.9984 355.028 87.4543 355.498 86.7924 355.906C86.1416 356.305 85.3667 356.579 84.4675 356.726C83.5795 356.865 82.5786 356.822 81.4647 356.597ZM83.5216 353.158C84.5333 353.363 85.4508 353.34 86.274 353.091C87.0991 352.833 87.7787 352.409 88.3128 351.822C88.8562 351.236 89.2076 350.548 89.3669 349.76L89.8759 347.239C89.6919 347.337 89.3983 347.404 88.9953 347.438C88.6015 347.475 88.1641 347.488 87.6831 347.478C87.2021 347.467 86.7276 347.449 86.2597 347.422C85.7917 347.395 85.386 347.371 85.0424 347.35C84.27 347.3 83.5633 347.331 82.9223 347.443C82.2814 347.556 81.747 347.786 81.3192 348.134C80.8933 348.473 80.6147 348.968 80.4835 349.617C80.296 350.546 80.4932 351.315 81.0752 351.925C81.6572 352.535 82.4727 352.946 83.5216 353.158ZM104.596 361.211C102.916 360.872 101.499 360.137 100.346 359.005C99.1934 357.874 98.3976 356.409 97.959 354.611C97.5204 352.812 97.5383 350.738 98.0126 348.39C98.4925 346.014 99.2873 344.088 100.397 342.611C101.518 341.128 102.831 340.103 104.336 339.538C105.844 338.963 107.419 338.842 109.062 339.173C110.315 339.427 111.302 339.848 112.023 340.438C112.746 341.019 113.285 341.654 113.638 342.344C113.993 343.024 114.249 343.651 114.403 344.223L114.612 344.265L116.766 333.6L121.821 334.621L116.061 363.136L111.105 362.135L111.785 358.765L111.479 358.703C111.114 359.171 110.626 359.647 110.016 360.132C109.408 360.609 108.659 360.969 107.769 361.215C106.879 361.46 105.821 361.459 104.596 361.211ZM106.838 357.36C107.905 357.576 108.873 357.472 109.741 357.048C110.611 356.615 111.346 355.918 111.946 354.957C112.545 353.997 112.985 352.825 113.264 351.442C113.544 350.058 113.592 348.817 113.408 347.717C113.234 346.619 112.828 345.711 112.19 344.993C111.562 344.277 110.705 343.809 109.619 343.59C108.496 343.363 107.499 343.466 106.629 343.899C105.759 344.332 105.03 345.025 104.441 345.979C103.852 346.932 103.424 348.073 103.156 349.4C102.886 350.737 102.835 351.968 103.004 353.094C103.184 354.212 103.589 355.149 104.219 355.904C104.86 356.652 105.733 357.137 106.838 357.36ZM129.5 366.285C127.412 365.863 125.695 365.038 124.349 363.81C123.003 362.581 122.074 361.056 121.563 359.233C121.061 357.412 121.034 355.397 121.48 353.188C121.926 350.979 122.735 349.128 123.906 347.635C125.086 346.144 126.535 345.094 128.252 344.484C129.969 343.874 131.872 343.781 133.96 344.202C136.049 344.624 137.766 345.449 139.112 346.678C140.458 347.906 141.381 349.435 141.881 351.265C142.39 353.097 142.421 355.118 141.975 357.327C141.529 359.536 140.717 361.382 139.538 362.864C138.369 364.347 136.926 365.394 135.209 366.003C133.492 366.613 131.589 366.707 129.5 366.285ZM130.344 362.253C131.476 362.481 132.486 362.362 133.372 361.894C134.261 361.416 134.998 360.686 135.583 359.703C136.177 358.721 136.606 357.581 136.868 356.281C137.132 354.973 137.181 353.751 137.014 352.616C136.859 351.473 136.464 350.509 135.83 349.725C135.197 348.94 134.314 348.433 133.181 348.204C132.021 347.97 130.992 348.09 130.094 348.566C129.205 349.043 128.463 349.777 127.867 350.768C127.282 351.751 126.857 352.897 126.593 354.206C126.33 355.505 126.278 356.722 126.435 357.855C126.602 358.99 127.002 359.95 127.636 360.735C128.281 361.512 129.183 362.018 130.344 362.253ZM141.314 376.583L147.253 347.177L152.21 348.178L151.496 351.715L151.788 351.774C152.153 351.306 152.631 350.828 153.223 350.339C153.816 349.841 154.559 349.464 155.451 349.21C156.345 348.946 157.418 348.94 158.671 349.193C160.323 349.527 161.728 350.25 162.885 351.363C164.053 352.468 164.861 353.921 165.308 355.722C165.767 357.515 165.757 359.599 165.277 361.976C164.803 364.324 164.014 366.242 162.912 367.729C161.81 369.217 160.508 370.258 159.006 370.853C157.504 371.448 155.914 371.576 154.233 371.237C153.008 370.989 152.033 370.58 151.308 370.008C150.583 369.437 150.033 368.814 149.657 368.139C149.292 367.457 149.028 366.828 148.864 366.254L148.655 366.212L146.354 377.601L141.314 376.583ZM150.037 358.869C149.757 360.252 149.707 361.502 149.887 362.621C150.077 363.741 150.483 364.668 151.108 365.403C151.743 366.131 152.595 366.602 153.662 366.818C154.776 367.043 155.769 366.934 156.641 366.492C157.515 366.04 158.247 365.333 158.837 364.37C159.439 363.4 159.875 362.247 160.145 360.91C160.413 359.583 160.461 358.366 160.288 357.258C160.116 356.151 159.713 355.229 159.079 354.493C158.445 353.756 157.567 353.274 156.444 353.047C155.367 352.83 154.395 352.928 153.529 353.343C152.663 353.757 151.932 354.435 151.336 355.378C150.749 356.322 150.316 357.486 150.037 358.869ZM181.262 354.046L180.474 357.944L168.18 355.461L168.967 351.563L181.262 354.046ZM173.037 347.052L178.078 348.07L174.023 368.147C173.886 368.825 173.883 369.366 174.014 369.769C174.156 370.165 174.386 370.462 174.703 370.662C175.02 370.861 175.388 371.003 175.805 371.087C176.121 371.151 176.414 371.186 176.683 371.192C176.961 371.2 177.174 371.199 177.321 371.19L177.374 375.302C177.086 375.341 176.68 375.365 176.157 375.375C175.642 375.387 175.026 375.33 174.307 375.204C173.037 374.986 171.939 374.567 171.011 373.944C170.086 373.313 169.416 372.492 169.002 371.481C168.597 370.472 168.534 369.3 168.814 367.965L173.037 347.052ZM179.981 376.046L184.301 354.66L189.341 355.678L185.022 377.064L179.981 376.046ZM187.448 352.136C186.65 351.975 186.016 351.572 185.547 350.926C185.081 350.272 184.923 349.568 185.075 348.817C185.229 348.055 185.647 347.468 186.329 347.056C187.013 346.633 187.755 346.503 188.553 346.664C189.361 346.827 189.993 347.235 190.451 347.888C190.919 348.533 191.077 349.237 190.923 349.998C190.771 350.75 190.353 351.337 189.669 351.759C188.996 352.173 188.255 352.299 187.448 352.136ZM198.273 380.175C196.184 379.753 194.467 378.928 193.121 377.7C191.775 376.472 190.846 374.946 190.335 373.123C189.834 371.302 189.806 369.287 190.252 367.078C190.698 364.869 191.507 363.018 192.678 361.525C193.858 360.034 195.307 358.984 197.024 358.374C198.741 357.765 200.644 357.671 202.733 358.093C204.821 358.514 206.538 359.339 207.884 360.568C209.23 361.796 210.153 363.325 210.653 365.156C211.162 366.988 211.194 369.008 210.747 371.218C210.301 373.427 209.489 375.272 208.311 376.754C207.141 378.237 205.698 379.284 203.981 379.893C202.264 380.503 200.361 380.597 198.273 380.175ZM199.116 376.143C200.248 376.372 201.258 376.252 202.145 375.784C203.033 375.306 203.77 374.576 204.355 373.593C204.949 372.611 205.378 371.471 205.64 370.172C205.905 368.863 205.953 367.641 205.787 366.506C205.631 365.363 205.236 364.4 204.603 363.615C203.969 362.83 203.086 362.323 201.953 362.094C200.793 361.86 199.764 361.981 198.866 362.456C197.977 362.934 197.235 363.668 196.639 364.658C196.054 365.641 195.629 366.787 195.365 368.096C195.102 369.396 195.05 370.612 195.208 371.745C195.374 372.88 195.775 373.84 196.408 374.625C197.053 375.403 197.956 375.909 199.116 376.143ZM219.277 370.941L216.747 383.472L211.706 382.454L216.026 361.067L220.843 362.04L220.109 365.674L220.36 365.725C221.094 364.627 222.07 363.834 223.289 363.346C224.518 362.86 225.93 362.778 227.527 363.1C229.003 363.399 230.225 363.974 231.193 364.826C232.17 365.68 232.839 366.767 233.2 368.087C233.571 369.408 233.58 370.921 233.225 372.627L230.475 386.244L225.435 385.226L228.028 372.389C228.316 370.96 228.171 369.766 227.591 368.809C227.021 367.853 226.086 367.244 224.787 366.981C223.905 366.803 223.081 366.84 222.316 367.091C221.561 367.335 220.916 367.779 220.38 368.424C219.853 369.071 219.486 369.91 219.277 370.941ZM86.7675 385.732L82.0716 385.306C82.0354 384.815 81.8961 384.333 81.6537 383.859C81.4206 383.387 81.0601 382.971 80.5724 382.612C80.0846 382.252 79.4509 381.994 78.6712 381.837C77.6223 381.625 76.6946 381.674 75.888 381.985C75.0906 382.297 74.6235 382.816 74.4866 383.542C74.3517 384.162 74.4769 384.714 74.8623 385.197C75.2569 385.683 75.972 386.16 77.0074 386.63L80.4978 388.147C82.4332 388.992 83.7973 389.987 84.59 391.133C85.392 392.28 85.6429 393.621 85.3429 395.154C85.0617 396.498 84.4273 397.606 83.4395 398.479C82.4628 399.345 81.2295 399.926 79.7395 400.225C78.2495 400.523 76.6134 400.492 74.8312 400.132C72.2136 399.603 70.2171 398.63 68.8418 397.212C67.4683 395.785 66.8272 394.057 66.9183 392.027L71.9289 392.546C71.9567 393.556 72.2829 394.381 72.9076 395.019C73.5322 395.657 74.4247 396.093 75.585 396.328C76.7824 396.57 77.7928 396.518 78.6161 396.172C79.4488 395.828 79.9383 395.294 80.0845 394.57C80.2082 393.957 80.0737 393.404 79.6809 392.909C79.2974 392.416 78.6353 391.964 77.6945 391.551L74.2012 390.049C72.2361 389.208 70.8637 388.182 70.0841 386.971C69.3065 385.751 69.0797 384.363 69.404 382.805C69.6609 381.485 70.2489 380.416 71.1679 379.597C72.098 378.77 73.2663 378.223 74.6727 377.957C76.0902 377.683 77.6529 377.718 79.3609 378.063C81.8671 378.569 83.7318 379.502 84.9549 380.86C86.1873 382.219 86.7916 383.844 86.7675 385.732ZM87.0292 402.161L91.3486 380.774L96.3889 381.792L92.0694 403.179L87.0292 402.161ZM94.4957 378.251C93.6975 378.09 93.064 377.686 92.5954 377.041C92.1286 376.386 91.9712 375.683 92.123 374.931C92.2767 374.17 92.6948 373.583 93.3772 373.17C94.0614 372.748 94.8027 372.618 95.6009 372.779C96.4085 372.942 97.041 373.35 97.4985 374.003C97.9671 374.648 98.1246 375.351 97.9708 376.112C97.819 376.864 97.4009 377.451 96.7167 377.873C96.0436 378.288 95.3033 378.414 94.4957 378.251ZM96.0762 403.988L100.396 382.601L105.213 383.575L104.479 387.209L104.73 387.259C105.423 386.124 106.354 385.317 107.523 384.838C108.694 384.35 109.994 384.25 111.424 384.539C112.872 384.831 114.021 385.431 114.872 386.337C115.734 387.235 116.247 388.329 116.412 389.619L116.634 389.664C117.348 388.571 118.337 387.785 119.603 387.307C120.88 386.821 122.293 386.734 123.843 387.047C125.811 387.445 127.291 388.391 128.284 389.886C129.276 391.381 129.532 393.322 129.05 395.707L126.151 410.062L121.096 409.041L123.838 395.466C124.106 394.139 123.95 393.097 123.368 392.342C122.788 391.578 121.988 391.093 120.967 390.886C119.751 390.641 118.722 390.829 117.882 391.452C117.052 392.067 116.516 392.977 116.272 394.184L113.578 407.523L108.635 406.524L111.419 392.74C111.642 391.636 111.486 390.686 110.951 389.892C110.425 389.1 109.628 388.596 108.561 388.381C107.837 388.234 107.14 388.287 106.471 388.538C105.804 388.78 105.227 389.2 104.739 389.797C104.253 390.385 103.921 391.12 103.743 392.001L101.116 405.006L96.0762 403.988ZM128.468 418.877L134.407 389.471L139.364 390.472L138.65 394.009L138.942 394.068C139.307 393.6 139.785 393.122 140.377 392.633C140.97 392.135 141.713 391.758 142.605 391.503C143.498 391.24 144.572 391.234 145.825 391.487C147.477 391.821 148.882 392.544 150.039 393.657C151.206 394.762 152.014 396.215 152.462 398.016C152.921 399.809 152.911 401.893 152.431 404.27C151.957 406.618 151.168 408.536 150.066 410.023C148.964 411.511 147.662 412.552 146.16 413.147C144.658 413.742 143.067 413.87 141.387 413.531C140.162 413.283 139.187 412.874 138.462 412.302C137.737 411.731 137.186 411.108 136.811 410.433C136.446 409.75 136.182 409.122 136.017 408.548L135.809 408.506L133.508 419.895L128.468 418.877ZM137.19 401.162C136.911 402.546 136.861 403.796 137.041 404.915C137.23 406.035 137.637 406.962 138.262 407.697C138.897 408.424 139.749 408.896 140.816 409.111C141.93 409.336 142.923 409.228 143.795 408.786C144.669 408.334 145.401 407.627 145.991 406.664C146.593 405.694 147.029 404.541 147.299 403.204C147.567 401.877 147.615 400.659 147.442 399.552C147.27 398.445 146.867 397.523 146.233 396.786C145.599 396.05 144.721 395.568 143.597 395.341C142.521 395.124 141.549 395.222 140.683 395.637C139.817 396.051 139.086 396.729 138.49 397.672C137.903 398.616 137.47 399.779 137.19 401.162ZM164.216 388.072L158.457 416.587L153.417 415.569L159.176 387.054L164.216 388.072ZM171.847 419.726C169.703 419.293 167.941 418.474 166.562 417.268C165.194 416.054 164.258 414.542 163.754 412.73C163.252 410.909 163.227 408.88 163.679 406.643C164.124 404.443 164.931 402.597 166.102 401.104C167.284 399.604 168.726 398.542 170.426 397.92C172.128 397.288 174.001 397.178 176.043 397.59C177.361 397.857 178.562 398.321 179.645 398.985C180.739 399.64 181.648 400.5 182.37 401.564C183.102 402.629 183.59 403.897 183.834 405.366C184.08 406.827 184.014 408.494 183.635 410.369L183.323 411.915L165.793 408.374L166.479 404.977L179.177 407.541C179.363 406.574 179.328 405.673 179.071 404.839C178.816 403.995 178.366 403.281 177.721 402.697C177.085 402.115 176.285 401.726 175.319 401.531C174.289 401.323 173.333 401.391 172.452 401.734C171.573 402.069 170.834 402.596 170.235 403.315C169.647 404.027 169.251 404.86 169.049 405.815L168.45 408.78C168.199 410.024 168.211 411.138 168.485 412.12C168.762 413.094 169.261 413.9 169.982 414.539C170.705 415.168 171.615 415.593 172.71 415.814C173.443 415.962 174.128 415.994 174.763 415.91C175.4 415.816 175.978 415.609 176.497 415.289C177.015 414.969 177.447 414.53 177.792 413.971L182.391 415.451C181.843 416.635 181.057 417.606 180.034 418.366C179.023 419.118 177.82 419.619 176.427 419.869C175.035 420.109 173.509 420.062 171.847 419.726ZM191.234 419.15L190.744 420.645C190.377 421.788 189.905 422.929 189.328 424.068C188.757 425.219 188.188 426.268 187.619 427.216C187.051 428.164 186.597 428.908 186.256 429.447L182.858 428.761C183.103 428.221 183.435 427.487 183.854 426.557C184.283 425.629 184.727 424.579 185.186 423.406C185.645 422.233 186.039 421.028 186.366 419.789L186.778 418.25L191.234 419.15ZM217.737 406.301L216.949 410.2L204.307 407.646L205.094 403.748L217.737 406.301ZM203.935 425.773L208.663 402.367C208.953 400.929 209.492 399.791 210.279 398.955C211.076 398.121 212.028 397.569 213.135 397.3C214.242 397.031 215.413 397.021 216.648 397.271C217.52 397.447 218.281 397.673 218.931 397.949C219.58 398.225 220.056 398.452 220.359 398.629L218.569 402.325C218.368 402.217 218.112 402.097 217.801 401.967C217.491 401.827 217.136 401.717 216.737 401.636C215.8 401.447 215.09 401.54 214.608 401.916C214.138 402.285 213.818 402.887 213.649 403.722L208.99 426.793L203.935 425.773ZM221.528 429.775C220.173 429.501 219.001 429.013 218.012 428.311C217.035 427.602 216.327 426.705 215.889 425.622C215.46 424.54 215.387 423.299 215.67 421.897C215.914 420.69 216.338 419.737 216.943 419.038C217.548 418.339 218.284 417.831 219.15 417.513C220.016 417.195 220.956 417.013 221.97 416.967C222.995 416.913 224.039 416.936 225.101 417.034C226.38 417.157 227.42 417.247 228.22 417.302C229.023 417.348 229.623 417.295 230.02 417.144C230.429 416.985 230.682 416.664 230.78 416.181L230.797 416.098C231.009 415.049 230.862 414.174 230.356 413.473C229.85 412.772 229.013 412.303 227.843 412.067C226.609 411.818 225.575 411.889 224.742 412.281C223.919 412.675 223.308 413.213 222.909 413.896L218.338 412.277C218.972 411.053 219.804 410.09 220.834 409.39C221.866 408.681 223.043 408.233 224.366 408.046C225.69 407.85 227.1 407.903 228.594 408.204C229.625 408.413 230.626 408.74 231.598 409.188C232.571 409.636 233.423 410.223 234.155 410.951C234.889 411.669 235.416 412.553 235.735 413.603C236.064 414.655 236.085 415.891 235.798 417.311L232.907 431.624L228.061 430.645L228.655 427.708L228.488 427.674C228.061 428.206 227.517 428.676 226.855 429.083C226.205 429.483 225.43 429.756 224.531 429.903C223.643 430.043 222.642 430 221.528 429.775ZM223.585 426.336C224.596 426.54 225.514 426.518 226.337 426.269C227.162 426.01 227.842 425.587 228.376 424.999C228.919 424.413 229.271 423.726 229.43 422.937L229.939 420.417C229.755 420.515 229.461 420.581 229.058 420.616C228.664 420.652 228.227 420.665 227.746 420.655C227.265 420.645 226.791 420.626 226.323 420.6C225.855 420.573 225.449 420.549 225.105 420.528C224.333 420.478 223.626 420.509 222.985 420.621C222.344 420.733 221.81 420.963 221.382 421.312C220.956 421.651 220.678 422.145 220.546 422.795C220.359 423.723 220.556 424.492 221.138 425.103C221.72 425.713 222.536 426.124 223.585 426.336ZM256.879 420.091L252.183 419.664C252.147 419.174 252.008 418.691 251.766 418.217C251.532 417.745 251.172 417.329 250.684 416.97C250.196 416.611 249.563 416.352 248.783 416.195C247.734 415.983 246.806 416.032 246 416.343C245.202 416.655 244.735 417.174 244.598 417.9C244.464 418.52 244.589 419.072 244.974 419.555C245.369 420.041 246.084 420.519 247.119 420.989L250.61 422.505C252.545 423.35 253.909 424.345 254.702 425.491C255.504 426.638 255.755 427.979 255.455 429.512C255.174 430.856 254.539 431.965 253.551 432.837C252.575 433.703 251.341 434.285 249.851 434.583C248.361 434.881 246.725 434.85 244.943 434.49C242.325 433.961 240.329 432.988 238.954 431.57C237.58 430.143 236.939 428.415 237.03 426.385L242.041 426.904C242.069 427.915 242.395 428.739 243.019 429.377C243.644 430.015 244.537 430.452 245.697 430.686C246.894 430.928 247.905 430.876 248.728 430.53C249.561 430.186 250.05 429.652 250.196 428.928C250.32 428.316 250.186 427.762 249.793 427.267C249.409 426.774 248.747 426.322 247.806 425.91L244.313 424.407C242.348 423.566 240.976 422.54 240.196 421.329C239.418 420.11 239.192 418.721 239.516 417.163C239.773 415.843 240.361 414.774 241.28 413.955C242.21 413.128 243.378 412.582 244.784 412.315C246.202 412.041 247.765 412.076 249.473 412.421C251.979 412.928 253.844 413.86 255.067 415.218C256.299 416.578 256.903 418.202 256.879 420.091ZM272.14 417.289L271.352 421.188L259.058 418.705L259.845 414.806L272.14 417.289ZM263.916 410.295L268.956 411.313L264.901 431.391C264.764 432.069 264.761 432.609 264.892 433.012C265.034 433.408 265.264 433.706 265.581 433.905C265.898 434.104 266.266 434.246 266.684 434.331C266.999 434.394 267.292 434.429 267.561 434.435C267.839 434.443 268.052 434.443 268.199 434.434L268.252 438.546C267.964 438.584 267.559 438.608 267.035 438.618C266.52 438.63 265.904 438.574 265.185 438.448C263.915 438.23 262.817 437.81 261.889 437.188C260.964 436.557 260.294 435.735 259.88 434.724C259.475 433.715 259.412 432.543 259.692 431.208L263.916 410.295ZM277.564 436.586L277.074 438.081C276.708 439.224 276.236 440.366 275.658 441.505C275.087 442.655 274.518 443.704 273.95 444.652C273.381 445.6 272.927 446.344 272.586 446.884L269.189 446.198C269.433 445.658 269.765 444.923 270.185 443.993C270.613 443.066 271.057 442.015 271.517 440.842C271.976 439.67 272.369 438.464 272.696 437.226L273.109 435.686L277.564 436.586ZM64.0428 442.856C62.6876 442.582 61.5157 442.094 60.5272 441.392C59.5498 440.683 58.8421 439.786 58.404 438.703C57.9752 437.621 57.9023 436.379 58.1854 434.978C58.4291 433.771 58.8534 432.818 59.4583 432.119C60.0632 431.42 60.7987 430.912 61.6648 430.594C62.5308 430.276 63.4709 430.094 64.485 430.048C65.5102 429.994 66.5539 430.016 67.616 430.115C68.8954 430.238 69.9352 430.327 70.7355 430.383C71.5378 430.429 72.1377 430.376 72.5354 430.224C72.9443 430.066 73.1975 429.745 73.295 429.262L73.3119 429.179C73.5237 428.13 73.3768 427.255 72.8711 426.553C72.3654 425.852 71.5278 425.384 70.3583 425.148C69.1237 424.898 68.0901 424.97 67.2573 425.362C66.4338 425.756 65.8227 426.294 65.424 426.977L60.8529 425.358C61.4867 424.133 62.3186 423.171 63.3488 422.471C64.3809 421.762 65.5583 421.314 66.8809 421.127C68.2055 420.93 69.6149 420.983 71.1094 421.285C72.1397 421.493 73.141 421.821 74.1133 422.269C75.0856 422.716 75.9379 423.304 76.6701 424.031C77.4042 424.75 77.9309 425.634 78.2502 426.683C78.5787 427.735 78.5996 428.971 78.3128 430.391L75.4219 444.705L70.5765 443.726L71.1699 440.788L71.0028 440.754C70.5765 441.287 70.0324 441.756 69.3705 442.164C68.7197 442.564 67.9447 442.837 67.0456 442.984C66.1576 443.123 65.1567 443.081 64.0428 442.856ZM66.0996 439.416C67.1114 439.621 68.0289 439.598 68.8521 439.349C69.6772 439.091 70.3568 438.668 70.8909 438.08C71.4343 437.494 71.7857 436.807 71.945 436.018L72.454 433.498C72.27 433.596 71.9764 433.662 71.5733 433.696C71.1796 433.733 70.7422 433.746 70.2612 433.736C69.7802 433.726 69.3057 433.707 68.8378 433.68C68.3698 433.653 67.9641 433.629 67.6205 433.608C66.848 433.558 66.1413 433.59 65.5004 433.702C64.8595 433.814 64.3251 434.044 63.8973 434.392C63.4714 434.731 63.1928 435.226 63.0615 435.875C62.8741 436.804 63.0713 437.573 63.6533 438.183C64.2353 438.793 65.0507 439.205 66.0996 439.416ZM86.8849 433.978L84.354 446.509L79.3137 445.491L83.6332 424.104L88.4507 425.077L87.7167 428.711L87.9673 428.762C88.7011 427.664 89.6777 426.871 90.8969 426.383C92.1254 425.897 93.5379 425.815 95.1345 426.138C96.6104 426.436 97.8322 427.011 98.8 427.863C99.7771 428.718 100.446 429.804 100.808 431.124C101.179 432.445 101.187 433.958 100.833 435.664L98.0825 449.282L93.0422 448.264L95.635 435.426C95.9237 433.997 95.7783 432.803 95.1989 431.846C94.6287 430.89 93.6938 430.281 92.3943 430.018C91.5125 429.84 90.6888 429.877 89.9231 430.128C89.1687 430.372 88.5234 430.816 87.9873 431.461C87.4605 432.109 87.093 432.947 86.8849 433.978ZM109.89 452.058C108.21 451.718 106.794 450.983 105.641 449.852C104.488 448.72 103.692 447.255 103.253 445.457C102.815 443.658 102.833 441.585 103.307 439.236C103.787 436.86 104.582 434.934 105.691 433.458C106.812 431.974 108.125 430.95 109.631 430.384C111.138 429.809 112.713 429.688 114.356 430.02C115.609 430.273 116.596 430.694 117.318 431.285C118.041 431.865 118.579 432.501 118.933 433.19C119.288 433.871 119.543 434.497 119.698 435.069L119.907 435.112L122.061 424.446L127.115 425.467L121.356 453.982L116.399 452.981L117.079 449.612L116.773 449.55C116.408 450.017 115.921 450.493 115.311 450.979C114.703 451.455 113.953 451.816 113.063 452.061C112.173 452.306 111.116 452.305 109.89 452.058ZM112.132 448.206C113.199 448.422 114.167 448.318 115.035 447.894C115.905 447.461 116.64 446.765 117.24 445.804C117.84 444.843 118.279 443.671 118.559 442.288C118.838 440.905 118.886 439.663 118.702 438.564C118.528 437.466 118.122 436.558 117.484 435.84C116.856 435.123 115.999 434.656 114.913 434.436C113.79 434.209 112.793 434.312 111.923 434.745C111.053 435.178 110.324 435.871 109.735 436.825C109.147 437.778 108.718 438.919 108.45 440.246C108.18 441.583 108.13 442.814 108.298 443.94C108.478 445.058 108.883 445.995 109.513 446.75C110.154 447.498 111.027 447.983 112.132 448.206ZM140.167 458.231C138.811 457.957 137.64 457.469 136.651 456.767C135.674 456.058 134.966 455.161 134.528 454.078C134.099 452.996 134.026 451.754 134.309 450.353C134.553 449.146 134.977 448.193 135.582 447.494C136.187 446.795 136.922 446.287 137.789 445.969C138.655 445.651 139.595 445.469 140.609 445.423C141.634 445.369 142.678 445.391 143.74 445.49C145.019 445.613 146.059 445.702 146.859 445.758C147.662 445.804 148.261 445.751 148.659 445.599C149.068 445.441 149.321 445.12 149.419 444.637L149.436 444.554C149.647 443.505 149.501 442.63 148.995 441.929C148.489 441.227 147.652 440.759 146.482 440.523C145.247 440.273 144.214 440.345 143.381 440.737C142.558 441.131 141.947 441.669 141.548 442.352L136.977 440.733C137.61 439.508 138.442 438.546 139.473 437.846C140.505 437.137 141.682 436.689 143.005 436.502C144.329 436.305 145.739 436.358 147.233 436.66C148.263 436.868 149.265 437.196 150.237 437.644C151.209 438.091 152.062 438.679 152.794 439.406C153.528 440.125 154.055 441.009 154.374 442.059C154.703 443.11 154.723 444.346 154.437 445.766L151.546 460.08L146.7 459.101L147.294 456.163L147.127 456.129C146.7 456.662 146.156 457.131 145.494 457.539C144.843 457.939 144.069 458.212 143.169 458.359C142.281 458.498 141.28 458.456 140.167 458.231ZM142.223 454.791C143.235 454.996 144.153 454.973 144.976 454.724C145.801 454.466 146.481 454.043 147.015 453.455C147.558 452.869 147.909 452.182 148.069 451.393L148.578 448.873C148.394 448.971 148.1 449.037 147.697 449.071C147.303 449.108 146.866 449.121 146.385 449.111C145.904 449.101 145.43 449.082 144.962 449.055C144.494 449.028 144.088 449.004 143.744 448.983C142.972 448.933 142.265 448.965 141.624 449.077C140.983 449.189 140.449 449.419 140.021 449.767C139.595 450.106 139.317 450.601 139.185 451.251C138.998 452.179 139.195 452.948 139.777 453.558C140.359 454.168 141.175 454.58 142.223 454.791ZM170.589 441.667L169.802 445.566L157.16 443.012L157.947 439.114L170.589 441.667ZM156.788 461.139L161.515 437.733C161.806 436.295 162.345 435.157 163.132 434.321C163.928 433.487 164.88 432.935 165.988 432.666C167.095 432.397 168.266 432.387 169.501 432.637C170.373 432.813 171.134 433.039 171.784 433.315C172.433 433.591 172.909 433.818 173.211 433.995L171.422 437.691C171.221 437.583 170.965 437.463 170.653 437.333C170.343 437.193 169.989 437.083 169.59 437.002C168.652 436.813 167.943 436.906 167.461 437.282C166.99 437.651 166.671 438.253 166.502 439.088L161.842 462.159L156.788 461.139ZM184.193 444.415L183.405 448.313L170.763 445.76L171.55 441.861L184.193 444.415ZM170.392 463.886L175.119 440.481C175.409 439.042 175.948 437.905 176.735 437.069C177.532 436.234 178.484 435.683 179.591 435.414C180.699 435.145 181.869 435.135 183.104 435.384C183.977 435.56 184.738 435.787 185.387 436.063C186.037 436.339 186.512 436.565 186.815 436.742L185.025 440.438C184.825 440.33 184.569 440.211 184.257 440.08C183.947 439.94 183.592 439.83 183.193 439.75C182.256 439.56 181.546 439.654 181.064 440.03C180.594 440.398 180.274 441 180.105 441.836L175.446 464.907L170.392 463.886ZM191.085 468.5C188.996 468.078 187.279 467.253 185.933 466.025C184.587 464.797 183.658 463.271 183.147 461.448C182.646 459.627 182.618 457.612 183.064 455.403C183.51 453.194 184.319 451.343 185.49 449.85C186.67 448.359 188.119 447.309 189.836 446.699C191.553 446.09 193.456 445.996 195.545 446.418C197.633 446.84 199.35 447.665 200.696 448.893C202.042 450.121 202.965 451.651 203.465 453.481C203.974 455.313 204.006 457.334 203.559 459.543C203.113 461.752 202.301 463.597 201.123 465.079C199.953 466.562 198.51 467.609 196.793 468.219C195.076 468.828 193.173 468.922 191.085 468.5ZM191.928 464.468C193.06 464.697 194.07 464.577 194.957 464.109C195.845 463.631 196.582 462.901 197.167 461.918C197.762 460.937 198.19 459.796 198.452 458.497C198.717 457.188 198.765 455.966 198.599 454.831C198.443 453.689 198.048 452.725 197.415 451.94C196.781 451.155 195.898 450.648 194.765 450.419C193.605 450.185 192.576 450.306 191.678 450.781C190.79 451.259 190.047 451.993 189.451 452.983C188.866 453.967 188.441 455.113 188.177 456.421C187.914 457.721 187.862 458.937 188.02 460.07C188.186 461.205 188.587 462.165 189.22 462.95C189.865 463.728 190.768 464.234 191.928 464.468ZM204.518 470.779L208.838 449.392L213.725 450.38L213.005 453.944L213.228 453.989C213.867 452.833 214.727 452.017 215.809 451.54C216.902 451.055 218.061 450.937 219.286 451.184C219.565 451.24 219.873 451.317 220.211 451.414C220.56 451.504 220.846 451.596 221.068 451.689L220.132 456.325C219.933 456.208 219.608 456.075 219.155 455.925C218.713 455.768 218.279 455.647 217.852 455.561C216.933 455.375 216.067 455.408 215.253 455.659C214.45 455.902 213.769 456.33 213.211 456.942C212.653 457.554 212.282 458.314 212.098 459.224L209.559 471.797L204.518 470.779ZM225.867 475.482C224.187 475.143 222.771 474.407 221.618 473.276C220.465 472.145 219.669 470.68 219.23 468.881C218.792 467.083 218.809 465.009 219.284 462.661C219.764 460.284 220.559 458.358 221.668 456.882C222.789 455.398 224.102 454.374 225.608 453.808C227.115 453.234 228.69 453.112 230.333 453.444C231.586 453.697 232.573 454.119 233.294 454.709C234.018 455.29 234.556 455.925 234.909 456.615C235.265 457.295 235.52 457.921 235.675 458.494L235.884 458.536L238.038 447.871L243.092 448.891L237.333 477.406L232.376 476.405L233.056 473.036L232.75 472.974C232.385 473.441 231.898 473.918 231.288 474.403C230.679 474.879 229.93 475.24 229.04 475.485C228.15 475.731 227.093 475.729 225.867 475.482ZM228.109 471.631C229.176 471.846 230.144 471.742 231.012 471.319C231.882 470.886 232.617 470.189 233.217 469.228C233.817 468.267 234.256 467.095 234.536 465.712C234.815 464.329 234.863 463.088 234.679 461.988C234.505 460.89 234.099 459.982 233.461 459.264C232.833 458.548 231.976 458.08 230.89 457.861C229.767 457.634 228.77 457.737 227.9 458.17C227.03 458.603 226.301 459.296 225.712 460.249C225.124 461.203 224.695 462.343 224.427 463.671C224.157 465.007 224.107 466.238 224.275 467.364C224.455 468.482 224.86 469.419 225.49 470.174C226.131 470.922 227.004 471.408 228.109 471.631ZM247.594 479.928C246.239 479.655 245.067 479.167 244.079 478.465C243.101 477.755 242.393 476.859 241.955 475.775C241.527 474.693 241.454 473.452 241.737 472.05C241.981 470.844 242.405 469.891 243.01 469.192C243.615 468.493 244.35 467.984 245.216 467.666C246.082 467.349 247.022 467.167 248.036 467.12C249.062 467.066 250.105 467.089 251.167 467.187C252.447 467.311 253.487 467.4 254.287 467.455C255.089 467.501 255.689 467.449 256.087 467.297C256.496 467.138 256.749 466.817 256.846 466.335L256.863 466.251C257.075 465.202 256.928 464.327 256.423 463.626C255.917 462.925 255.079 462.456 253.91 462.22C252.675 461.971 251.641 462.042 250.809 462.434C249.985 462.828 249.374 463.367 248.975 464.049L244.404 462.431C245.038 461.206 245.87 460.244 246.9 459.544C247.932 458.834 249.11 458.386 250.432 458.199C251.757 458.003 253.166 458.056 254.661 458.358C255.691 458.566 256.692 458.894 257.665 459.341C258.637 459.789 259.489 460.376 260.221 461.104C260.956 461.822 261.482 462.706 261.802 463.756C262.13 464.808 262.151 466.044 261.864 467.464L258.973 481.777L254.128 480.799L254.721 477.861L254.554 477.827C254.128 478.359 253.584 478.829 252.922 479.236C252.271 479.636 251.496 479.91 250.597 480.057C249.709 480.196 248.708 480.153 247.594 479.928ZM249.651 476.489C250.663 476.693 251.58 476.671 252.403 476.422C253.229 476.163 253.908 475.74 254.442 475.153C254.986 474.567 255.337 473.879 255.496 473.09L256.005 470.57C255.821 470.668 255.528 470.735 255.125 470.769C254.731 470.805 254.294 470.819 253.813 470.808C253.332 470.798 252.857 470.78 252.389 470.753C251.921 470.726 251.515 470.702 251.172 470.681C250.399 470.631 249.693 470.662 249.052 470.774C248.411 470.886 247.876 471.117 247.449 471.465C247.023 471.804 246.744 472.298 246.613 472.948C246.425 473.876 246.623 474.646 247.205 475.256C247.787 475.866 248.602 476.277 249.651 476.489ZM263.088 482.608L268.847 454.093L273.887 455.111L271.733 465.777L271.942 465.819C272.307 465.351 272.785 464.873 273.377 464.384C273.97 463.886 274.713 463.509 275.605 463.254C276.499 462.991 277.572 462.985 278.825 463.238C280.477 463.572 281.882 464.295 283.039 465.408C284.207 466.513 285.014 467.966 285.462 469.767C285.921 471.56 285.911 473.644 285.431 476.021C284.957 478.369 284.168 480.287 283.066 481.774C281.964 483.262 280.662 484.303 279.16 484.898C277.658 485.493 276.067 485.621 274.387 485.282C273.162 485.034 272.187 484.625 271.462 484.053C270.737 483.482 270.186 482.859 269.811 482.184C269.446 481.501 269.182 480.873 269.018 480.299L268.725 480.24L268.045 483.609L263.088 482.608ZM270.19 472.913C269.911 474.297 269.861 475.547 270.041 476.666C270.23 477.786 270.637 478.713 271.262 479.448C271.897 480.175 272.749 480.647 273.816 480.863C274.93 481.088 275.923 480.979 276.795 480.537C277.669 480.085 278.401 479.378 278.991 478.415C279.593 477.445 280.029 476.292 280.299 474.955C280.567 473.628 280.615 472.41 280.442 471.303C280.27 470.196 279.867 469.274 279.233 468.538C278.599 467.801 277.721 467.319 276.598 467.092C275.521 466.875 274.549 466.973 273.683 467.388C272.817 467.802 272.086 468.48 271.49 469.423C270.903 470.367 270.47 471.53 270.19 472.913ZM297.185 459.817L291.426 488.332L286.385 487.314L292.145 458.799L297.185 459.817ZM304.816 491.471C302.672 491.038 300.91 490.218 299.531 489.012C298.162 487.799 297.226 486.286 296.723 484.475C296.221 482.654 296.196 480.625 296.648 478.388C297.092 476.188 297.9 474.341 299.071 472.849C300.253 471.348 301.694 470.287 303.395 469.664C305.097 469.032 306.969 468.923 309.012 469.335C310.33 469.601 311.53 470.066 312.614 470.729C313.708 471.385 314.617 472.245 315.339 473.308C316.07 474.374 316.558 475.642 316.802 477.111C317.049 478.571 316.982 480.239 316.604 482.114L316.291 483.659L298.762 480.119L299.448 476.722L312.146 479.286C312.332 478.319 312.296 477.418 312.04 476.584C311.785 475.74 311.335 475.026 310.69 474.442C310.054 473.859 309.254 473.471 308.288 473.276C307.258 473.068 306.302 473.135 305.421 473.479C304.542 473.814 303.803 474.341 303.204 475.06C302.615 475.772 302.22 476.605 302.018 477.559L301.419 480.525C301.167 481.769 301.179 482.882 301.454 483.865C301.731 484.839 302.23 485.645 302.951 486.283C303.674 486.912 304.583 487.338 305.679 487.559C306.412 487.707 307.096 487.739 307.732 487.655C308.369 487.561 308.947 487.354 309.465 487.034C309.984 486.714 310.416 486.274 310.761 485.716L315.36 487.195C314.812 488.379 314.026 489.351 313.003 490.11C311.991 490.863 310.789 491.364 309.396 491.613C308.004 491.854 306.478 491.807 304.816 491.471Z" fill="white"/>
</svg>
