<svg width="451" height="549" viewBox="0 0 451 549" fill="none" xmlns="http://www.w3.org/2000/svg">
<rect x="-55" y="80.6157" width="421.662" height="477" rx="32" transform="rotate(-11.022 -55 80.6157)" fill="#AF8872" fill-opacity="0.1"/>
<path d="M51.6495 265.723L38.0289 238.738L43.592 237.655L52.8239 257.636L53.0888 257.585L54.4951 235.531L59.5562 234.545L69.1534 254.47L69.4043 254.421L70.4593 232.422L76.0223 231.338L73.5253 261.462L68.4223 262.456L58.8034 243.534L58.5804 243.577L56.7524 264.729L51.6495 265.723ZM91.1468 258.464C88.9996 258.882 87.0583 258.797 85.323 258.209C83.5951 257.61 82.1527 256.569 80.9956 255.087C79.8368 253.595 79.0393 251.729 78.6029 249.489C78.1739 247.286 78.2156 245.271 78.728 243.445C79.248 241.607 80.175 240.076 81.509 238.851C82.8413 237.617 84.5298 236.801 86.5747 236.403C87.8946 236.146 89.1818 236.117 90.4363 236.316C91.6982 236.505 92.866 236.952 93.9396 237.66C95.0225 238.365 95.9573 239.351 96.7439 240.616C97.5288 241.871 98.1041 243.438 98.4698 245.316L98.7712 246.863L81.2176 250.282L80.555 246.88L93.2705 244.404C93.073 243.439 92.6963 242.62 92.1407 241.946C91.5833 241.264 90.8949 240.776 90.0755 240.482C89.2654 240.186 88.377 240.133 87.4103 240.321C86.3785 240.522 85.5212 240.949 84.8381 241.603C84.1533 242.248 83.6712 243.017 83.3919 243.911C83.12 244.794 83.0727 245.715 83.2498 246.674L83.8283 249.644C84.0709 250.889 84.5068 251.914 85.1361 252.717C85.7635 253.512 86.5324 254.066 87.4427 254.381C88.3512 254.686 89.3538 254.732 90.4506 254.519C91.1849 254.376 91.8296 254.144 92.3847 253.823C92.9379 253.494 93.3931 253.082 93.7503 252.588C94.1076 252.094 94.3389 251.523 94.4443 250.875L99.26 250.487C99.2052 251.791 98.85 252.989 98.1945 254.081C97.5465 255.162 96.6263 256.085 95.4338 256.847C94.2396 257.601 92.8106 258.14 91.1468 258.464ZM112.464 253.878L106.902 225.323L111.95 224.34L114.03 235.02L114.239 234.979C114.398 234.408 114.657 233.784 115.017 233.106C115.375 232.419 115.918 231.787 116.645 231.211C117.371 230.626 118.361 230.211 119.616 229.967C121.27 229.645 122.844 229.777 124.338 230.364C125.84 230.94 127.141 231.974 128.242 233.468C129.351 234.95 130.137 236.88 130.601 239.26C131.059 241.611 131.062 243.685 130.611 245.481C130.16 247.276 129.354 248.735 128.193 249.859C127.033 250.982 125.611 251.708 123.929 252.035C122.702 252.274 121.644 252.268 120.756 252.017C119.867 251.765 119.121 251.399 118.516 250.919C117.918 250.427 117.434 249.948 117.063 249.48L116.77 249.537L117.428 252.911L112.464 253.878ZM115.328 242.206C115.598 243.591 116.029 244.766 116.622 245.731C117.225 246.694 117.955 247.396 118.813 247.837C119.678 248.266 120.645 248.377 121.714 248.169C122.829 247.951 123.705 247.472 124.342 246.73C124.978 245.98 125.384 245.047 125.563 243.931C125.749 242.805 125.711 241.573 125.45 240.234C125.191 238.905 124.771 237.762 124.189 236.804C123.607 235.846 122.882 235.148 122.015 234.709C121.148 234.27 120.153 234.16 119.028 234.38C117.95 234.59 117.089 235.051 116.447 235.765C115.804 236.479 115.388 237.385 115.196 238.483C115.014 239.58 115.058 240.821 115.328 242.206ZM147.689 237.668L145.272 225.259L150.319 224.276L154.491 245.692L149.597 246.645L148.855 242.839L148.632 242.882C148.383 244.175 147.779 245.311 146.821 246.288C145.873 247.264 144.595 247.909 142.987 248.222C141.583 248.495 140.282 248.426 139.082 248.013C137.89 247.589 136.875 246.836 136.037 245.755C135.198 244.664 134.612 243.264 134.278 241.554L131.622 227.918L136.67 226.935L139.174 239.79C139.438 241.147 140.02 242.153 140.919 242.807C141.818 243.462 142.872 243.671 144.08 243.436C144.824 243.291 145.509 242.969 146.136 242.471C146.762 241.973 147.229 241.322 147.536 240.52C147.85 239.706 147.901 238.755 147.689 237.668ZM158.503 244.91L154.332 223.495L159.379 222.511L163.55 243.927L158.503 244.91ZM156.277 219.961C155.478 220.116 154.738 219.986 154.059 219.568C153.378 219.141 152.964 218.551 152.817 217.798C152.668 217.036 152.831 216.334 153.304 215.692C153.775 215.041 154.41 214.637 155.21 214.481C156.019 214.324 156.759 214.459 157.431 214.888C158.11 215.306 158.524 215.896 158.673 216.658C158.819 217.411 158.657 218.113 158.186 218.764C157.722 219.404 157.086 219.803 156.277 219.961ZM167.048 213.608L172.61 242.163L167.562 243.146L162.001 214.591L167.048 213.608ZM184.642 240.21C182.96 240.537 181.37 240.398 179.872 239.793C178.375 239.187 177.08 238.137 175.988 236.642C174.896 235.147 174.121 233.224 173.663 230.872C173.2 228.493 173.199 226.409 173.661 224.621C174.131 222.822 174.953 221.374 176.129 220.276C177.303 219.17 178.712 218.456 180.357 218.136C181.612 217.891 182.686 217.904 183.578 218.174C184.468 218.435 185.208 218.817 185.798 219.319C186.386 219.813 186.861 220.294 187.222 220.764L187.431 220.723L185.351 210.043L190.412 209.057L195.974 237.612L191.01 238.578L190.353 235.204L190.047 235.264C189.888 235.835 189.619 236.462 189.24 237.143C188.86 237.816 188.305 238.435 187.576 239.001C186.847 239.568 185.869 239.971 184.642 240.21ZM185.244 235.794C186.313 235.586 187.168 235.121 187.808 234.398C188.447 233.665 188.86 232.741 189.048 231.624C189.236 230.507 189.195 229.256 188.925 227.871C188.655 226.486 188.225 225.32 187.636 224.374C187.056 223.425 186.334 222.741 185.471 222.321C184.616 221.899 183.646 221.793 182.558 222.005C181.433 222.224 180.552 222.7 179.913 223.432C179.274 224.164 178.865 225.083 178.684 226.189C178.504 227.295 178.544 228.513 178.803 229.842C179.063 231.181 179.486 232.338 180.072 233.314C180.665 234.279 181.397 234.99 182.268 235.448C183.146 235.894 184.138 236.01 185.244 235.794ZM67.6868 291.073L63.1835 292.471C62.9629 292.032 62.6501 291.64 62.2451 291.294C61.8494 290.947 61.3576 290.7 60.7696 290.554C60.1816 290.408 59.4972 290.411 58.7164 290.563C57.6661 290.768 56.8274 291.167 56.2004 291.762C55.5827 292.355 55.3491 293.013 55.4996 293.737C55.6116 294.361 55.938 294.823 56.4788 295.123C57.0289 295.421 57.8721 295.59 59.0085 295.629L62.8135 295.698C64.9249 295.74 66.5656 296.14 67.7356 296.896C68.9148 297.65 69.6584 298.793 69.9664 300.325C70.2197 301.675 70.0564 302.942 69.4765 304.125C68.9042 305.298 67.9863 306.307 66.7229 307.151C65.4595 307.995 63.9355 308.591 62.1508 308.939C59.5296 309.449 57.3129 309.312 55.5005 308.526C53.6863 307.732 52.4339 306.379 51.7434 304.468L56.5727 303.035C56.9841 303.959 57.6003 304.596 58.4212 304.947C59.2422 305.299 60.2336 305.361 61.3955 305.135C62.5946 304.901 63.5086 304.468 64.1377 303.834C64.776 303.198 65.0246 302.518 64.8834 301.793C64.7639 301.179 64.4282 300.719 63.8763 300.412C63.3337 300.102 62.5489 299.937 61.522 299.915L57.7197 299.86C55.5822 299.832 53.9222 299.408 52.7396 298.587C51.5552 297.756 50.8155 296.559 50.5206 294.996C50.2543 293.678 50.3894 292.465 50.9262 291.357C51.4704 290.238 52.3415 289.287 53.5396 288.503C54.7452 287.709 56.2032 287.145 57.9134 286.812C60.4231 286.323 62.5024 286.473 64.1513 287.261C65.8096 288.048 66.988 289.319 67.6868 291.073ZM83.6226 304.756C81.5312 305.164 79.6291 305.057 77.9162 304.435C76.2032 303.814 74.7627 302.758 73.5946 301.268C72.4358 299.777 71.641 297.925 71.2101 295.713C70.7792 293.5 70.82 291.481 71.3324 289.654C71.8542 287.826 72.7923 286.302 74.1468 285.083C75.5012 283.864 77.2241 283.051 79.3155 282.643C81.4069 282.236 83.309 282.343 85.0219 282.965C86.7349 283.586 88.1716 284.647 89.3323 286.148C90.5022 287.647 91.3026 289.503 91.7335 291.715C92.1644 293.927 92.118 295.943 91.5944 297.762C91.0801 299.58 90.1458 301.098 88.7913 302.317C87.4369 303.536 85.714 304.349 83.6226 304.756ZM82.8629 300.708C83.9969 300.487 84.8844 299.991 85.5253 299.219C86.1643 298.439 86.5666 297.483 86.732 296.351C86.9067 295.217 86.8673 293.999 86.6138 292.698C86.3586 291.387 85.9372 290.239 85.3497 289.254C84.7697 288.257 84.037 287.517 83.1517 287.034C82.2664 286.55 81.2568 286.419 80.1228 286.64C78.9609 286.866 78.0558 287.37 77.4074 288.153C76.7683 288.933 76.3623 289.895 76.1895 291.038C76.024 292.17 76.069 293.391 76.3243 294.702C76.5777 296.003 76.9936 297.148 77.5717 298.135C78.1592 299.12 78.8956 299.855 79.7809 300.338C80.6737 300.811 81.7011 300.934 82.8629 300.708ZM96.3942 272.197L101.956 300.751L96.9088 301.734L91.3471 273.18L96.3942 272.197ZM117.864 288.304L115.447 275.895L120.494 274.912L124.665 296.328L119.771 297.281L119.03 293.475L118.807 293.518C118.557 294.812 117.953 295.947 116.996 296.925C116.047 297.9 114.769 298.545 113.161 298.858C111.758 299.132 110.456 299.062 109.257 298.649C108.064 298.225 107.05 297.473 106.212 296.391C105.372 295.301 104.786 293.9 104.453 292.19L101.797 278.554L106.844 277.571L109.348 290.426C109.612 291.783 110.194 292.789 111.093 293.443C111.993 294.098 113.047 294.307 114.255 294.072C114.999 293.927 115.684 293.606 116.31 293.107C116.937 292.609 117.403 291.959 117.71 291.156C118.024 290.342 118.075 289.392 117.864 288.304ZM135.2 272.048L135.96 275.952L123.649 278.35L122.889 274.446L135.2 272.048ZM124.929 268.723L129.976 267.74L133.892 287.845C134.024 288.523 134.228 289.024 134.503 289.347C134.786 289.658 135.111 289.846 135.481 289.909C135.85 289.972 136.244 289.963 136.662 289.881C136.978 289.82 137.262 289.74 137.513 289.643C137.773 289.544 137.97 289.463 138.102 289.398L139.721 293.178C139.47 293.324 139.104 293.501 138.624 293.71C138.153 293.918 137.561 294.101 136.849 294.259C135.592 294.542 134.416 294.573 133.322 294.352C132.225 294.122 131.293 293.619 130.524 292.842C129.765 292.064 129.259 291.005 129.008 289.665L124.929 268.723ZM142.415 292.871L138.243 271.455L143.29 270.472L147.462 291.888L142.415 292.871ZM140.189 267.921C139.389 268.077 138.65 267.946 137.97 267.529C137.289 267.102 136.875 266.512 136.729 265.759C136.58 264.997 136.742 264.295 137.216 263.653C137.687 263.001 138.322 262.598 139.122 262.442C139.93 262.284 140.671 262.42 141.343 262.849C142.022 263.266 142.436 263.856 142.584 264.618C142.731 265.371 142.569 266.073 142.097 266.725C141.634 267.365 140.997 267.764 140.189 267.921ZM160.897 289.705C158.806 290.112 156.903 290.005 155.191 289.384C153.478 288.762 152.037 287.707 150.869 286.217C149.71 284.725 148.915 282.873 148.484 280.661C148.054 278.449 148.094 276.43 148.607 274.603C149.129 272.774 150.067 271.25 151.421 270.032C152.776 268.813 154.498 267.999 156.59 267.592C158.681 267.185 160.583 267.292 162.296 267.913C164.009 268.535 165.446 269.596 166.607 271.097C167.777 272.596 168.577 274.452 169.008 276.664C169.439 278.876 169.392 280.892 168.869 282.711C168.355 284.528 167.42 286.047 166.066 287.266C164.711 288.484 162.988 289.298 160.897 289.705ZM160.137 285.656C161.271 285.435 162.159 284.939 162.8 284.168C163.439 283.388 163.841 282.431 164.006 281.299C164.181 280.165 164.142 278.948 163.888 277.646C163.633 276.336 163.212 275.188 162.624 274.202C162.044 273.206 161.311 272.466 160.426 271.982C159.541 271.499 158.531 271.367 157.397 271.588C156.235 271.814 155.33 272.319 154.682 273.101C154.043 273.882 153.637 274.843 153.464 275.987C153.298 277.119 153.343 278.34 153.599 279.651C153.852 280.952 154.268 282.096 154.846 283.083C155.434 284.069 156.17 284.803 157.055 285.287C157.948 285.759 158.975 285.882 160.137 285.656ZM176.786 273.152L179.23 285.7L174.183 286.683L170.012 265.267L174.836 264.328L175.545 267.967L175.796 267.918C176.055 266.623 176.655 265.517 177.595 264.601C178.545 263.682 179.82 263.067 181.418 262.756C182.896 262.468 184.245 262.533 185.465 262.952C186.694 263.369 187.728 264.118 188.565 265.199C189.412 266.278 189.998 267.674 190.322 269.386L192.978 283.022L187.931 284.005L185.427 271.15C185.148 269.719 184.558 268.671 183.657 268.007C182.765 267.342 181.668 267.136 180.367 267.389C179.484 267.561 178.737 267.909 178.125 268.434C177.521 268.947 177.094 269.604 176.845 270.405C176.605 271.204 176.585 272.12 176.786 273.152ZM210.788 263.2L206.285 264.598C206.064 264.159 205.751 263.767 205.346 263.421C204.951 263.073 204.459 262.827 203.871 262.681C203.283 262.535 202.599 262.538 201.818 262.69C200.767 262.895 199.929 263.294 199.302 263.889C198.684 264.482 198.45 265.14 198.601 265.864C198.713 266.488 199.039 266.95 199.58 267.25C200.13 267.548 200.973 267.717 202.11 267.756L205.915 267.825C208.026 267.867 209.667 268.267 210.837 269.023C212.016 269.777 212.76 270.92 213.068 272.452C213.321 273.802 213.158 275.068 212.578 276.252C212.006 277.425 211.088 278.434 209.824 279.278C208.561 280.122 207.037 280.718 205.252 281.066C202.631 281.576 200.414 281.439 198.602 280.653C196.788 279.859 195.535 278.506 194.845 276.595L199.674 275.162C200.085 276.086 200.702 276.723 201.523 277.074C202.344 277.426 203.335 277.488 204.497 277.262C205.696 277.028 206.61 276.595 207.239 275.961C207.877 275.325 208.126 274.645 207.985 273.92C207.865 273.306 207.53 272.846 206.978 272.539C206.435 272.229 205.65 272.064 204.623 272.042L200.821 271.987C198.684 271.959 197.024 271.535 195.841 270.714C194.657 269.883 193.917 268.686 193.622 267.123C193.356 265.805 193.491 264.592 194.028 263.484C194.572 262.365 195.443 261.414 196.641 260.63C197.847 259.836 199.305 259.272 201.015 258.939C203.524 258.45 205.604 258.6 207.253 259.388C208.911 260.175 210.089 261.445 210.788 263.2ZM232.385 253.118L233.145 257.022L220.834 259.42L220.073 255.516L232.385 253.118ZM222.113 249.793L227.161 248.81L231.077 268.916C231.209 269.594 231.412 270.095 231.688 270.417C231.97 270.729 232.296 270.916 232.665 270.979C233.035 271.043 233.428 271.033 233.847 270.952C234.163 270.89 234.446 270.811 234.698 270.714C234.958 270.615 235.154 270.533 235.287 270.469L236.906 274.249C236.654 274.394 236.288 274.572 235.808 274.781C235.337 274.989 234.746 275.171 234.034 275.329C232.777 275.613 231.601 275.644 230.506 275.423C229.41 275.193 228.477 274.689 227.709 273.913C226.949 273.135 226.444 272.075 226.192 270.735L222.113 249.793ZM242.662 260.32L245.106 272.869L240.059 273.852L234.498 245.297L239.433 244.336L241.532 255.114L241.783 255.065C242.05 253.759 242.64 252.655 243.555 251.753C244.477 250.84 245.756 250.224 247.392 249.906C248.879 249.616 250.236 249.675 251.464 250.082C252.691 250.49 253.724 251.234 254.562 252.315C255.409 253.395 256.001 254.799 256.337 256.528L258.993 270.164L253.946 271.147L251.442 258.292C251.162 256.851 250.572 255.804 249.672 255.149C248.78 254.483 247.67 254.28 246.341 254.539C245.448 254.713 244.687 255.064 244.057 255.592C243.434 256.108 242.993 256.768 242.735 257.571C242.485 258.372 242.461 259.289 242.662 260.32ZM269.207 268.623C267.85 268.887 266.58 268.884 265.399 268.612C264.225 268.33 263.228 267.771 262.41 266.937C261.601 266.101 261.059 264.981 260.786 263.577C260.55 262.369 260.579 261.326 260.871 260.449C261.163 259.572 261.649 258.822 262.328 258.197C263.007 257.573 263.807 257.046 264.726 256.616C265.654 256.175 266.627 255.797 267.646 255.483C268.876 255.108 269.871 254.794 270.632 254.54C271.391 254.276 271.925 253.998 272.235 253.706C272.552 253.403 272.664 253.01 272.569 252.527L272.553 252.443C272.349 251.393 271.879 250.64 271.144 250.185C270.409 249.73 269.456 249.617 268.284 249.845C267.048 250.086 266.12 250.546 265.5 251.227C264.889 251.905 264.53 252.636 264.422 253.419L259.579 253.668C259.698 252.294 260.099 251.087 260.784 250.047C261.467 248.997 262.384 248.134 263.536 247.456C264.685 246.769 266.008 246.28 267.504 245.988C268.536 245.787 269.587 245.708 270.656 245.751C271.726 245.793 272.738 246.011 273.692 246.404C274.645 246.788 275.469 247.404 276.165 248.252C276.87 249.099 277.361 250.233 277.638 251.655L280.43 265.988L275.578 266.933L275.005 263.992L274.838 264.024C274.647 264.679 274.323 265.321 273.867 265.95C273.418 266.568 272.806 267.116 272.031 267.595C271.264 268.063 270.322 268.406 269.207 268.623ZM269.795 264.659C270.808 264.462 271.648 264.091 272.314 263.546C272.977 262.992 273.444 262.342 273.713 261.595C273.992 260.846 274.054 260.076 273.901 259.286L273.409 256.763C273.276 256.924 273.03 257.097 272.671 257.283C272.321 257.467 271.922 257.646 271.473 257.82C271.025 257.994 270.579 258.158 270.136 258.312C269.693 258.466 269.309 258.598 268.984 258.71C268.251 258.959 267.609 259.258 267.06 259.606C266.51 259.954 266.104 260.371 265.842 260.856C265.577 261.332 265.509 261.895 265.635 262.546C265.817 263.475 266.292 264.111 267.063 264.453C267.834 264.795 268.745 264.864 269.795 264.659ZM290.85 241.731L291.61 245.634L279.299 248.032L278.539 244.129L290.85 241.731ZM280.579 238.406L285.626 237.423L289.542 257.528C289.674 258.206 289.878 258.707 290.153 259.03C290.435 259.341 290.761 259.528 291.131 259.592C291.5 259.655 291.894 259.646 292.312 259.564C292.628 259.503 292.912 259.423 293.163 259.326C293.423 259.227 293.62 259.145 293.752 259.081L295.371 262.861C295.119 263.007 294.754 263.184 294.273 263.393C293.803 263.601 293.211 263.784 292.499 263.942C291.242 264.225 290.066 264.256 288.972 264.035C287.875 263.805 286.943 263.302 286.174 262.525C285.415 261.747 284.909 260.688 284.658 259.347L280.579 238.406ZM62.2415 353.314L58.0702 331.898L62.964 330.945L63.6592 334.514L63.8823 334.471C64.0319 333.158 64.5156 332.075 65.3333 331.221C66.1585 330.356 67.1846 329.804 68.4115 329.565C68.6904 329.511 69.0045 329.464 69.3538 329.425C69.7107 329.375 70.0098 329.35 70.2512 329.352L71.1556 333.995C70.9273 333.962 70.5754 333.963 70.0997 333.998C69.6316 334.021 69.1838 334.075 68.7562 334.158C67.836 334.337 67.0476 334.698 66.3912 335.241C65.7422 335.772 65.2765 336.428 64.994 337.206C64.7115 337.985 64.659 338.83 64.8364 339.74L67.2887 352.331L62.2415 353.314ZM85.311 349.254C83.1638 349.673 81.2226 349.588 79.4872 348.999C77.7593 348.4 76.3169 347.359 75.1599 345.877C74.0011 344.386 73.2035 342.52 72.7672 340.28C72.3381 338.077 72.3798 336.062 72.8923 334.235C73.4122 332.397 74.3392 330.866 75.6733 329.641C77.0055 328.408 78.6941 327.591 80.739 327.193C82.0589 326.936 83.346 326.907 84.6005 327.107C85.8624 327.295 87.0302 327.743 88.1038 328.45C89.1867 329.156 90.1215 330.141 90.9082 331.406C91.693 332.662 92.2683 334.228 92.634 336.106L92.9355 337.654L75.3818 341.073L74.7192 337.671L87.4348 335.194C87.2372 334.229 86.8606 333.41 86.3049 332.737C85.7475 332.054 85.0591 331.566 84.2397 331.272C83.4296 330.977 82.5412 330.923 81.5745 331.111C80.5428 331.312 79.6854 331.74 79.0024 332.394C78.3175 333.038 77.8354 333.808 77.5561 334.701C77.2842 335.584 77.2369 336.505 77.4141 337.464L77.9925 340.434C78.2351 341.68 78.671 342.704 79.3003 343.508C79.9277 344.302 80.6966 344.857 81.6069 345.171C82.5154 345.477 83.5181 345.523 84.6149 345.309C85.3492 345.166 85.9938 344.934 86.5489 344.614C87.1021 344.284 87.5574 343.872 87.9146 343.378C88.2718 342.884 88.5031 342.313 88.6085 341.666L93.4242 341.278C93.3694 342.581 93.0142 343.779 92.3587 344.872C91.7107 345.953 90.7905 346.875 89.5981 347.638C88.4038 348.391 86.9748 348.93 85.311 349.254ZM105.865 345.207C104.182 345.535 102.592 345.396 101.095 344.791C99.5974 344.185 98.3026 343.135 97.2107 341.64C96.1187 340.145 95.3437 338.222 94.8857 335.87C94.4222 333.491 94.4215 331.407 94.8837 329.619C95.3533 327.82 96.1759 326.372 97.3514 325.274C98.5251 324.168 99.9346 323.454 101.58 323.134C102.835 322.889 103.908 322.902 104.8 323.172C105.69 323.433 106.43 323.815 107.02 324.317C107.608 324.81 108.083 325.292 108.445 325.762L108.654 325.721L106.574 315.041L111.635 314.055L117.197 342.61L112.233 343.576L111.576 340.202L111.269 340.262C111.11 340.833 110.841 341.46 110.463 342.141C110.082 342.813 109.528 343.433 108.799 343.999C108.07 344.566 107.092 344.969 105.865 345.207ZM106.466 340.792C107.535 340.584 108.39 340.118 109.031 339.396C109.67 338.663 110.083 337.739 110.271 336.622C110.458 335.504 110.417 334.253 110.147 332.869C109.878 331.484 109.448 330.318 108.858 329.371C108.278 328.423 107.556 327.739 106.693 327.319C105.839 326.896 104.868 326.791 103.781 327.003C102.656 327.222 101.774 327.698 101.135 328.43C100.497 329.162 100.087 330.081 99.9069 331.187C99.7268 332.293 99.7661 333.511 100.025 334.84C100.286 336.179 100.709 337.336 101.295 338.312C101.888 339.277 102.62 339.988 103.49 340.446C104.368 340.892 105.36 341.008 106.466 340.792ZM133.292 330.126L130.875 317.717L135.923 316.734L140.094 338.15L135.2 339.103L134.459 335.297L134.236 335.34C133.986 336.633 133.382 337.769 132.424 338.746C131.476 339.722 130.198 340.367 128.59 340.68C127.186 340.953 125.885 340.884 124.685 340.471C123.493 340.047 122.478 339.294 121.641 338.213C120.801 337.122 120.215 335.722 119.882 334.011L117.226 320.376L122.273 319.393L124.777 332.248C125.041 333.605 125.623 334.611 126.522 335.265C127.421 335.92 128.475 336.129 129.684 335.894C130.427 335.749 131.112 335.427 131.739 334.929C132.365 334.431 132.832 333.78 133.139 332.978C133.453 332.164 133.504 331.213 133.292 330.126ZM153.529 335.967C151.391 336.383 149.464 336.272 147.748 335.631C146.04 334.99 144.612 333.922 143.462 332.429C142.32 330.924 141.538 329.089 141.117 326.923C140.693 324.748 140.737 322.747 141.25 320.921C141.76 319.084 142.687 317.553 144.031 316.327C145.382 315.089 147.103 314.267 149.194 313.86C150.932 313.521 152.533 313.542 153.996 313.923C155.467 314.292 156.716 314.98 157.741 315.986C158.765 316.983 159.483 318.242 159.895 319.763L155.071 320.703C154.675 319.709 154.043 318.94 153.174 318.395C152.314 317.839 151.274 317.68 150.057 317.917C149.025 318.118 148.173 318.573 147.501 319.283C146.827 319.984 146.372 320.892 146.136 322.009C145.91 323.124 145.937 324.402 146.217 325.843C146.501 327.302 146.96 328.515 147.592 329.482C148.222 330.44 148.978 331.127 149.86 331.544C150.75 331.95 151.719 332.05 152.77 331.846C153.513 331.701 154.151 331.432 154.682 331.039C155.221 330.635 155.638 330.125 155.932 329.508C156.227 328.891 156.374 328.182 156.372 327.382L161.196 326.442C161.37 327.981 161.186 329.411 160.642 330.732C160.097 332.044 159.224 333.16 158.024 334.078C156.821 334.988 155.323 335.618 153.529 335.967ZM175.151 331.756C173.004 332.174 171.062 332.089 169.327 331.501C167.599 330.901 166.157 329.861 165 328.378C163.841 326.887 163.043 325.021 162.607 322.781C162.178 320.578 162.22 318.563 162.732 316.736C163.252 314.898 164.179 313.367 165.513 312.143C166.845 310.909 168.534 310.093 170.579 309.694C171.899 309.437 173.186 309.408 174.44 309.608C175.702 309.796 176.87 310.244 177.944 310.951C179.027 311.657 179.961 312.642 180.748 313.907C181.533 315.163 182.108 316.73 182.474 318.607L182.775 320.155L165.222 323.574L164.559 320.172L177.275 317.695C177.077 316.73 176.7 315.911 176.145 315.238C175.587 314.556 174.899 314.067 174.079 313.774C173.269 313.478 172.381 313.424 171.414 313.612C170.383 313.813 169.525 314.241 168.842 314.895C168.157 315.54 167.675 316.309 167.396 317.203C167.124 318.085 167.077 319.006 167.254 319.965L167.832 322.935C168.075 324.181 168.511 325.205 169.14 326.009C169.768 326.803 170.536 327.358 171.447 327.672C172.355 327.978 173.358 328.024 174.455 327.81C175.189 327.667 175.834 327.435 176.389 327.115C176.942 326.785 177.397 326.374 177.754 325.879C178.112 325.385 178.343 324.815 178.448 324.167L183.264 323.779C183.209 325.082 182.854 326.28 182.199 327.373C181.551 328.454 180.63 329.376 179.438 330.139C178.244 330.893 176.815 331.431 175.151 331.756ZM196.245 327.213L192.074 305.797L196.898 304.857L197.607 308.496L197.858 308.447C198.065 307.134 198.617 306.032 199.515 305.143C200.411 304.245 201.575 303.657 203.006 303.378C204.456 303.096 205.747 303.211 206.879 303.724C208.019 304.225 208.911 305.04 209.555 306.169L209.779 306.125C210.021 304.843 210.636 303.74 211.623 302.814C212.617 301.878 213.891 301.258 215.443 300.956C217.413 300.572 219.143 300.881 220.631 301.884C222.119 302.887 223.096 304.583 223.561 306.972L226.361 321.347L221.3 322.333L218.652 308.739C218.393 307.409 217.851 306.507 217.025 306.031C216.197 305.546 215.272 305.403 214.25 305.602C213.032 305.839 212.153 306.406 211.614 307.302C211.082 308.187 210.934 309.234 211.169 310.442L213.771 323.799L208.821 324.763L206.133 310.96C205.917 309.854 205.411 309.036 204.613 308.506C203.824 307.975 202.896 307.813 201.827 308.022C201.102 308.163 200.478 308.477 199.956 308.965C199.431 309.443 199.058 310.052 198.835 310.79C198.61 311.518 198.584 312.324 198.756 313.207L201.292 326.23L196.245 327.213ZM236.55 319.811C235.193 320.075 233.924 320.071 232.742 319.8C231.568 319.517 230.572 318.959 229.753 318.125C228.944 317.288 228.403 316.169 228.129 314.765C227.894 313.557 227.922 312.514 228.214 311.637C228.507 310.76 228.992 310.009 229.672 309.385C230.351 308.761 231.15 308.234 232.07 307.804C232.997 307.363 233.97 306.985 234.989 306.671C236.219 306.296 237.214 305.982 237.975 305.727C238.734 305.464 239.268 305.186 239.578 304.894C239.895 304.591 240.007 304.198 239.913 303.715L239.896 303.631C239.692 302.581 239.222 301.828 238.487 301.373C237.752 300.918 236.799 300.805 235.628 301.033C234.392 301.274 233.463 301.734 232.843 302.414C232.233 303.093 231.873 303.824 231.765 304.607L226.923 304.856C227.041 303.482 227.443 302.275 228.127 301.235C228.811 300.185 229.728 299.321 230.879 298.644C232.028 297.957 233.351 297.468 234.848 297.176C235.879 296.975 236.93 296.896 238 296.938C239.069 296.981 240.081 297.199 241.036 297.592C241.988 297.975 242.813 298.591 243.508 299.44C244.214 300.287 244.705 301.421 244.982 302.843L247.773 317.176L242.921 318.121L242.348 315.179L242.181 315.212C241.99 315.866 241.667 316.508 241.21 317.137C240.762 317.756 240.15 318.304 239.375 318.783C238.607 319.251 237.666 319.593 236.55 319.811ZM237.138 315.847C238.152 315.649 238.991 315.278 239.657 314.734C240.321 314.18 240.787 313.53 241.057 312.783C241.335 312.034 241.398 311.264 241.244 310.474L240.752 307.95C240.62 308.111 240.374 308.285 240.014 308.47C239.664 308.654 239.265 308.834 238.816 309.008C238.368 309.182 237.922 309.346 237.48 309.5C237.037 309.653 236.653 309.786 236.327 309.898C235.594 310.147 234.953 310.445 234.403 310.793C233.854 311.142 233.448 311.558 233.185 312.044C232.921 312.52 232.852 313.083 232.979 313.734C233.16 314.663 233.636 315.299 234.407 315.641C235.178 315.983 236.088 316.051 237.138 315.847ZM254.274 302.886L256.718 315.434L251.671 316.417L247.499 295.001L252.323 294.062L253.032 297.701L253.283 297.652C253.542 296.357 254.142 295.251 255.083 294.335C256.033 293.416 257.307 292.801 258.906 292.49C260.384 292.202 261.733 292.267 262.953 292.686C264.182 293.103 265.215 293.852 266.053 294.933C266.9 296.012 267.485 297.408 267.809 299.12L270.465 312.756L265.418 313.739L262.914 300.884C262.635 299.453 262.045 298.405 261.144 297.741C260.252 297.076 259.156 296.87 257.855 297.123C256.972 297.295 256.224 297.643 255.612 298.168C255.008 298.681 254.581 299.338 254.332 300.139C254.092 300.938 254.073 301.854 254.274 302.886ZM286.314 300.321L283.897 287.912L288.944 286.929L293.115 308.344L288.221 309.298L287.48 305.491L287.257 305.535C287.007 306.828 286.403 307.963 285.446 308.941C284.497 309.917 283.219 310.561 281.611 310.875C280.208 311.148 278.906 311.078 277.706 310.666C276.514 310.242 275.5 309.489 274.662 308.408C273.822 307.317 273.236 305.917 272.903 304.206L270.247 290.571L275.294 289.587L277.798 302.442C278.062 303.8 278.644 304.805 279.543 305.46C280.443 306.114 281.497 306.324 282.705 306.089C283.448 305.944 284.134 305.622 284.76 305.124C285.387 304.626 285.853 303.975 286.16 303.173C286.474 302.359 286.525 301.408 286.314 300.321ZM303.374 306.795C302.017 307.059 300.748 307.056 299.566 306.784C298.392 306.501 297.396 305.943 296.577 305.109C295.768 304.273 295.226 303.153 294.953 301.749C294.718 300.541 294.746 299.498 295.038 298.621C295.331 297.744 295.816 296.994 296.496 296.369C297.175 295.745 297.974 295.218 298.894 294.788C299.821 294.347 300.794 293.969 301.813 293.655C303.043 293.28 304.038 292.966 304.799 292.712C305.558 292.448 306.092 292.17 306.402 291.878C306.719 291.575 306.831 291.182 306.737 290.699L306.72 290.615C306.516 289.565 306.046 288.812 305.311 288.357C304.576 287.902 303.623 287.789 302.452 288.017C301.215 288.258 300.287 288.718 299.667 289.399C299.057 290.077 298.697 290.808 298.589 291.591L293.746 291.84C293.865 290.466 294.266 289.259 294.951 288.219C295.635 287.169 296.552 286.306 297.703 285.628C298.852 284.941 300.175 284.452 301.672 284.16C302.703 283.959 303.754 283.88 304.823 283.923C305.893 283.965 306.905 284.183 307.859 284.576C308.812 284.959 309.636 285.575 310.332 286.424C311.038 287.271 311.529 288.405 311.806 289.827L314.597 304.16L309.745 305.105L309.172 302.163L309.005 302.196C308.814 302.851 308.491 303.492 308.034 304.122C307.585 304.74 306.974 305.288 306.199 305.767C305.431 306.235 304.49 306.578 303.374 306.795ZM303.962 302.831C304.976 302.634 305.815 302.263 306.481 301.718C307.145 301.164 307.611 300.514 307.881 299.767C308.159 299.018 308.222 298.248 308.068 297.458L307.576 294.935C307.444 295.096 307.198 295.269 306.838 295.455C306.488 295.639 306.089 295.818 305.64 295.992C305.192 296.166 304.746 296.33 304.303 296.484C303.861 296.638 303.477 296.77 303.151 296.882C302.418 297.131 301.777 297.429 301.227 297.778C300.677 298.126 300.271 298.543 300.009 299.028C299.745 299.504 299.676 300.067 299.803 300.718C299.984 301.647 300.46 302.283 301.231 302.625C302.001 302.967 302.912 303.035 303.962 302.831ZM317.98 273.864L323.542 302.418L318.495 303.401L312.933 274.847L317.98 273.864ZM75.0734 395.641L64.851 375.404L69.9958 374.402L76.6933 388.727L76.8885 388.689L77.8037 372.881L82.8927 371.89L89.6575 386.115L89.8666 386.074L90.6587 370.377L95.8174 369.372L93.9237 391.97L88.6674 392.993L81.833 379.303L81.5402 379.36L80.3437 394.615L75.0734 395.641ZM111.144 389.049C109.053 389.457 107.151 389.35 105.438 388.728C103.725 388.107 102.284 387.051 101.116 385.561C99.9575 384.07 99.1627 382.218 98.7318 380.006C98.3009 377.794 98.3417 375.774 98.8542 373.947C99.3759 372.119 100.314 370.595 101.668 369.376C103.023 368.157 104.746 367.344 106.837 366.937C108.929 366.529 110.831 366.636 112.544 367.258C114.257 367.879 115.693 368.94 116.854 370.441C118.024 371.94 118.824 373.796 119.255 376.008C119.686 378.22 119.64 380.236 119.116 382.055C118.602 383.873 117.667 385.391 116.313 386.61C114.959 387.829 113.236 388.642 111.144 389.049ZM110.385 385.001C111.519 384.78 112.406 384.284 113.047 383.513C113.686 382.732 114.088 381.776 114.254 380.644C114.428 379.51 114.389 378.292 114.136 376.991C113.88 375.68 113.459 374.532 112.871 373.547C112.291 372.55 111.559 371.81 110.673 371.327C109.788 370.843 108.779 370.712 107.645 370.933C106.483 371.159 105.578 371.663 104.929 372.446C104.29 373.226 103.884 374.188 103.711 375.331C103.546 376.463 103.591 377.685 103.846 378.995C104.099 380.296 104.515 381.441 105.093 382.428C105.681 383.413 106.417 384.148 107.303 384.631C108.195 385.104 109.223 385.227 110.385 385.001ZM124.431 386.027L120.259 364.612L125.153 363.659L125.848 367.228L126.071 367.184C126.221 365.872 126.705 364.789 127.522 363.935C128.348 363.07 129.374 362.518 130.601 362.279C130.879 362.225 131.194 362.178 131.543 362.139C131.9 362.089 132.199 362.064 132.44 362.065L133.345 366.708C133.116 366.676 132.764 366.677 132.289 366.711C131.821 366.735 131.373 366.788 130.945 366.872C130.025 367.051 129.237 367.412 128.58 367.955C127.931 368.486 127.466 369.141 127.183 369.92C126.901 370.699 126.848 371.543 127.025 372.454L129.478 385.044L124.431 386.027ZM142.112 375.608L140.911 369.518L141.72 369.361L147.74 359.259L153.638 358.11L146.224 370.495L145.178 370.698L142.112 375.608ZM138.82 383.225L133.258 354.67L138.305 353.687L143.867 382.242L138.82 383.225ZM152.26 380.607L143.391 372.219L146.1 368.001L158.297 379.431L152.26 380.607ZM174.803 376.665C173.446 376.929 172.176 376.925 170.995 376.654C169.82 376.371 168.824 375.813 168.006 374.979C167.196 374.142 166.655 373.023 166.382 371.619C166.146 370.411 166.175 369.368 166.467 368.491C166.759 367.614 167.245 366.863 167.924 366.239C168.603 365.615 169.403 365.088 170.322 364.658C171.249 364.217 172.223 363.839 173.242 363.525C174.471 363.15 175.467 362.836 176.227 362.581C176.986 362.318 177.521 362.04 177.831 361.748C178.148 361.445 178.259 361.052 178.165 360.569L178.149 360.485C177.944 359.435 177.475 358.682 176.74 358.227C176.005 357.772 175.052 357.659 173.88 357.887C172.644 358.127 171.716 358.588 171.096 359.268C170.485 359.947 170.126 360.678 170.018 361.461L165.175 361.71C165.293 360.336 165.695 359.129 166.38 358.089C167.063 357.039 167.98 356.175 169.131 355.498C170.281 354.811 171.604 354.321 173.1 354.03C174.132 353.829 175.183 353.75 176.252 353.792C177.322 353.835 178.334 354.053 179.288 354.446C180.241 354.829 181.065 355.445 181.761 356.294C182.466 357.141 182.957 358.275 183.234 359.697L186.026 374.03L181.174 374.975L180.601 372.033L180.434 372.066C180.243 372.72 179.919 373.362 179.463 373.991C179.014 374.609 178.402 375.158 177.627 375.637C176.86 376.105 175.918 376.447 174.803 376.665ZM175.391 372.701C176.404 372.503 177.244 372.132 177.909 371.588C178.573 371.034 179.04 370.384 179.309 369.636C179.588 368.888 179.65 368.118 179.496 367.328L179.005 364.804C178.872 364.965 178.626 365.139 178.267 365.324C177.917 365.508 177.517 365.687 177.069 365.862C176.621 366.036 176.175 366.2 175.732 366.354C175.289 366.507 174.905 366.64 174.58 366.752C173.847 367.001 173.205 367.299 172.656 367.647C172.106 367.996 171.7 368.412 171.438 368.898C171.173 369.374 171.105 369.937 171.231 370.588C171.412 371.517 171.888 372.153 172.659 372.495C173.43 372.837 174.341 372.905 175.391 372.701ZM192.526 359.74L194.97 372.288L189.923 373.271L185.752 351.855L190.576 350.916L191.285 354.555L191.536 354.506C191.795 353.211 192.395 352.105 193.335 351.188C194.285 350.27 195.56 349.655 197.158 349.344C198.636 349.056 199.985 349.121 201.205 349.54C202.434 349.956 203.468 350.705 204.305 351.787C205.153 352.866 205.738 354.262 206.062 355.974L208.718 369.61L203.671 370.593L201.167 357.738C200.888 356.307 200.298 355.259 199.397 354.595C198.505 353.93 197.408 353.724 196.107 353.977C195.224 354.149 194.477 354.497 193.865 355.022C193.261 355.535 192.834 356.192 192.585 356.993C192.345 357.792 192.325 358.708 192.526 359.74ZM220.691 367.669C219.009 367.996 217.419 367.857 215.921 367.252C214.424 366.646 213.129 365.596 212.037 364.101C210.945 362.606 210.17 360.683 209.712 358.331C209.249 355.952 209.248 353.868 209.71 352.08C210.18 350.281 211.002 348.833 212.178 347.735C213.352 346.629 214.761 345.915 216.406 345.595C217.661 345.351 218.734 345.363 219.626 345.633C220.517 345.894 221.257 346.276 221.847 346.778C222.435 347.272 222.909 347.753 223.271 348.223L223.48 348.182L221.4 337.502L226.461 336.516L232.023 365.071L227.059 366.038L226.402 362.663L226.095 362.723C225.937 363.294 225.668 363.921 225.289 364.602C224.909 365.275 224.354 365.894 223.625 366.46C222.896 367.027 221.918 367.43 220.691 367.669ZM221.293 363.253C222.362 363.045 223.217 362.58 223.857 361.857C224.496 361.125 224.909 360.2 225.097 359.083C225.285 357.966 225.243 356.715 224.974 355.33C224.704 353.945 224.274 352.779 223.685 351.833C223.105 350.884 222.383 350.2 221.519 349.78C220.665 349.358 219.695 349.252 218.607 349.464C217.482 349.683 216.601 350.159 215.962 350.891C215.323 351.623 214.913 352.543 214.733 353.649C214.553 354.755 214.593 355.972 214.851 357.301C215.112 358.64 215.535 359.797 216.121 360.773C216.714 361.738 217.446 362.449 218.317 362.907C219.195 363.353 220.187 363.469 221.293 363.253ZM90.9612 428.025L88.5442 415.616L93.5914 414.633L97.7627 436.049L92.8689 437.002L92.1275 433.196L91.9044 433.239C91.6546 434.532 91.0509 435.668 90.0933 436.645C89.1449 437.621 87.8667 438.266 86.2587 438.579C84.8551 438.852 83.5536 438.782 82.3541 438.37C81.162 437.946 80.1472 437.193 79.3094 436.112C78.4699 435.021 77.8836 433.621 77.5504 431.91L74.8945 418.275L79.9417 417.292L82.4456 430.147C82.7099 431.504 83.2917 432.509 84.191 433.164C85.0903 433.819 86.1441 434.028 87.3525 433.793C88.0961 433.648 88.7811 433.326 89.4077 432.828C90.0342 432.33 90.5008 431.679 90.8076 430.877C91.1218 430.063 91.173 429.112 90.9612 428.025ZM104.378 421.736L106.822 434.284L101.775 435.267L97.6037 413.851L102.428 412.912L103.137 416.551L103.388 416.502C103.647 415.207 104.246 414.101 105.187 413.185C106.137 412.266 107.411 411.652 109.01 411.34C110.488 411.052 111.837 411.118 113.057 411.536C114.286 411.953 115.32 412.702 116.157 413.783C117.004 414.863 117.59 416.258 117.914 417.971L120.569 431.606L115.522 432.589L113.018 419.734C112.74 418.303 112.15 417.255 111.249 416.592C110.357 415.926 109.26 415.72 107.959 415.973C107.076 416.145 106.328 416.493 105.717 417.018C105.112 417.531 104.686 418.188 104.436 418.989C104.197 419.789 104.177 420.704 104.378 421.736ZM124.008 401.299L129.57 429.853L124.522 430.836L118.961 402.282L124.008 401.299ZM143.005 427.671C140.914 428.078 139.011 427.971 137.298 427.349C135.586 426.728 134.145 425.672 132.977 424.183C131.818 422.691 131.023 420.839 130.592 418.627C130.161 416.415 130.202 414.395 130.715 412.568C131.237 410.74 132.175 409.216 133.529 407.997C134.883 406.778 136.606 405.965 138.698 405.558C140.789 405.15 142.691 405.257 144.404 405.879C146.117 406.5 147.554 407.562 148.715 409.062C149.884 410.561 150.685 412.417 151.116 414.629C151.547 416.842 151.5 418.857 150.977 420.677C150.462 422.494 149.528 424.012 148.174 425.231C146.819 426.45 145.096 427.263 143.005 427.671ZM142.245 423.622C143.379 423.401 144.267 422.905 144.908 422.134C145.547 421.353 145.949 420.397 146.114 419.265C146.289 418.131 146.25 416.913 145.996 415.612C145.741 414.301 145.319 413.153 144.732 412.168C144.152 411.172 143.419 410.432 142.534 409.948C141.649 409.464 140.639 409.333 139.505 409.554C138.343 409.78 137.438 410.284 136.79 411.067C136.151 411.847 135.745 412.809 135.572 413.952C135.406 415.084 135.451 416.306 135.707 417.616C135.96 418.918 136.376 420.062 136.954 421.049C137.542 422.034 138.278 422.769 139.163 423.253C140.056 423.725 141.083 423.848 142.245 423.622ZM165.714 423.247C163.576 423.664 161.649 423.552 159.932 422.912C158.225 422.27 156.797 421.202 155.647 419.709C154.505 418.204 153.723 416.369 153.302 414.204C152.878 412.029 152.922 410.028 153.435 408.201C153.945 406.365 154.872 404.834 156.216 403.607C157.567 402.37 159.288 401.547 161.379 401.14C163.117 400.801 164.718 400.822 166.181 401.203C167.652 401.573 168.901 402.26 169.926 403.267C170.95 404.264 171.668 405.523 172.08 407.044L167.256 407.983C166.86 406.99 166.228 406.22 165.359 405.676C164.499 405.12 163.459 404.96 162.242 405.198C161.21 405.399 160.358 405.854 159.686 406.564C159.012 407.264 158.557 408.173 158.321 409.29C158.095 410.405 158.122 411.683 158.402 413.123C158.686 414.583 159.145 415.796 159.777 416.763C160.407 417.721 161.163 418.408 162.045 418.825C162.935 419.23 163.904 419.331 164.955 419.126C165.698 418.981 166.336 418.712 166.867 418.32C167.406 417.916 167.823 417.405 168.117 416.788C168.412 416.171 168.558 415.462 168.557 414.662L173.381 413.722C173.555 415.261 173.371 416.691 172.827 418.012C172.282 419.325 171.409 420.44 170.209 421.359C169.006 422.268 167.508 422.898 165.714 423.247ZM181.065 412.848L179.865 406.758L180.673 406.6L186.694 396.499L192.592 395.35L185.178 407.734L184.132 407.938L181.065 412.848ZM177.773 420.464L172.212 391.91L177.259 390.927L182.821 419.481L177.773 420.464ZM191.214 417.846L182.344 409.458L185.054 405.24L197.251 416.67L191.214 417.846ZM210.113 401.141L212.557 413.689L207.51 414.672L201.948 386.118L206.884 385.157L208.983 395.934L209.234 395.885C209.5 394.579 210.091 393.475 211.006 392.574C211.928 391.661 213.207 391.045 214.843 390.726C216.33 390.437 217.687 390.496 218.914 390.903C220.142 391.31 221.174 392.055 222.012 393.136C222.859 394.215 223.451 395.62 223.788 397.349L226.444 410.984L221.397 411.967L218.893 399.112C218.612 397.672 218.022 396.624 217.123 395.97C216.231 395.304 215.12 395.101 213.791 395.359C212.899 395.533 212.138 395.884 211.507 396.412C210.884 396.929 210.444 397.589 210.185 398.392C209.936 399.193 209.912 400.109 210.113 401.141ZM242.306 398.546L239.889 386.137L244.936 385.154L249.108 406.57L244.214 407.523L243.472 403.717L243.249 403.76C243 405.053 242.396 406.189 241.438 407.167C240.49 408.142 239.212 408.787 237.604 409.1C236.2 409.373 234.898 409.304 233.699 408.891C232.507 408.467 231.492 407.715 230.654 406.633C229.815 405.543 229.228 404.142 228.895 402.432L226.239 388.796L231.287 387.813L233.79 400.668C234.055 402.025 234.637 403.031 235.536 403.685C236.435 404.34 237.489 404.549 238.697 404.314C239.441 404.169 240.126 403.848 240.753 403.349C241.379 402.851 241.846 402.201 242.152 401.398C242.467 400.584 242.518 399.634 242.306 398.546ZM253.12 405.788L248.949 384.373L253.773 383.433L254.481 387.072L254.732 387.023C254.94 385.709 255.492 384.608 256.39 383.719C257.286 382.821 258.45 382.233 259.881 381.954C261.331 381.671 262.622 381.787 263.754 382.299C264.894 382.801 265.786 383.616 266.43 384.745L266.653 384.701C266.896 383.419 267.51 382.315 268.497 381.39C269.492 380.453 270.765 379.834 272.318 379.531C274.288 379.148 276.018 379.457 277.506 380.46C278.994 381.463 279.971 383.159 280.436 385.548L283.236 399.923L278.175 400.908L275.527 387.314C275.268 385.985 274.725 385.083 273.9 384.607C273.072 384.122 272.147 383.979 271.124 384.178C269.907 384.415 269.028 384.982 268.489 385.878C267.957 386.763 267.809 387.81 268.044 389.018L270.646 402.375L265.696 403.339L263.007 389.536C262.792 388.43 262.285 387.612 261.488 387.082C260.699 386.551 259.77 386.389 258.702 386.597C257.976 386.739 257.353 387.053 256.83 387.541C256.306 388.019 255.932 388.627 255.71 389.365C255.485 390.094 255.459 390.9 255.631 391.783L258.167 404.805L253.12 405.788ZM293.425 398.386C292.068 398.651 290.799 398.647 289.617 398.376C288.443 398.093 287.446 397.535 286.628 396.7C285.819 395.864 285.277 394.744 285.004 393.341C284.769 392.133 284.797 391.09 285.089 390.213C285.382 389.336 285.867 388.585 286.546 387.961C287.226 387.337 288.025 386.81 288.945 386.38C289.872 385.938 290.845 385.561 291.864 385.246C293.094 384.872 294.089 384.558 294.85 384.303C295.609 384.04 296.143 383.762 296.453 383.47C296.77 383.167 296.882 382.774 296.788 382.29L296.771 382.207C296.567 381.156 296.097 380.404 295.362 379.949C294.627 379.494 293.674 379.38 292.503 379.609C291.266 379.849 290.338 380.31 289.718 380.99C289.108 381.669 288.748 382.4 288.64 383.183L283.797 383.431C283.916 382.058 284.317 380.851 285.002 379.81C285.685 378.761 286.603 377.897 287.754 377.22C288.903 376.533 290.226 376.043 291.722 375.752C292.754 375.551 293.805 375.472 294.874 375.514C295.944 375.557 296.956 375.774 297.91 376.167C298.863 376.551 299.687 377.167 300.383 378.016C301.088 378.862 301.579 379.997 301.856 381.419L304.648 395.752L299.796 396.697L299.223 393.755L299.056 393.788C298.865 394.442 298.541 395.084 298.085 395.713C297.636 396.331 297.024 396.88 296.249 397.359C295.482 397.827 294.54 398.169 293.425 398.386ZM294.013 394.422C295.026 394.225 295.866 393.854 296.532 393.31C297.196 392.756 297.662 392.105 297.932 391.358C298.21 390.609 298.273 389.84 298.119 389.05L297.627 386.526C297.494 386.687 297.248 386.861 296.889 387.046C296.539 387.23 296.14 387.409 295.691 387.583C295.243 387.758 294.797 387.922 294.354 388.075C293.912 388.229 293.527 388.362 293.202 388.474C292.469 388.722 291.828 389.021 291.278 389.369C290.728 389.718 290.322 390.134 290.06 390.62C289.796 391.096 289.727 391.659 289.854 392.309C290.035 393.239 290.511 393.875 291.281 394.217C292.052 394.558 292.963 394.627 294.013 394.422ZM311.149 381.461L313.593 394.01L308.545 394.993L304.374 373.577L309.198 372.637L309.907 376.276L310.158 376.227C310.417 374.932 311.017 373.827 311.958 372.91C312.908 371.992 314.182 371.377 315.781 371.066C317.258 370.778 318.607 370.843 319.827 371.262C321.057 371.678 322.09 372.427 322.928 373.509C323.775 374.588 324.36 375.984 324.684 377.696L327.34 391.332L322.293 392.315L319.789 379.46C319.51 378.029 318.92 376.981 318.019 376.317C317.127 375.652 316.031 375.445 314.729 375.699C313.846 375.871 313.099 376.219 312.487 376.743C311.883 377.257 311.456 377.914 311.207 378.715C310.967 379.514 310.948 380.43 311.149 381.461ZM89.0422 490.91L83.3066 461.463L88.2702 460.496L88.96 464.038L89.2528 463.981C89.4116 463.409 89.6711 462.785 90.0311 462.107C90.3892 461.42 90.9319 460.788 91.6591 460.212C92.3845 459.627 93.3746 459.213 94.6294 458.968C96.2839 458.646 97.8582 458.778 99.3521 459.365C100.854 459.941 102.155 460.976 103.256 462.469C104.365 463.951 105.151 465.881 105.614 468.261C106.072 470.613 106.076 472.686 105.625 474.482C105.174 476.277 104.368 477.737 103.207 478.86C102.046 479.983 100.625 480.709 98.9423 481.036C97.7154 481.275 96.6578 481.269 95.7694 481.018C94.8811 480.766 94.1345 480.4 93.5296 479.92C92.9322 479.429 92.448 478.949 92.0771 478.481L91.868 478.522L94.0894 489.927L89.0422 490.91ZM90.3419 471.207C90.6117 472.592 91.0431 473.767 91.6363 474.732C92.2387 475.695 92.9688 476.397 93.8265 476.838C94.6916 477.267 95.6586 477.378 96.7276 477.17C97.843 476.953 98.7192 476.473 99.3562 475.732C99.9914 474.981 100.398 474.048 100.577 472.933C100.762 471.806 100.725 470.574 100.464 469.235C100.205 467.906 99.7848 466.763 99.2027 465.805C98.6207 464.848 97.8962 464.149 97.0292 463.71C96.1623 463.272 95.1664 463.162 94.0417 463.381C92.9635 463.591 92.1032 464.053 91.4607 464.766C90.8183 465.48 90.4014 466.386 90.2102 467.484C90.0282 468.581 90.0721 469.822 90.3419 471.207ZM120.262 476.927C118.171 477.335 116.268 477.228 114.555 476.606C112.843 475.985 111.402 474.929 110.234 473.439C109.075 471.948 108.28 470.096 107.849 467.884C107.418 465.671 107.459 463.652 107.972 461.825C108.494 459.997 109.432 458.473 110.786 457.254C112.141 456.035 113.863 455.222 115.955 454.814C118.046 454.407 119.948 454.514 121.661 455.136C123.374 455.757 124.811 456.818 125.972 458.319C127.141 459.818 127.942 461.674 128.373 463.886C128.804 466.098 128.757 468.114 128.234 469.933C127.719 471.751 126.785 473.269 125.431 474.488C124.076 475.707 122.353 476.52 120.262 476.927ZM119.502 472.879C120.636 472.658 121.524 472.162 122.165 471.39C122.804 470.61 123.206 469.654 123.371 468.522C123.546 467.388 123.507 466.17 123.253 464.869C122.998 463.558 122.576 462.41 121.989 461.425C121.409 460.428 120.676 459.688 119.791 459.205C118.906 458.721 117.896 458.59 116.762 458.811C115.6 459.037 114.695 459.541 114.047 460.323C113.408 461.104 113.002 462.066 112.829 463.209C112.663 464.341 112.708 465.562 112.964 466.873C113.217 468.174 113.633 469.319 114.211 470.306C114.799 471.291 115.535 472.026 116.42 472.509C117.313 472.982 118.34 473.105 119.502 472.879ZM140.071 450.407L140.831 454.311L128.52 456.709L127.759 452.805L140.071 450.407ZM129.8 447.082L134.847 446.099L138.763 466.204C138.895 466.882 139.099 467.383 139.374 467.706C139.656 468.017 139.982 468.205 140.351 468.268C140.721 468.331 141.114 468.322 141.533 468.24C141.849 468.179 142.132 468.099 142.384 468.002C142.644 467.903 142.84 467.821 142.973 467.757L144.592 471.537C144.34 471.683 143.974 471.86 143.494 472.069C143.023 472.277 142.432 472.46 141.72 472.618C140.463 472.901 139.287 472.932 138.192 472.711C137.096 472.481 136.163 471.978 135.395 471.201C134.635 470.423 134.13 469.364 133.879 468.023L129.8 447.082ZM156.618 469.846C154.47 470.264 152.529 470.179 150.794 469.591C149.066 468.992 147.624 467.951 146.467 466.469C145.308 464.977 144.51 463.111 144.074 460.871C143.645 458.668 143.686 456.654 144.199 454.827C144.719 452.989 145.646 451.458 146.98 450.233C148.312 448.999 150.001 448.183 152.046 447.785C153.365 447.528 154.653 447.499 155.907 447.698C157.169 447.887 158.337 448.335 159.41 449.042C160.493 449.748 161.428 450.733 162.215 451.998C163 453.253 163.575 454.82 163.941 456.698L164.242 458.245L146.688 461.664L146.026 458.262L158.741 455.786C158.544 454.821 158.167 454.002 157.612 453.329C157.054 452.646 156.366 452.158 155.546 451.864C154.736 451.568 153.848 451.515 152.881 451.703C151.849 451.904 150.992 452.331 150.309 452.985C149.624 453.63 149.142 454.399 148.863 455.293C148.591 456.176 148.544 457.097 148.721 458.056L149.299 461.026C149.542 462.271 149.978 463.296 150.607 464.099C151.234 464.894 152.003 465.448 152.914 465.763C153.822 466.068 154.825 466.114 155.921 465.901C156.656 465.758 157.3 465.526 157.856 465.206C158.409 464.876 158.864 464.464 159.221 463.97C159.578 463.476 159.81 462.905 159.915 462.257L164.731 461.869C164.676 463.173 164.321 464.371 163.665 465.463C163.017 466.545 162.097 467.467 160.905 468.23C159.71 468.983 158.281 469.522 156.618 469.846ZM171.754 453.439L174.198 465.988L169.151 466.971L164.98 445.555L169.804 444.615L170.513 448.254L170.763 448.205C171.023 446.91 171.622 445.805 172.563 444.888C173.513 443.97 174.787 443.355 176.386 443.044C177.864 442.756 179.213 442.821 180.433 443.24C181.662 443.656 182.695 444.405 183.533 445.487C184.38 446.566 184.966 447.962 185.289 449.674L187.945 463.31L182.898 464.293L180.394 451.438C180.116 450.007 179.526 448.959 178.624 448.295C177.733 447.629 176.636 447.423 175.335 447.677C174.452 447.849 173.704 448.197 173.093 448.721C172.488 449.235 172.062 449.892 171.812 450.693C171.572 451.492 171.553 452.408 171.754 453.439ZM198.421 439.041L199.181 442.945L186.87 445.343L186.11 441.439L198.421 439.041ZM188.15 435.716L193.197 434.733L197.113 454.838C197.245 455.517 197.449 456.018 197.724 456.34C198.007 456.652 198.333 456.839 198.702 456.902C199.071 456.965 199.465 456.956 199.883 456.875C200.199 456.813 200.483 456.734 200.734 456.637C200.994 456.538 201.191 456.456 201.323 456.392L202.942 460.172C202.691 460.317 202.325 460.495 201.845 460.704C201.374 460.911 200.782 461.094 200.07 461.252C198.813 461.536 197.637 461.567 196.543 461.346C195.446 461.116 194.514 460.612 193.745 459.836C192.986 459.058 192.48 457.998 192.229 456.658L188.15 435.716ZM205.636 459.864L201.464 438.448L206.511 437.465L210.683 458.881L205.636 459.864ZM203.41 434.915C202.61 435.07 201.871 434.94 201.191 434.522C200.51 434.095 200.096 433.505 199.95 432.752C199.801 431.99 199.963 431.288 200.437 430.646C200.908 429.995 201.543 429.591 202.343 429.435C203.151 429.278 203.892 429.413 204.564 429.842C205.243 430.26 205.657 430.85 205.805 431.612C205.952 432.365 205.79 433.067 205.318 433.718C204.855 434.358 204.218 434.757 203.41 434.915ZM220.942 457.332C219.585 457.596 218.315 457.592 217.134 457.321C215.96 457.038 214.963 456.48 214.145 455.645C213.335 454.809 212.794 453.689 212.521 452.286C212.285 451.078 212.314 450.035 212.606 449.158C212.898 448.281 213.384 447.53 214.063 446.906C214.742 446.282 215.542 445.755 216.461 445.325C217.388 444.884 218.362 444.506 219.381 444.192C220.61 443.817 221.606 443.503 222.366 443.248C223.126 442.985 223.66 442.707 223.97 442.415C224.287 442.112 224.398 441.719 224.304 441.235L224.288 441.152C224.083 440.101 223.614 439.349 222.879 438.894C222.144 438.439 221.191 438.325 220.019 438.554C218.783 438.794 217.855 439.255 217.235 439.935C216.624 440.614 216.265 441.345 216.157 442.128L211.314 442.376C211.432 441.003 211.834 439.796 212.519 438.755C213.202 437.706 214.119 436.842 215.27 436.165C216.42 435.478 217.743 434.988 219.239 434.697C220.271 434.496 221.322 434.417 222.391 434.459C223.461 434.502 224.473 434.719 225.427 435.112C226.38 435.496 227.204 436.112 227.9 436.961C228.605 437.807 229.096 438.942 229.373 440.364L232.165 454.697L227.313 455.642L226.74 452.7L226.573 452.733C226.382 453.387 226.058 454.029 225.602 454.658C225.153 455.276 224.541 455.825 223.766 456.304C222.999 456.772 222.057 457.114 220.942 457.332ZM221.53 453.368C222.543 453.17 223.383 452.799 224.048 452.255C224.712 451.701 225.179 451.05 225.448 450.303C225.727 449.554 225.789 448.785 225.635 447.995L225.144 445.471C225.011 445.632 224.765 445.806 224.406 445.991C224.056 446.175 223.656 446.354 223.208 446.529C222.76 446.703 222.314 446.867 221.871 447.02C221.428 447.174 221.044 447.307 220.719 447.419C219.986 447.667 219.344 447.966 218.795 448.314C218.245 448.663 217.839 449.079 217.577 449.565C217.312 450.041 217.244 450.604 217.37 451.255C217.551 452.184 218.027 452.82 218.798 453.162C219.569 453.503 220.48 453.572 221.53 453.368ZM235.548 424.4L241.109 452.955L236.062 453.938L230.5 425.383L235.548 424.4Z" fill="white"/>
</svg>
