<svg width="159" height="49" viewBox="0 0 159 49" fill="none" xmlns="http://www.w3.org/2000/svg">
<path d="M51.246 13.5228C51.246 18.922 46.8692 23.2988 41.4701 23.2988C36.0711 23.2988 31.6943 18.922 31.6943 13.5228C31.6943 8.12387 36.0711 3.74707 41.4701 3.74707C46.8692 3.74707 51.246 8.12387 51.246 13.5228Z" fill="#1C6DD0"/>
<path d="M41.4696 25.4971C46.8686 25.4971 51.2454 29.8739 51.2454 35.273C51.2454 40.4675 47.194 44.7148 42.0786 45.0292L42.0806 45.0488H21.51C19.9713 45.0488 19.2149 43.1758 20.322 42.1072L34.4556 28.4643C36.2322 26.6345 38.7179 25.4971 41.4696 25.4971Z" fill="#F9FAFB"/>
<path d="M0 35.273C0 29.8739 4.37677 25.4971 9.7758 25.4971C15.1749 25.4971 19.5516 29.8739 19.5516 35.273C19.5516 40.672 15.1749 45.0488 9.7758 45.0488C4.37677 45.0488 0 40.672 0 35.273Z" fill="#F7BFA0"/>
<path d="M9.77582 23.2988C4.37679 23.2988 0 18.922 0 13.5228C0 8.32841 4.05142 4.08109 9.16674 3.76664L9.16482 3.74707H29.7353C31.2741 3.74709 32.0305 5.61998 30.9234 6.68865L16.7897 20.3316C15.0132 22.1614 12.5275 23.2988 9.77582 23.2988Z" fill="#F9FAFB"/>
<path d="M155.508 26.9191C155.508 26.0154 156.221 25.5874 156.911 25.5874C157.624 25.5874 158.314 26.0154 158.314 26.9191V41.1157C158.314 41.9956 157.624 42.4474 156.911 42.4474C156.221 42.4474 155.508 41.9956 155.508 41.1157V26.9191Z" fill="#F9FAFB"/>
<path d="M146.689 25.5874C151.041 25.5874 153.633 28.3459 153.633 32.4836V41.1157C153.633 41.9956 152.943 42.4474 152.23 42.4474C151.54 42.4474 150.827 41.9956 150.827 41.1157V39.4036C150.827 37.0494 149.566 35.9079 146.689 35.9079C143.811 35.9079 142.551 37.0494 142.551 39.4036V41.1157C142.551 41.9956 141.862 42.4474 141.148 42.4474C140.459 42.4474 139.745 41.9956 139.745 41.1157V32.4836C139.745 28.3459 142.361 25.5874 146.689 25.5874ZM150.827 35.0281V32.4836C150.827 29.5824 149.043 28.1556 146.689 28.1556C144.335 28.1556 142.551 29.5824 142.551 32.4836V35.0281C143.479 33.958 144.905 33.3872 146.689 33.3872C148.496 33.3872 149.923 33.958 150.827 35.0281Z" fill="#F9FAFB"/>
<path d="M133.01 35.8126C133.01 36.4309 132.63 36.7638 131.988 36.7638H123.403C123.593 38.8564 125.306 39.9027 127.089 39.9027C128.231 39.9027 129.443 39.4747 130.276 38.5711C130.585 38.2619 130.918 38.1192 131.251 38.1192C132.249 38.1192 133.105 39.3082 132.368 40.2594C131.322 41.6387 129.301 42.4234 127.256 42.4234C124.069 42.4234 120.764 40.5448 120.764 36.1455C120.764 31.8651 123.879 29.7725 126.97 29.7725C129.99 29.7725 133.01 31.7938 133.01 35.8126ZM123.57 34.7663H130.395C129.895 33.0303 128.445 32.1742 126.994 32.1742C125.52 32.1742 124.069 33.0303 123.57 34.7663Z" fill="#F9FAFB"/>
<path d="M107.079 47.4651V36.2647C107.079 31.9605 110.289 29.8203 113.476 29.8203C116.686 29.8203 119.896 31.9605 119.896 36.2647C119.896 40.5689 116.829 42.5664 113.88 42.5664C112.334 42.5664 110.813 42.0194 109.766 40.9493V47.4651C109.766 48.3687 109.1 48.7967 108.435 48.7967C107.745 48.7967 107.079 48.3687 107.079 47.4651ZM113.452 40.1646C115.592 40.1646 117.138 38.4049 117.138 36.2647C117.138 34.1007 115.592 32.3648 113.452 32.3648C111.312 32.3648 109.766 34.1007 109.766 36.2647C109.766 38.4049 111.312 40.1646 113.452 40.1646Z" fill="#F9FAFB"/>
<path d="M105.735 36.0977V41.2342C105.735 42.114 105.07 42.5659 104.404 42.5659C103.714 42.5659 103.048 42.114 103.048 41.2342V40.283C102.192 41.7811 100.575 42.5183 98.8867 42.5183C96.0094 42.5183 92.918 40.3543 92.918 36.0977C92.918 31.7935 96.1283 29.6533 99.3385 29.6533C102.525 29.6533 105.735 31.7935 105.735 36.0977ZM99.3623 39.9976C101.503 39.9976 103.048 38.2617 103.048 36.0977C103.048 33.9575 101.503 32.1978 99.3623 32.1978C97.2221 32.1978 95.6764 33.9575 95.6764 36.0977C95.6764 38.2617 97.2221 39.9976 99.3623 39.9976Z" fill="#F9FAFB"/>
<path d="M89.5694 38.4995C89.8785 38.0477 90.3066 37.8574 90.7108 37.8574C91.6382 37.8574 92.4943 38.8562 91.7571 40.0214C90.6633 41.686 88.6895 42.5421 86.692 42.5421C83.5531 42.5421 80.3428 40.4494 80.3428 36.0977C80.3428 31.746 83.5531 29.6533 86.692 29.6533C88.6895 29.6533 90.6633 30.5094 91.7571 32.174C92.4943 33.3392 91.6382 34.338 90.7108 34.338C90.3066 34.338 89.8785 34.1477 89.5694 33.6959C88.9273 32.6972 87.7383 32.1502 86.5731 32.1502C84.8372 32.1502 83.1012 33.363 83.1012 36.0977C83.1012 38.8562 84.8134 40.0452 86.5493 40.0452C87.7383 40.0452 88.9273 39.4982 89.5694 38.4995Z" fill="#F9FAFB"/>
<path d="M73.3331 39.8796C75.3068 39.9034 76.686 39.1186 76.686 37.8107C76.686 33.5779 66.8887 37.3589 66.8887 30.3438C66.8887 27.5615 69.1716 25.5165 72.8099 25.5402C75.6397 25.5402 77.9701 26.7292 78.8976 29.3213C79.3494 30.5103 78.4695 31.3426 77.6134 31.3426C77.1141 31.3426 76.6147 31.0572 76.3769 30.4151C75.8062 28.8694 74.5696 28.156 72.8099 28.156C70.9551 28.156 69.671 29.0597 69.671 30.3438C69.671 34.8144 79.4683 30.867 79.4683 37.8107C79.4683 40.8308 76.686 42.4954 73.3806 42.4954C70.4795 42.4954 67.9588 41.3064 66.96 38.7619C66.5082 37.6205 67.4356 36.7406 68.3155 36.7406C68.7673 36.7406 69.2191 36.9784 69.4569 37.5729C70.0752 39.1424 71.5258 39.8558 73.3331 39.8796Z" fill="#F9FAFB"/>
<path d="M109.595 6.08768C112.876 6.08768 115.587 8.10898 115.587 12.1754V17.4545C115.587 18.3344 114.921 18.7862 114.232 18.7862C113.566 18.7862 112.876 18.3344 112.876 17.4545V11.9613C112.876 9.65468 111.426 8.48946 109.595 8.48946H106.313V17.4545C106.313 18.3344 105.647 18.7862 104.981 18.7862C104.292 18.7862 103.626 18.3344 103.626 17.4545V1.33168C103.626 0.45182 104.292 0 104.981 0C105.647 0 106.313 0.45182 106.313 1.33168V6.08768H109.595Z" fill="#F9FAFB"/>
<path d="M99.7295 14.7192C100.039 14.2674 100.467 14.0771 100.871 14.0771C101.798 14.0771 102.654 15.0759 101.917 16.2411C100.823 17.9057 98.8497 18.7618 96.8522 18.7618C93.7132 18.7618 90.5029 16.6692 90.5029 12.3174C90.5029 7.96569 93.7132 5.87305 96.8522 5.87305C98.8497 5.87305 100.823 6.72913 101.917 8.39373C102.654 9.55895 101.798 10.5577 100.871 10.5577C100.467 10.5577 100.039 10.3675 99.7295 9.91565C99.0875 8.91689 97.8985 8.36995 96.7333 8.36995C94.9973 8.36995 93.2614 9.58273 93.2614 12.3174C93.2614 15.0759 94.9736 16.2649 96.7095 16.2649C97.8985 16.2649 99.0875 15.718 99.7295 14.7192Z" fill="#F9FAFB"/>
<path d="M89.6168 12.0323C89.6168 12.6506 89.2363 12.9835 88.5942 12.9835H80.0097C80.1999 15.0761 81.9121 16.1225 83.6956 16.1225C84.837 16.1225 86.0498 15.6944 86.8821 14.7908C87.1912 14.4816 87.5241 14.339 87.8571 14.339C88.8558 14.339 89.7119 15.528 88.9747 16.4792C87.9284 17.8584 85.9071 18.6431 83.862 18.6431C80.6755 18.6431 77.3701 16.7645 77.3701 12.3652C77.3701 8.08483 80.4853 5.99219 83.5767 5.99219C86.5967 5.99219 89.6168 8.01349 89.6168 12.0323ZM80.1761 10.986H87.001C86.5016 9.25004 85.051 8.39397 83.6005 8.39397C82.1261 8.39397 80.6755 9.25004 80.1761 10.986Z" fill="#F9FAFB"/>
<path d="M71.2159 17.3357V4.44692H67.316C65.6276 4.44692 65.6514 1.99756 67.316 1.99756H77.9456C79.6102 1.99756 79.634 4.44692 77.9456 4.44692H74.0457V17.3357C74.0457 18.2155 73.3323 18.6673 72.6427 18.6673C71.9293 18.6673 71.2159 18.2155 71.2159 17.3357Z" fill="#F9FAFB"/>
</svg>
